<svg width="1934" height="360" viewBox="0 0 1934 360" fill="none" xmlns="http://www.w3.org/2000/svg">
<path d="M71.0201 359.8C69.5701 359.8 68.1 359.54 66.69 359.01C61.92 357.21 58.7598 352.64 58.7598 347.54V271.28H49.6402C49.6402 271.28 49.5801 271.29 49.5601 271.29C36.4301 271.29 24.0801 266.19 14.7701 256.91C5.45008 247.62 0.299844 235.25 0.279844 222.08L5.86019e-05 49.86C-0.0199414 36.7 5.07994 24.31 14.3799 14.99C23.6699 5.67 36.04 0.52 49.21 0.5L357.95 0H358.03C385.17 0 407.27 22.06 407.32 49.2L407.6 221.42C407.62 234.58 402.52 246.97 393.22 256.29C383.93 265.62 370.04 271.25 358.39 271.25H145.03C140.22 271.25 135.86 268.67 133.87 264.29C131.88 259.9 132.65 254.74 135.83 251.12L228.81 145.57L144.4 145.53C137.63 145.53 132.14 140.04 132.15 133.27C132.15 126.5 137.64 121.02 144.41 121.02L255.93 121.07C260.75 121.07 265.11 123.89 267.1 128.28C269.08 132.67 268.31 137.81 265.13 141.43L172.24 246.88L358.33 246.27C364.97 246.26 371.18 243.67 375.85 238.99C380.52 234.3 383.09 228.08 383.08 221.46L382.8 49.24C382.78 35.6 371.67 24.51 358.03 24.51H357.99L49.2501 25.01C42.6301 25.02 36.4201 27.61 31.7501 32.29C27.0801 36.98 24.5101 43.2 24.5201 49.82L24.7999 222.04C24.8099 228.66 27.4001 234.87 32.0801 239.55C36.7601 244.21 42.9699 246.78 49.5699 246.78H49.6099L71.0098 246.75H71.0201C74.2701 246.75 77.3802 248.04 79.6802 250.34C81.9802 252.64 83.2701 255.76 83.2701 259.01V315.07L108.57 286.33C113.04 281.25 120.79 280.76 125.87 285.23C130.95 289.7 131.44 297.45 126.97 302.53L80.21 355.64C77.84 358.34 74.4598 359.8 71.0098 359.8H71.0201Z" fill="url(#paint0_linear_183_2085)"/>
<path d="M553.881 220.02C551.591 217.66 550.461 214.6 550.461 210.84V62.0899C550.461 58.3399 551.561 55.3599 553.761 53.1599C555.961 50.9599 559.021 49.8599 562.941 49.8599H650.531C658.361 49.8599 662.271 53.2799 662.271 60.1399C662.271 66.9999 658.361 70.4199 650.531 70.4199H575.421V124.49H645.641C653.471 124.49 657.381 127.91 657.381 134.77C657.381 141.63 653.471 145.04 645.641 145.04H575.421V210.86C575.421 214.77 574.321 217.88 572.121 220.16C569.921 222.44 566.861 223.58 562.941 223.58C559.021 223.58 556.171 222.39 553.891 220.03L553.881 220.02Z" fill="#F2F2F2"/>
<path d="M691.011 219.04C688.811 216.84 687.711 213.86 687.711 210.11V62.0899C687.711 58.3399 688.811 55.3599 691.011 53.1599C693.211 50.9599 696.271 49.8599 700.191 49.8599H790.231C793.981 49.8599 796.871 50.7599 798.921 52.5499C800.961 54.3499 801.981 56.8699 801.981 60.1299C801.981 63.3899 800.961 65.8799 798.921 67.5899C796.881 69.2999 793.981 70.1599 790.231 70.1599H712.431V124.47H785.341C789.091 124.47 791.991 125.37 794.031 127.16C796.071 128.96 797.091 131.48 797.091 134.74C797.091 138 796.071 140.53 794.031 142.32C791.991 144.11 789.091 145.01 785.341 145.01H712.431V202.02H790.231C798.061 202.02 801.971 205.36 801.971 212.05C801.971 215.32 800.951 217.84 798.911 219.63C796.871 221.43 793.971 222.32 790.221 222.32H700.181C696.271 222.32 693.211 221.22 691.001 219.02L691.011 219.04Z" fill="#F2F2F2"/>
<path d="M834.14 219.04C831.94 216.84 830.83 213.86 830.83 210.11V62.0899C830.83 58.3399 831.93 55.3599 834.14 53.1599C836.34 50.9599 839.4 49.8599 843.31 49.8599H933.35C937.1 49.8599 940 50.7599 942.04 52.5499C944.08 54.3499 945.1 56.8699 945.1 60.1299C945.1 63.3899 944.08 65.8799 942.04 67.5899C940 69.2999 937.1 70.1599 933.35 70.1599H855.55V124.47H928.46C932.21 124.47 935.1 125.37 937.15 127.16C939.19 128.96 940.21 131.48 940.21 134.74C940.21 138 939.19 140.53 937.15 142.32C935.11 144.11 932.21 145.01 928.46 145.01H855.55V202.02H933.35C941.18 202.02 945.09 205.36 945.09 212.05C945.09 215.32 944.07 217.84 942.03 219.63C939.99 221.43 937.09 222.32 933.34 222.32H843.3C839.39 222.32 836.33 221.22 834.13 219.02L834.14 219.04Z" fill="#F2F2F2"/>
<path d="M977.261 219.04C975.061 216.84 973.961 213.86 973.961 210.11V62.0899C973.961 58.3399 975.061 55.3599 977.261 53.1599C979.461 50.9599 982.521 49.8599 986.441 49.8599H1034.39C1062.28 49.8599 1083.89 57.3699 1099.23 72.3699C1114.56 87.3799 1122.23 108.58 1122.23 135.98C1122.23 163.38 1114.56 184.63 1099.23 199.71C1083.9 214.8 1062.29 222.34 1034.39 222.34H986.441C982.531 222.34 979.471 221.24 977.261 219.04ZM1096.53 135.98C1096.53 92.5899 1075.33 70.8999 1032.92 70.8999H999.161V201.31H1032.92C1075.33 201.31 1096.53 179.53 1096.53 135.98Z" fill="#F2F2F2"/>
<path d="M1271.95 212.06C1271.95 218.91 1268.04 222.34 1260.21 222.34H1153.05C1149.63 222.34 1146.89 221.36 1144.85 219.4C1142.81 217.44 1141.79 214.92 1141.79 211.82C1141.79 208.56 1142.85 205.38 1144.97 202.28L1238.19 70.4101H1153.78C1145.95 70.4101 1142.04 66.9901 1142.04 60.1301C1142.04 53.2701 1145.95 49.8501 1153.78 49.8501H1257.76C1261.35 49.8501 1264.16 50.8701 1266.2 52.9101C1268.24 54.9501 1269.26 57.5201 1269.26 60.6201C1269.26 63.8901 1268.2 66.9001 1266.08 69.6701L1172.62 201.79H1260.21C1268.04 201.79 1271.95 205.21 1271.95 212.07V212.06Z" fill="url(#paint1_linear_183_2085)"/>
<path d="M1423.03 148.45C1428.49 155.63 1431.23 164.6 1431.23 175.36C1431.23 190.2 1426.13 201.75 1415.94 209.98C1405.74 218.22 1391.51 222.33 1373.25 222.33H1310.86C1306.95 222.33 1303.89 221.23 1301.69 219.03C1299.49 216.83 1298.39 213.85 1298.39 210.1V62.0899C1298.39 58.3399 1299.49 55.3599 1301.69 53.1599C1303.89 50.9599 1306.95 49.8599 1310.86 49.8599H1370.56C1388.33 49.8599 1402.24 53.8199 1412.27 61.7299C1422.3 69.6399 1427.32 80.6899 1427.32 94.8799C1427.32 104.02 1424.91 111.93 1420.1 118.61C1415.29 125.3 1408.56 130.28 1399.92 133.54C1409.87 136.31 1417.57 141.29 1423.04 148.46L1423.03 148.45ZM1323.08 124.48H1366.63C1390.77 124.48 1402.84 115.35 1402.84 97.0799C1402.84 87.9499 1399.86 81.1799 1393.91 76.7799C1387.96 72.3799 1378.86 70.1699 1366.63 70.1699H1323.08V124.48ZM1398.19 195.18C1404.06 190.62 1407 183.52 1407 173.9C1407 164.28 1404.03 156.81 1398.07 152C1392.12 147.19 1382.94 144.78 1370.55 144.78H1323.09V202.03H1370.55C1383.11 202.03 1392.33 199.75 1398.2 195.18H1398.19Z" fill="#F2F2F2"/>
<path d="M1615.21 212.55C1615.21 215.65 1613.95 218.26 1611.42 220.38C1608.89 222.5 1606.08 223.56 1602.98 223.56C1600.86 223.56 1598.86 222.95 1596.99 221.73C1595.11 220.5 1593.69 218.76 1592.71 216.47L1576.56 179.77H1487.01L1470.86 216.47C1469.88 218.76 1468.41 220.51 1466.45 221.73C1464.49 222.95 1462.45 223.56 1460.33 223.56C1457.06 223.56 1454.17 222.5 1451.64 220.38C1449.11 218.26 1447.85 215.65 1447.85 212.55C1447.85 211.25 1448.26 209.61 1449.08 207.66L1518.07 56.7001C1519.21 54.1001 1521.04 52.0501 1523.57 50.5901C1526.1 49.1201 1528.75 48.3901 1531.52 48.3901C1534.29 48.3901 1536.94 49.1201 1539.47 50.5901C1542 52.0601 1543.83 54.1001 1544.97 56.7001L1613.97 207.66C1614.78 209.62 1615.19 211.25 1615.19 212.55H1615.21ZM1496.06 159.71H1567.74L1531.78 78.7301L1496.06 159.71Z" fill="#F2F2F2"/>
<path d="M1667.81 213.65C1655.58 206.55 1646.19 196.36 1639.67 183.07C1633.14 169.78 1629.88 154.08 1629.88 135.97C1629.88 117.86 1633.14 102.41 1639.67 89.1199C1646.19 75.8299 1655.57 65.6299 1667.81 58.5399C1680.04 51.4399 1694.39 47.8999 1710.87 47.8999C1721.64 47.8999 1731.83 49.5799 1741.45 52.9199C1751.07 56.2599 1759.47 61.1199 1766.65 67.4799C1769.75 69.9299 1771.3 73.1899 1771.3 77.2699C1771.3 80.2099 1770.48 82.6999 1768.85 84.7299C1767.22 86.7699 1765.26 87.7899 1762.98 87.7899C1760.2 87.7899 1757.51 86.7299 1754.91 84.6099C1747.08 78.7399 1739.94 74.6199 1733.5 72.2499C1727.05 69.8899 1719.75 68.6999 1711.6 68.6999C1693.65 68.6999 1679.87 74.4899 1670.25 86.0699C1660.62 97.6599 1655.82 114.29 1655.82 135.98C1655.82 157.67 1660.63 174.56 1670.25 186.14C1679.87 197.72 1693.65 203.51 1711.6 203.51C1719.43 203.51 1726.56 202.29 1733.01 199.84C1739.45 197.39 1746.75 193.32 1754.91 187.61C1758.17 185.49 1760.86 184.43 1762.98 184.43C1765.26 184.43 1767.22 185.45 1768.85 187.49C1770.48 189.53 1771.3 192.02 1771.3 194.95C1771.3 199.03 1769.75 202.29 1766.65 204.74C1759.47 211.1 1751.07 215.96 1741.45 219.3C1731.82 222.64 1721.63 224.32 1710.87 224.32C1694.39 224.32 1680.04 220.77 1667.81 213.68V213.65Z" fill="#F2F2F2"/>
<path d="M1934 211.82C1934 214.92 1932.81 217.61 1930.45 219.9C1928.08 222.19 1925.35 223.32 1922.25 223.32C1919.15 223.32 1916.3 222.02 1913.69 219.4L1826.59 140.87V210.84C1826.59 214.75 1825.49 217.86 1823.29 220.14C1821.09 222.42 1817.95 223.56 1813.87 223.56C1810.12 223.56 1807.1 222.42 1804.82 220.14C1802.53 217.86 1801.39 214.76 1801.39 210.84V61.3501C1801.39 57.6001 1802.53 54.5401 1804.82 52.1701C1807.1 49.8101 1810.12 48.6201 1813.87 48.6201C1817.62 48.6201 1820.88 49.7601 1823.16 52.0401C1825.44 54.3301 1826.59 57.4201 1826.59 61.3401V128.38L1910.02 52.2901C1912.3 50.0101 1914.99 48.8701 1918.09 48.8701C1921.19 48.8701 1923.88 50.0101 1926.16 52.2901C1928.44 54.5801 1929.59 57.1901 1929.59 60.1201C1929.59 63.2201 1928.2 66.0801 1925.43 68.6801L1852.52 133.76L1929.83 203.24C1932.6 205.85 1933.99 208.71 1933.99 211.8L1934 211.82Z" fill="#F2F2F2"/>
<defs>
<linearGradient id="paint0_linear_183_2085" x1="5.86006e-05" y1="179.9" x2="407.59" y2="179.9" gradientUnits="userSpaceOnUse">
<stop stop-color="#E5293B"/>
<stop offset="1" stop-color="#BE1E67"/>
</linearGradient>
<linearGradient id="paint1_linear_183_2085" x1="1141.79" y1="136.1" x2="1271.95" y2="136.1" gradientUnits="userSpaceOnUse">
<stop stop-color="#E5293B"/>
<stop offset="1" stop-color="#BE1E67"/>
</linearGradient>
</defs>
</svg>
