<svg id="Calque_1" data-name="Calque 1" xmlns="http://www.w3.org/2000/svg" xmlns:xlink="http://www.w3.org/1999/xlink" viewBox="0 0 1493.44 455.41"><defs><style>.cls-1{fill:#020203;}.cls-2{fill:url(#Dégradé_sans_nom_48);}.cls-3{fill:#fff;}</style><linearGradient id="Dégradé_sans_nom_48" x1="161.56" y1="391.56" x2="616.96" y2="391.56" gradientUnits="userSpaceOnUse"><stop offset="0" stop-color="#fb1626"/><stop offset="1" stop-color="#bb0d5a"/></linearGradient></defs><path class="cls-1" d="M831.84,477.63H757.16l82.9-109.8,0,0c1.75-2.26,2.68-5.35,2.68-9.36q0-13.8-13.8-13.8H728.8q-13.8,0-13.8,13.8t13.8,13.8h74.92L720.58,482l0,0c-1.75,2.26-2.68,5.34-2.68,9.36q0,13.8,13.79,13.79H831.84q13.8,0,13.8-13.79T831.84,477.63Z" transform="translate(-161.56 -163.86)"/><path class="cls-1" d="M988.31,353.59Q971.87,343.48,949,343.47q-23.19,0-41.09,10.42a74,74,0,0,0-28,28.77Q869.72,401,869.71,425.08q0,23.78,10.72,42.13A76.16,76.16,0,0,0,910.08,496q18.93,10.42,43.3,10.42a88.72,88.72,0,0,0,28.33-5q14.82-5,24.8-12.92,5-3.81,4.7-9.1t-5.28-9.69a12.91,12.91,0,0,0-9-3.08,16.63,16.63,0,0,0-9.54,3.38A57.69,57.69,0,0,1,972,477.77a55.49,55.49,0,0,1-18.64,3.38q-16.74,0-29.65-7.34A52.91,52.91,0,0,1,897,435.36h111.53a13.46,13.46,0,0,0,9.69-3.67,12.31,12.31,0,0,0,3.81-9.25q0-23.19-8.66-40.95A66,66,0,0,0,988.31,353.59Zm-68,22.47q11.89-7.33,28.62-7.35,14.68,0,25,6.76a44.61,44.61,0,0,1,15.85,18.34A59.36,59.36,0,0,1,995,411.87H897.35a60.66,60.66,0,0,1,4.95-15.71A47.23,47.23,0,0,1,920.35,376.06Z" transform="translate(-161.56 -163.86)"/><path class="cls-1" d="M1176.34,351.83q-16-8.65-36.26-8.66a71.52,71.52,0,0,0-34.93,8.52,66.69,66.69,0,0,0-15,11.16v-3.24a14.71,14.71,0,0,0-4.11-10.86c-2.75-2.74-6.36-4.11-10.87-4.11a14.79,14.79,0,0,0-10.71,4.11,14.43,14.43,0,0,0-4.26,10.86V490.55a15.26,15.26,0,0,0,25.84,10.71,14.79,14.79,0,0,0,4.11-10.71V407.76a32.61,32.61,0,0,1,5.87-19.23,41.64,41.64,0,0,1,15.85-13.36,49.27,49.27,0,0,1,22.31-5,53.54,53.54,0,0,1,23.93,5.14A39,39,0,0,1,1174.73,391q6.15,10.56,6.16,27.3v72.22a15,15,0,1,0,29.94,0V418.33q0-24.37-9.24-41.1A62.58,62.58,0,0,0,1176.34,351.83Z" transform="translate(-161.56 -163.86)"/><path class="cls-1" d="M1278.35,344.64a14.77,14.77,0,0,0-10.71,4.11,14.43,14.43,0,0,0-4.26,10.86V490.25A15.27,15.27,0,0,0,1289.22,501a14.85,14.85,0,0,0,4.1-10.72V359.61a14.11,14.11,0,0,0-15-15Z" transform="translate(-161.56 -163.86)"/><path class="cls-1" d="M1278.35,279.76a19.57,19.57,0,1,0,13.65,5.73A18.64,18.64,0,0,0,1278.35,279.76Z" transform="translate(-161.56 -163.86)"/><path class="cls-1" d="M1413.53,414.16l53.88-48.09a13.62,13.62,0,0,0,4.69-9.39A14.63,14.63,0,0,0,1459,342.29a13,13,0,0,0-9.83,3.82l-71.34,63.67V290.33a14.39,14.39,0,1,0-28.77,0V490.84a14.39,14.39,0,1,0,28.77,0V446l14.61-13.05L1448.33,502a13.17,13.17,0,0,0,9.54,5.13,14.27,14.27,0,0,0,10.42-3.37c3.32-2.74,5.14-5.92,5.43-9.54a13.87,13.87,0,0,0-3.38-10.13Z" transform="translate(-161.56 -163.86)"/><path class="cls-1" d="M1644.28,383.39a79.65,79.65,0,0,0-28.91-29.21q-18.21-10.71-41.1-10.71T1533,354.18A79.29,79.29,0,0,0,1504,383.39q-10.73,18.5-10.72,41.69t9.84,41.54a76.09,76.09,0,0,0,26.86,29.06q17,10.72,38.46,10.72t38.45-10.72a74.78,74.78,0,0,0,18.2-16.06v10.93a15,15,0,1,0,30,0V425.08Q1655,401.89,1644.28,383.39Zm-43.3,89.4a52.95,52.95,0,0,1-53.28,0,51.87,51.87,0,0,1-18.79-19.67,57,57,0,0,1-6.9-28,57.55,57.55,0,0,1,6.9-28.33,51.87,51.87,0,0,1,18.79-19.67,52.95,52.95,0,0,1,53.28,0,51.22,51.22,0,0,1,18.5,19.67,58.58,58.58,0,0,1,6.75,28.33,58,58,0,0,1-6.75,28A51.22,51.22,0,0,1,1601,472.79Z" transform="translate(-161.56 -163.86)"/><path class="cls-2" d="M617,391.56c0,5.76-.21,11.48-.63,17.13a226.59,226.59,0,0,1-12.3,58.7c-31.24,88.48-115.6,151.88-214.77,151.88-125.76,0-227.7-102-227.7-227.71,0-5.6.21-11.16.6-16.67,0-.33.05-.67.08-1a226.67,226.67,0,0,1,11.52-56l.81-2.33c31.29-88.36,115.61-151.66,214.69-151.66C515,163.86,617,265.81,617,391.56Z" transform="translate(-161.56 -163.86)"/><path class="cls-3" d="M616.33,408.69a226.59,226.59,0,0,1-12.3,58.7L321.05,519l-6,1.1a34.72,34.72,0,0,1-6.11.56,29.07,29.07,0,0,1-5.57-.52h-.07a35.49,35.49,0,0,1-18.38-9.65,35.19,35.19,0,0,1-7.22-39.82,36.66,36.66,0,0,1,2.9-5.11l0,0,0,0,138-138L162.54,373.83l-.3.06a226.67,226.67,0,0,1,11.52-56l.81-2.33,292.68-53.4,8.64-1.57a29.13,29.13,0,0,1,5.1-.46,28.31,28.31,0,0,1,4.86.42,35.86,35.86,0,0,1,28.91,28.71,35.6,35.6,0,0,1-9.44,31.1l0,0-1.35,1.34-133,131.72Z" transform="translate(-161.56 -163.86)"/></svg>