<svg id="Calque_1" data-name="Calque 1" xmlns="http://www.w3.org/2000/svg" xmlns:xlink="http://www.w3.org/1999/xlink" viewBox="0 0 455.4 455.41"><defs><style>.cls-1{fill:url(#Dégradé_sans_nom_48);}.cls-2{fill:#fff;}</style><linearGradient id="Dégradé_sans_nom_48" x1="161.56" y1="389.71" x2="616.96" y2="389.71" gradientUnits="userSpaceOnUse"><stop offset="0" stop-color="#fb1626"/><stop offset="1" stop-color="#bb0d5a"/></linearGradient></defs><path class="cls-1" d="M617,389.7q0,8.66-.63,17.13a226.5,226.5,0,0,1-12.3,58.7C572.79,554,488.43,617.41,389.26,617.41c-125.76,0-227.7-101.95-227.7-227.71,0-5.6.21-11.16.6-16.67,0-.33.05-.67.08-1a226.5,226.5,0,0,1,11.52-56l.81-2.33C205.86,225.3,290.18,162,389.26,162,515,162,617,264,617,389.7Z" transform="translate(-161.56 -162)"/><path class="cls-2" d="M616.33,406.83a226.5,226.5,0,0,1-12.3,58.7l-283,51.57-6,1.09a33.82,33.82,0,0,1-6.11.57,29.89,29.89,0,0,1-5.57-.52h-.07a35.58,35.58,0,0,1-18.38-9.66,35.18,35.18,0,0,1-7.22-39.82,37.24,37.24,0,0,1,2.9-5.11l0,0,0,0,138-138L162.54,372l-.3,0a226.5,226.5,0,0,1,11.52-56l.81-2.33,292.68-53.41,8.64-1.56a28.75,28.75,0,0,1,10-.05,35.87,35.87,0,0,1,28.91,28.71,35.64,35.64,0,0,1-9.44,31.11l0,0-1.35,1.35-133,131.72Z" transform="translate(-161.56 -162)"/></svg>