<svg width="45" height="38"  viewBox="0 0 24 27" xmlns="http://www.w3.org/2000/svg">
<path fill="currentColor"  d="M12 26.75L8.25 23H2.625C2.125 23 1.6875 22.8073 1.3125 22.4219C0.9375 22.0365 0.75 21.6042 0.75 21.125V2.375C0.75 1.875 0.9375 1.4375 1.3125 1.0625C1.6875 0.6875 2.125 0.5 2.625 0.5H21.375C21.8542 0.5 22.2865 0.6875 22.6719 1.0625C23.0573 1.4375 23.25 1.875 23.25 2.375V21.125C23.25 21.6042 23.0573 22.0365 22.6719 22.4219C22.2865 22.8073 21.8542 23 21.375 23H15.75L12 26.75ZM12.6562 14.0625C12.6562 13.4167 12.7604 12.8906 12.9688 12.4844C13.1771 12.0781 13.5417 11.6146 14.0625 11.0938C14.75 10.4062 15.2292 9.79688 15.5 9.26562C15.7708 8.73438 15.9062 8.17708 15.9062 7.59375C15.9062 6.48958 15.5521 5.61458 14.8438 4.96875C14.1354 4.32292 13.1771 4 11.9688 4C10.9062 4 9.99479 4.25521 9.23438 4.76562C8.47396 5.27604 7.91667 5.97917 7.5625 6.875L9.21875 7.5625C9.51042 6.97917 9.88542 6.53646 10.3438 6.23438C10.8021 5.93229 11.3438 5.78125 11.9688 5.78125C12.6354 5.78125 13.1615 5.94792 13.5469 6.28125C13.9323 6.61458 14.125 7.07292 14.125 7.65625C14.125 8.07292 14.0104 8.47396 13.7812 8.85938C13.5521 9.24479 13.1667 9.69792 12.625 10.2188C11.8542 10.9479 11.3698 11.5729 11.1719 12.0938C10.974 12.6146 10.875 13.2708 10.875 14.0625H12.6562ZM11.9062 18.6875C12.2396 18.6875 12.5208 18.5729 12.75 18.3438C12.9792 18.1146 13.0938 17.8333 13.0938 17.5C13.0938 17.1667 12.9792 16.8854 12.75 16.6562C12.5208 16.4271 12.2396 16.3125 11.9062 16.3125C11.5729 16.3125 11.2917 16.4271 11.0625 16.6562C10.8333 16.8854 10.7188 17.1667 10.7188 17.5C10.7188 17.8333 10.8333 18.1146 11.0625 18.3438C11.2917 18.5729 11.5729 18.6875 11.9062 18.6875Z"/>
</svg>
