<svg width="94" height="98" viewBox="0 0 94 98" fill="none" xmlns="http://www.w3.org/2000/svg">
  <defs>
    <linearGradient
      id="icon-brand-gradient"
      x1="31.9133"
      y1="54.0166"
      x2="59.1845"
      y2="54.0166"
      gradientUnits="userSpaceOnUse"
    >
      <stop stop-color="#E5293B" />
      <stop offset="1" stop-color="#BE1E67" />
    </linearGradient>
  </defs>

  <path
    d="M17.5 98C17.5 98 16.3814 97.9985 16 97.8989C14.5 97.5015 13.5512 96.1122 13.5512 94.9359V77.3441H11.4479C11.4479 77.3441 11.4341 77.3467 11.4295 77.3467C8.40145 77.3467 5.55332 76.1697 3.40627 74.0294C1.25689 71.8865 0.0692059 69.0327 0.0645936 65.9945L1.35148e-05 26.2663C-0.00459886 23.2305 1.17153 20.3723 3.31628 18.2224C5.45873 16.0724 8.31147 14.8844 11.3487 14.8798L82.5501 14.7644H82.5682C88.8274 14.7644 93.9241 19.8533 93.9358 26.1141L94 65.8424C94.0052 68.878 92.8285 71.7363 90.684 73.8863C88.5415 76.0383 85.3383 77.337 82.6512 77.337H31.4467C30.3374 77.337 29 76.5 28.5 75C27.8054 72.9161 28.5916 71.5289 29.325 70.6938L50.7679 48.345L32.3014 48.3357C30.7401 48.3357 29.5 47 29.5 44.5C29.5 42 30.7424 40.6817 32.3036 40.6817L60.0223 40.6932C61.1338 40.6932 62.5 41.5 63 42.5C64.1929 44.8859 63 46.2644 62.144 47.3899L41.7218 69.7156L80.6376 69.5751C82.1688 69.5725 83.6009 68.9749 84.6783 67.8951C85.7551 66.8133 86.3476 65.3786 86.3457 63.8514L86.2809 28.1233C86.2763 24.9768 83.7143 22.4185 80.5682 22.4185H76.5L13.358 22.5338C11.8313 22.5361 10.3992 23.1336 9.3222 24.2132C8.24518 25.2951 7.65249 26.7299 7.6548 28.2571L7.71937 63.9854C7.72168 65.5126 8.31898 66.9447 9.3983 68.0246C10.4776 69.0992 11.9097 69.6923 13.4318 69.6923C13.4318 69.6923 14.3771 69.6923 15.3771 69.6923C16.3771 69.6923 17.3762 69.6858 17.3762 69.6858H17.3786C18.1281 69.6858 18.9675 69.7335 19.498 70.2644C20.0284 70.7946 20.2037 71.764 20.2037 72.5136V87.4455L25.0383 80.8161C26.0692 79.6443 28.8565 79.531 30.028 80.5623C31.1996 81.5936 31.3125 83.3811 30.2817 84.5529L21 96.8043C20.502 97.3023 19.5 98 18 98H17.5Z"
    fill="url(#icon-brand-gradient)"
  />
</svg>
