<?xml version="1.0" encoding="utf-8"?><svg version="1.1" id="Layer_1" xmlns="http://www.w3.org/2000/svg" xmlns:xlink="http://www.w3.org/1999/xlink" x="0px" y="0px" viewBox="0 0 122.39 122.88" style="enable-background:new 0 0 122.39 122.88" xml:space="preserve"><style type="text/css">.st0{fill:#393939;} .st1{fill-rule:evenodd;clip-rule:evenodd;fill:#35A872;}</style><g><path class="st0" d="M68.99,23.46c10.66,0,19.96,0.09,30.61,0.09c1.22,0,2.38,0.11,3.51,0.32c1.12,0.21,2.2,0.52,3.2,0.95 c1.01,0.43,1.99,0.96,2.94,1.6c0.93,0.63,1.82,1.37,2.66,2.2c0.84,0.84,1.58,1.73,2.2,2.66c0.64,0.94,1.18,1.93,1.6,2.94 c0.42,1.01,0.74,2.08,0.95,3.2c0.21,1.13,0.32,2.3,0.32,3.51v35.27c0,1.22-0.11,2.38-0.32,3.51c-0.21,1.13-0.53,2.2-0.95,3.2 c-0.43,1.02-0.96,2-1.6,2.94c-0.63,0.93-1.37,1.82-2.2,2.66l-0.01,0.01c-0.87,0.85-1.77,1.59-2.71,2.21 c-0.93,0.63-1.92,1.16-2.93,1.59c-1.01,0.42-2.07,0.74-3.19,0.95c-1.11,0.21-2.28,0.32-3.48,0.32H86.29c-0.42,0-0.83,0.1-1.21,0.28 c-0.35,0.18-0.67,0.43-0.91,0.76l-0.02,0.02c-1.05,1.39-2.15,2.74-3.31,4.05c-1.16,1.29-2.36,2.55-3.66,3.74 c-1.26,1.17-2.58,2.29-3.95,3.37c-1.37,1.08-2.79,2.09-4.24,3.05c-1.39,0.92-2.86,1.79-4.39,2.62c-1.51,0.82-3.06,1.58-4.63,2.28 c-0.18,0.08-0.37,0.07-0.54-0.03c-0.29-0.17-0.4-0.54-0.23-0.84c0.28-0.5,0.55-0.99,0.83-1.52c0.26-0.49,0.5-0.98,0.73-1.51l0,0 c0.45-1,0.88-2.02,1.28-3.08c0.42-1.06,0.81-2.12,1.19-3.22c0.36-1.02,0.69-2.08,1.01-3.15c0.32-1.07,0.62-2.15,0.91-3.23 c0.08-0.32,0.16-0.64,0.16-0.97c0-0.72-0.29-1.39-0.77-1.87l-0.03-0.03c-0.49-0.49-1.17-0.8-1.9-0.8H47.13 c-1.22,0-2.37-0.11-3.48-0.32c-1.1-0.21-2.15-0.53-3.15-0.94l-0.02-0.01c-0.99-0.39-1.96-0.92-2.88-1.54 c-0.95-0.64-1.88-1.41-2.76-2.27l-0.01-0.01c-0.84-0.84-1.58-1.72-2.21-2.66c-0.64-0.94-1.17-1.92-1.6-2.94 c-0.42-1.01-0.74-2.08-0.95-3.2c-0.21-1.13-0.32-2.3-0.32-3.51v-7.17c0-3.6-4.66-3.63-5.44-1.06v8.18c0,1.54,0.15,3.04,0.42,4.48 c0.28,1.47,0.7,2.89,1.26,4.27c0.54,1.33,1.24,2.62,2.07,3.85c0.84,1.23,1.81,2.4,2.92,3.51c1.1,1.11,2.28,2.08,3.51,2.92 c1.22,0.83,2.5,1.52,3.83,2.06l0.02,0.01c1.37,0.56,2.8,0.97,4.26,1.26c1.44,0.27,2.94,0.42,4.48,0.42h11.12 c0.07,0,0.15,0.01,0.21,0.03c0.32,0.11,0.5,0.45,0.4,0.77l-0.01,0.02c-0.21,0.68-0.43,1.36-0.67,2.09l-0.01,0.04 c-0.34,0.98-0.72,1.99-1.12,2.99c-0.38,0.94-0.77,1.88-1.18,2.77c-0.01,0.05-0.02,0.09-0.04,0.14c-0.4,0.91-0.86,1.8-1.39,2.69 c-0.53,0.89-1.12,1.75-1.76,2.61c-0.66,0.86-1.4,1.72-2.22,2.6l-0.03,0.04c-0.83,0.88-1.72,1.74-2.69,2.58 c-0.55,0.5-0.86,1.18-0.9,1.86c-0.04,0.68,0.19,1.38,0.68,1.94c0.35,0.39,0.78,0.65,1.25,0.79c0.47,0.14,0.97,0.16,1.45,0.02 c2.02-0.54,4.01-1.14,5.94-1.8c1.93-0.66,3.8-1.38,5.59-2.16c1.81-0.78,3.58-1.63,5.29-2.56c1.7-0.91,3.36-1.91,4.95-2.96l0,0 c1.59-1.03,3.12-2.13,4.61-3.3c1.49-1.17,2.92-2.39,4.29-3.67l0.03-0.03c1.16-1.09,2.28-2.24,3.37-3.43 c1.1-1.21,2.16-2.45,3.15-3.72c0.11-0.17,0.3-0.28,0.52-0.28h11.7c1.57,0,3.07-0.15,4.52-0.42c1.46-0.28,2.86-0.7,4.2-1.25 l0.02-0.01c1.35-0.57,2.64-1.27,3.87-2.1c1.23-0.83,2.39-1.78,3.5-2.89c1.11-1.11,2.08-2.29,2.92-3.51 c0.83-1.23,1.53-2.52,2.07-3.85c0.55-1.35,0.97-2.76,1.26-4.23c0.27-1.44,0.42-2.95,0.42-4.52V40.84c0-1.57-0.15-3.08-0.42-4.52 c-0.28-1.47-0.7-2.88-1.26-4.22c-0.55-1.33-1.25-2.63-2.07-3.85c-0.84-1.24-1.81-2.41-2.91-3.51c-1.11-1.11-2.28-2.08-3.51-2.92 c-1.22-0.83-2.5-1.52-3.83-2.06l-0.02-0.01c-1.38-0.55-2.8-0.97-4.27-1.25c-1.44-0.27-2.94-0.42-4.48-0.42 c-11.07,0-20.79-0.05-31.87-0.05C65.11,18.79,64.94,23.46,68.99,23.46L68.99,23.46L68.99,23.46z M53.22,77.8 c-1.41,0.02-2.56-1.11-2.58-2.52c-0.02-1.41,1.11-2.56,2.52-2.58l27.03-0.41l5.18-0.33c1.41-0.09,2.62,0.98,2.71,2.38 c0.09,1.41-0.98,2.62-2.38,2.71l-5.18,0.33C80.52,77.38,55.5,77.76,53.22,77.8L53.22,77.8L53.22,77.8z M61.32,61.78 c-1.41,0-2.56-1.15-2.56-2.56c0-1.41,1.15-2.56,2.56-2.56h36.51c1.41,0,2.56,1.15,2.56,2.56c0,1.41-1.15,2.56-2.56,2.56H61.32 L61.32,61.78L61.32,61.78z M72.68,46.5c-1.41,0-2.56-1.15-2.56-2.56c0-1.41,1.15-2.56,2.56-2.56h25.14c1.41,0,2.56,1.15,2.56,2.56 c0,1.41-1.15,2.56-2.56,2.56H72.68L72.68,46.5L72.68,46.5z"/><path class="st1" d="M26.92,3.29c0.29-1.5,1.07-2.46,2.13-2.95c0.86-0.39,1.85-0.44,2.9-0.16c0.9,0.24,1.85,0.72,2.77,1.42 c2.47,1.87,4.78,5.42,5.07,9.84c0.09,1.36,0.06,2.81-0.06,4.36c-0.08,1.02-0.22,2.09-0.39,3.21h10.49L49.85,19 c1.71,0.06,3.35,0.48,4.75,1.21c1.21,0.63,2.22,1.49,2.92,2.57c0.72,1.11,1.12,2.42,1.06,3.92c-0.05,1.11-0.34,2.32-0.95,3.62 c0.35,1.45,0.51,3.01,0.28,4.38c-0.19,1.16-0.64,2.19-1.45,2.96c0.05,1.92-0.21,3.53-0.73,4.92c-0.53,1.43-1.32,2.62-2.35,3.67 c-0.09,0.92-0.24,1.8-0.47,2.62c-0.29,1.03-0.71,1.98-1.31,2.81l0,0c-1.79,2.52-3.22,2.47-5.48,2.37 c-0.31-0.01-0.66-0.03-1.18-0.03H24.43c-1.85,0-3.3-0.26-4.62-0.93c-1.32-0.66-2.43-1.66-3.63-3.16l-0.31-0.87V25.12l1.04-0.28 c2.65-0.71,4.73-2.98,6.35-5.68c1.66-2.79,2.83-6.05,3.63-8.68V3.55L26.92,3.29L26.92,3.29L26.92,3.29L26.92,3.29z M2.1,22.63h9.28 c1.16,0,2.1,0.95,2.1,2.1v27.96c0,1.16-0.95,2.1-2.1,2.1H2.1c-1.16,0-2.1-0.95-2.1-2.1V24.73C0,23.57,0.94,22.63,2.1,22.63 L2.1,22.63L2.1,22.63L2.1,22.63z"/></g></svg>