<?xml version="1.0" encoding="UTF-8" standalone="no"?>
<!-- Created with Inkscape (http://www.inkscape.org/) -->

<svg
   xmlns:dc="http://purl.org/dc/elements/1.1/"
   xmlns:cc="http://creativecommons.org/ns#"
   xmlns:rdf="http://www.w3.org/1999/02/22-rdf-syntax-ns#"
   xmlns:svg="http://www.w3.org/2000/svg"
   xmlns="http://www.w3.org/2000/svg"
   xmlns:sodipodi="http://sodipodi.sourceforge.net/DTD/sodipodi-0.dtd"
   xmlns:inkscape="http://www.inkscape.org/namespaces/inkscape"
   width="93mm"
   height="49mm"
   viewBox="0 0 93 49"
   version="1.1"
   id="svg4732"
   inkscape:version="0.92.4 (5da689c313, 2019-01-14)"
   sodipodi:docname="logo-feedZback-final.svg">
  <defs
     id="defs4726">
    <inkscape:perspective
       sodipodi:type="inkscape:persp3d"
       inkscape:vp_x="220.36011 : 144.72023 : 1"
       inkscape:vp_y="0 : 999.99995 : 0"
       inkscape:vp_z="210 : 148.49999 : 1"
       inkscape:persp3d-origin="105 : 98.999995 : 1"
       id="perspective4589" />
  </defs>
  <sodipodi:namedview
     id="base"
     pagecolor="#ffffff"
     bordercolor="#666666"
     borderopacity="1.0"
     inkscape:pageopacity="0.0"
     inkscape:pageshadow="2"
     inkscape:zoom="1.4"
     inkscape:cx="-101.02607"
     inkscape:cy="134.10869"
     inkscape:document-units="mm"
     inkscape:current-layer="layer1"
     showgrid="false"
     inkscape:window-width="1920"
     inkscape:window-height="991"
     inkscape:window-x="-9"
     inkscape:window-y="-9"
     inkscape:window-maximized="1" />
  <metadata
     id="metadata4729">
    <rdf:RDF>
      <cc:Work
         rdf:about="">
        <dc:format>image/svg+xml</dc:format>
        <dc:type
           rdf:resource="http://purl.org/dc/dcmitype/StillImage" />
        <dc:title></dc:title>
      </cc:Work>
    </rdf:RDF>
  </metadata>
  <g
     inkscape:label="Calque 1"
     inkscape:groupmode="layer"
     id="layer1"
     transform="translate(0,-248)">
    <g
       id="g956"
       transform="translate(-24.195298,345.60445)"
       style="opacity:0.85">
      <path
         style="fill:#a02c5a;fill-opacity:1;stroke-width:0.08378942"
         d="m 36.917147,-48.688792 c -0.757401,-0.22686 -1.302881,-0.878 -1.163923,-1.38941 0.100437,-0.36993 0.588511,-0.77025 2.157233,-1.76961 3.908029,-2.48958 5.200607,-3.58632 6.627481,-5.62343 0.612561,-0.87452 1.257657,-2.00151 1.257493,-2.19689 -6.4e-5,-0.10151 -0.150154,-0.18933 -0.54296,-0.31786 -0.821055,-0.26866 -2.805465,-1.0402 -3.792959,-1.47467 -5.319104,-2.34026 -9.057331,-5.20193 -10.796863,-8.26512 -1.199399,-2.1121 -1.486479,-4.36043 -0.836526,-6.55133 1.288646,-4.343752 6.982456,-8.712052 15.033184,-11.533522 4.553254,-1.59574 10.569389,-2.92583 16.249565,-3.59267 2.324256,-0.27288 5.231741,-0.51476 7.251221,-0.60333 1.978002,-0.0865 7.444397,-0.0866 9.434267,-2.3e-4 13.07993,0.56952 25.00593,3.62446 31.95815,8.18635 2.48854,1.63289 3.90794,2.91307 5.17279,4.66538 1.23551,1.711642 1.71727,3.150662 1.72365,5.148482 0.006,2.29892 -0.63272,3.94101 -2.34336,6.01187 -1.43737,1.74001 -3.03567,3.01364 -5.82485,4.64151 -3.83751,2.23978 -8.18114,3.85914 -14.04903,5.23771 -5.8801,1.38143 -11.49807,2.05418 -18.80348,2.25164 -2.71687,0.0734 -4.440056,0.0515 -8.811152,-0.11312 l -0.878192,-0.0332 -0.987949,0.49062 c -4.827886,2.39764 -10.864691,4.3624 -17.344131,5.64489 -4.781572,0.94643 -9.676264,1.48945 -10.689659,1.18589 z"
         id="path4640"
         inkscape:connector-curvature="0" />
      <path
         inkscape:connector-curvature="0"
         id="path5201"
         d="m 31.62548,-53.980459 c -0.757401,-0.22686 -1.302881,-0.878 -1.163923,-1.38941 0.100437,-0.36993 0.588511,-0.77025 2.157233,-1.76961 3.908029,-2.48958 5.200607,-3.58632 6.627481,-5.62343 0.612561,-0.87452 1.257657,-2.00151 1.257493,-2.19689 -6.4e-5,-0.10151 -0.150154,-0.18933 -0.54296,-0.31786 -0.821055,-0.26866 -2.805465,-1.0402 -3.792959,-1.47467 -5.319104,-2.34026 -9.057331,-5.20193 -10.796863,-8.26512 -1.199399,-2.1121 -1.486479,-4.36043 -0.836526,-6.55133 1.288646,-4.343752 6.982456,-8.712052 15.033184,-11.533522 4.553254,-1.59574 10.569389,-2.92583 16.249565,-3.59267 2.324256,-0.27288 5.231741,-0.51476 7.251221,-0.60333 1.978002,-0.0865 7.444397,-0.0866 9.434267,-2.3e-4 13.07993,0.56952 25.00593,3.62446 31.958147,8.18635 2.48854,1.63289 3.90794,2.91307 5.17279,4.66538 1.23551,1.711642 1.71727,3.150662 1.72365,5.148482 0.006,2.29892 -0.63272,3.94101 -2.34336,6.01187 -1.43737,1.74001 -3.03567,3.01364 -5.82485,4.64151 -3.837507,2.23978 -8.181137,3.85914 -14.049027,5.23771 -5.8801,1.38143 -11.49807,2.05418 -18.80348,2.25164 -2.71687,0.0734 -4.440056,0.0515 -8.811152,-0.11312 l -0.878192,-0.0332 -0.987949,0.49062 c -4.827886,2.39764 -10.864691,4.3624 -17.344131,5.64489 -4.781572,0.94643 -9.676264,1.48945 -10.689659,1.18589 z"
         style="fill:#d52150;fill-opacity:1;stroke-width:0.08378942" />
      <path
         inkscape:connector-curvature="0"
         id="path5203"
         d="m 65.516579,-71.777279 c -2.528295,-0.40687 -4.743487,-2.01656 -5.836976,-4.2415 -0.264009,-0.53719 -0.547229,-1.23356 -0.62938,-1.54749 -0.160311,-0.61265 -0.31306,-2.52095 -0.20179,-2.52095 0.037,0 1.95407,-0.34394 4.260221,-0.76431 2.30615,-0.42036 4.216709,-0.74059 4.245689,-0.71162 0.029,0.029 -1.004099,1.11494 -2.295721,2.41324 l -2.348389,2.36056 v 0.49289 c 0,0.42397 0.0432,0.53971 0.309169,0.82775 0.20525,0.2223 0.421081,0.35061 0.64213,0.38174 0.201642,0.0284 2.246387,-0.30651 5.184591,-0.84918 2.73775,-0.50564 4.88964,-0.86047 4.93885,-0.81438 0.20953,0.19622 -0.72795,1.74926 -1.59432,2.6412 -0.97768,1.00653 -2.29754,1.78861 -3.62992,2.15089 -0.56699,0.15417 -2.497858,0.26907 -3.044154,0.18116 z m 0.713467,-5.71842 c 0,-0.0397 0.987447,-1.05637 2.194327,-2.25934 1.20688,-1.20297 2.25569,-2.30282 2.33069,-2.4441 0.075,-0.14129 0.13636,-0.43453 0.13636,-0.65164 0,-0.32074 -0.0596,-0.45436 -0.31783,-0.7126 -0.17482,-0.17481 -0.42642,-0.34508 -0.55912,-0.37839 -0.1434,-0.036 -2.26755,0.30909 -5.23573,0.85056 -2.746941,0.50112 -5.085249,0.91113 -5.19625,0.91113 -0.26775,0 -0.256259,-0.18409 0.0492,-0.78799 0.581951,-1.15065 1.6095,-2.326362 2.63385,-3.013631 0.592169,-0.397311 1.65844,-0.879401 2.44244,-1.104311 0.852956,-0.24469 2.92432,-0.24692 3.80521,-0.004 2.74312,0.75613 4.82361,2.807162 5.61936,5.539792 0.20588,0.70699 0.36,2.5432 0.22069,2.6293 -0.0702,0.0434 -7.908228,1.49745 -8.071849,1.49745 -0.0282,0 -0.0513,-0.0325 -0.0513,-0.0721 z"
         style="fill:#ffffff;fill-opacity:1;stroke-width:0.09513017" />
      <g
         id="text5207"
         style="font-style:normal;font-weight:normal;font-size:10.58333302px;line-height:1.25;font-family:sans-serif;letter-spacing:0px;word-spacing:0px;fill:#ffffff;fill-opacity:1;stroke:none;stroke-width:0.26458332"
         aria-label="FEED">
        <path
           inkscape:connector-curvature="0"
           id="path5222"
           style="font-style:normal;font-variant:normal;font-weight:bold;font-stretch:normal;font-family:Nunito;-inkscape-font-specification:'Nunito Bold';fill:#ffffff;stroke-width:0.26458332"
           d="m 33.246012,-75.693191 q -0.306917,0 -0.497417,-0.1905 -0.179917,-0.1905 -0.179917,-0.497417 v -6.191249 q 0,-0.306917 0.169334,-0.47625 0.179916,-0.169334 0.486833,-0.169334 h 3.71475 q 0.645583,0 0.645583,0.550334 0,0.53975 -0.645583,0.53975 h -3.026833 v 2.031999 h 2.815166 q 0.645584,0 0.645584,0.550334 0,0.53975 -0.645584,0.53975 h -2.815166 v 2.624666 q 0,0.306917 -0.179917,0.497417 -0.179917,0.1905 -0.486833,0.1905 z" />
        <path
           inkscape:connector-curvature="0"
           id="path5224"
           style="font-style:normal;font-variant:normal;font-weight:bold;font-stretch:normal;font-family:Nunito;-inkscape-font-specification:'Nunito Bold';fill:#ffffff;stroke-width:0.26458332"
           d="m 39.219311,-75.756691 q -0.306917,0 -0.486833,-0.169333 -0.169334,-0.169334 -0.169334,-0.47625 v -6.170083 q 0,-0.306917 0.169334,-0.47625 0.179916,-0.169334 0.486833,-0.169334 h 3.820583 q 0.306917,0 0.47625,0.137584 0.169333,0.137583 0.169333,0.391583 0,0.264583 -0.169333,0.41275 -0.169333,0.137583 -0.47625,0.137583 h -3.14325 v 2.053167 h 2.931584 q 0.306916,0 0.476249,0.137583 0.169334,0.137583 0.169334,0.402167 0,0.254 -0.169334,0.391583 -0.169333,0.137583 -0.476249,0.137583 h -2.931584 v 2.180167 h 3.14325 q 0.306917,0 0.47625,0.148167 0.169333,0.137583 0.169333,0.402166 0,0.254 -0.169333,0.391584 -0.169333,0.137583 -0.47625,0.137583 z" />
        <path
           inkscape:connector-curvature="0"
           id="path5226"
           style="font-style:normal;font-variant:normal;font-weight:bold;font-stretch:normal;font-family:Nunito;-inkscape-font-specification:'Nunito Bold';fill:#ffffff;stroke-width:0.26458332"
           d="m 45.461824,-75.756691 q -0.306917,0 -0.486834,-0.169333 -0.169333,-0.169334 -0.169333,-0.47625 v -6.170083 q 0,-0.306917 0.169333,-0.47625 0.179917,-0.169334 0.486834,-0.169334 h 3.820583 q 0.306917,0 0.47625,0.137584 0.169333,0.137583 0.169333,0.391583 0,0.264583 -0.169333,0.41275 -0.169333,0.137583 -0.47625,0.137583 h -3.14325 v 2.053167 h 2.931583 q 0.306917,0 0.47625,0.137583 0.169334,0.137583 0.169334,0.402167 0,0.254 -0.169334,0.391583 -0.169333,0.137583 -0.47625,0.137583 h -2.931583 v 2.180167 h 3.14325 q 0.306917,0 0.47625,0.148167 0.169333,0.137583 0.169333,0.402166 0,0.254 -0.169333,0.391584 -0.169333,0.137583 -0.47625,0.137583 z" />
        <path
           inkscape:connector-curvature="0"
           id="path5228"
           style="font-style:normal;font-variant:normal;font-weight:bold;font-stretch:normal;font-family:Nunito;-inkscape-font-specification:'Nunito Bold';fill:#ffffff;stroke-width:0.26458332"
           d="m 51.704337,-75.756691 q -0.306916,0 -0.486833,-0.169333 -0.169333,-0.169334 -0.169333,-0.47625 v -6.170083 q 0,-0.306917 0.169333,-0.47625 0.179917,-0.169334 0.486833,-0.169334 h 2.0955 q 1.830917,0 2.836333,0.98425 1.016,0.973667 1.016,2.741083 0,1.778 -1.016,2.76225 -1.005416,0.973667 -2.836333,0.973667 z m 2.010834,-1.11125 q 2.57175,0 2.57175,-2.624667 0,-2.614083 -2.57175,-2.614083 h -1.30175 v 5.23875 z" />
      </g>
      <g
         id="text5211"
         style="font-style:normal;font-weight:normal;font-size:10.58333302px;line-height:1.25;font-family:sans-serif;letter-spacing:0px;word-spacing:0px;fill:#ffffff;fill-opacity:1;stroke:none;stroke-width:0.26458332"
         aria-label="BACK">
        <path
           inkscape:connector-curvature="0"
           id="path5213"
           style="font-style:normal;font-variant:normal;font-weight:bold;font-stretch:normal;font-family:Nunito;-inkscape-font-specification:'Nunito Bold';fill:#ffffff;stroke-width:0.26458332"
           d="m 80.40741,-79.534393 q 0.645584,0.179916 0.994834,0.656166 0.359833,0.47625 0.359833,1.164167 0,0.9525 -0.687917,1.49225 -0.677333,0.53975 -1.87325,0.53975 h -2.730499 q -0.306917,0 -0.486834,-0.169334 -0.169333,-0.169333 -0.169333,-0.47625 v -6.170083 q 0,-0.306916 0.169333,-0.47625 0.179917,-0.169333 0.486834,-0.169333 h 2.624666 q 1.164167,0 1.820333,0.518583 0.66675,0.508 0.66675,1.42875 0,0.592667 -0.3175,1.026584 -0.306916,0.433916 -0.85725,0.635 z m -3.259666,-0.465667 h 1.725083 q 1.407583,0 1.407583,-1.04775 0,-0.529167 -0.34925,-0.783167 -0.34925,-0.254 -1.058333,-0.254 h -1.725083 z m 1.905,3.259666 q 0.740833,0 1.0795,-0.264583 0.338666,-0.264583 0.338666,-0.8255 0,-0.560916 -0.34925,-0.836083 -0.338666,-0.275167 -1.068916,-0.275167 h -1.905 v 2.201333 z" />
        <path
           inkscape:connector-curvature="0"
           id="path5215"
           style="font-style:normal;font-variant:normal;font-weight:bold;font-stretch:normal;font-family:Nunito;-inkscape-font-specification:'Nunito Bold';fill:#ffffff;stroke-width:0.26458332"
           d="m 89.770353,-76.496977 q 0.0635,0.137583 0.0635,0.275167 0,0.243416 -0.201083,0.41275 -0.1905,0.169333 -0.4445,0.169333 -0.169334,0 -0.3175,-0.08467 -0.148167,-0.09525 -0.232834,-0.28575 l -0.635,-1.418166 h -3.725333 l -0.635,1.418166 q -0.08467,0.1905 -0.232833,0.28575 -0.148167,0.08467 -0.328083,0.08467 -0.243417,0 -0.4445,-0.169333 -0.201084,-0.169334 -0.201084,-0.41275 0,-0.137584 0.0635,-0.275167 l 2.921,-6.275916 q 0.09525,-0.211667 0.28575,-0.3175 0.201084,-0.116417 0.423334,-0.116417 0.22225,0 0.412749,0.116417 0.201084,0.105833 0.296334,0.3175 z m -5.027083,-1.989666 h 2.794 l -1.397,-3.14325 z" />
        <path
           inkscape:connector-curvature="0"
           id="path5217"
           style="font-style:normal;font-variant:normal;font-weight:bold;font-stretch:normal;font-family:Nunito;-inkscape-font-specification:'Nunito Bold';fill:#ffffff;stroke-width:0.26458332"
           d="m 93.968795,-75.58681 q -1.0795,0 -1.894417,-0.465667 -0.804333,-0.465667 -1.23825,-1.3335 -0.433917,-0.867833 -0.433917,-2.032 0,-1.164166 0.433917,-2.021416 0.433917,-0.867834 1.23825,-1.3335 0.814917,-0.465667 1.894417,-0.465667 0.6985,0 1.312333,0.211667 0.613833,0.201083 1.090083,0.592666 0.137583,0.105834 0.1905,0.22225 0.05292,0.116417 0.05292,0.28575 0,0.232834 -0.127,0.391584 -0.127,0.15875 -0.306917,0.15875 -0.211666,0 -0.433916,-0.148167 -0.455084,-0.338667 -0.846667,-0.465667 -0.391583,-0.137583 -0.867833,-0.137583 -1.100667,0 -1.672167,0.687917 -0.560917,0.687916 -0.560917,2.021416 0,1.344083 0.560917,2.032 0.5715,0.687917 1.672167,0.687917 0.455083,0 0.836083,-0.137584 0.391583,-0.137583 0.878417,-0.465666 0.105833,-0.0635 0.211666,-0.105834 0.105834,-0.04233 0.22225,-0.04233 0.179917,0 0.306917,0.15875 0.127,0.15875 0.127,0.391583 0,0.15875 -0.05292,0.28575 -0.05292,0.116417 -0.1905,0.22225 -0.47625,0.391584 -1.090083,0.60325 -0.613833,0.201084 -1.312333,0.201084 z" />
        <path
           inkscape:connector-curvature="0"
           id="path5219"
           style="font-style:normal;font-variant:normal;font-weight:bold;font-stretch:normal;font-family:Nunito;-inkscape-font-specification:'Nunito Bold';fill:#ffffff;stroke-width:0.26458332"
           d="m 103.59682,-76.708644 q 0.21166,0.201084 0.21166,0.455084 0,0.243416 -0.1905,0.433916 -0.17991,0.179917 -0.43391,0.179917 -0.26459,0 -0.48684,-0.22225 l -3.524248,-3.302 v 2.8575 q 0,0.306917 -0.1905,0.497417 -0.179916,0.1905 -0.497416,0.1905 -0.306917,0 -0.497417,-0.1905 -0.179917,-0.1905 -0.179917,-0.497417 v -6.212416 q 0,-0.306917 0.179917,-0.486834 0.1905,-0.1905 0.497417,-0.1905 0.3175,0 0.497416,0.1905 0.1905,0.179917 0.1905,0.486834 v 2.719916 l 3.407838,-3.196166 q 0.1905,-0.1905 0.43391,-0.1905 0.24342,0 0.42334,0.1905 0.1905,0.179916 0.1905,0.423333 0,0.243417 -0.21167,0.4445 l -2.84692,2.6035 z" />
      </g>
    </g>
  </g>
</svg>
