<?xml version="1.0" encoding="UTF-8" standalone="no"?>
<!-- Created with Inkscape (http://www.inkscape.org/) -->

<svg
   xmlns:dc="http://purl.org/dc/elements/1.1/"
   xmlns:cc="http://creativecommons.org/ns#"
   xmlns:rdf="http://www.w3.org/1999/02/22-rdf-syntax-ns#"
   xmlns:svg="http://www.w3.org/2000/svg"
   xmlns="http://www.w3.org/2000/svg"
   xmlns:xlink="http://www.w3.org/1999/xlink"
   xmlns:sodipodi="http://sodipodi.sourceforge.net/DTD/sodipodi-0.dtd"
   xmlns:inkscape="http://www.inkscape.org/namespaces/inkscape"
   width="32"
   height="32"
   viewBox="0 0 8.4666665 8.4666669"
   version="1.1"
   id="svg858"
   inkscape:version="0.92.4 (5da689c313, 2019-01-14)"
   sodipodi:docname="favicon-feedZback.svg">
  <defs
     id="defs852">
    <linearGradient
       inkscape:collect="always"
       xlink:href="#linearGradient848"
       id="linearGradient850"
       x1="-17.802525"
       y1="358.27109"
       x2="4.7365904"
       y2="348.04849"
       gradientUnits="userSpaceOnUse" />
    <linearGradient
       inkscape:collect="always"
       id="linearGradient848">
      <stop
         style="stop-color:#ed2338;stop-opacity:1"
         offset="0"
         id="stop844" />
      <stop
         style="stop-color:#cc1e59;stop-opacity:1"
         offset="1"
         id="stop846" />
    </linearGradient>
  </defs>
  <sodipodi:namedview
     id="base"
     pagecolor="#ffffff"
     bordercolor="#666666"
     borderopacity="1.0"
     inkscape:pageopacity="0.0"
     inkscape:pageshadow="2"
     inkscape:zoom="22.4"
     inkscape:cx="12.103901"
     inkscape:cy="24.971866"
     inkscape:document-units="mm"
     inkscape:current-layer="layer1"
     showgrid="false"
     units="px"
     inkscape:window-width="1920"
     inkscape:window-height="991"
     inkscape:window-x="-9"
     inkscape:window-y="-9"
     inkscape:window-maximized="1" />
  <metadata
     id="metadata855">
    <rdf:RDF>
      <cc:Work
         rdf:about="">
        <dc:format>image/svg+xml</dc:format>
        <dc:type
           rdf:resource="http://purl.org/dc/dcmitype/StillImage" />
        <dc:title></dc:title>
      </cc:Work>
    </rdf:RDF>
  </metadata>
  <g
     inkscape:label="Calque 1"
     inkscape:groupmode="layer"
     id="layer1"
     transform="translate(0,-288.53332)">
    <g
       transform="matrix(0.326904,0,0,0.326904,6.5923633,177.50427)"
       id="g1417">
      <path
         style="fill:url(#linearGradient850);fill-opacity:1;stroke-width:0.03271104"
         d="m -16.466177,365.48746 c -0.19379,-0.13513 -0.33338,-0.52298 -0.29782,-0.82761 0.0258,-0.22034 0.15058,-0.4588 0.55197,-1.05406 0.99995,-1.48293 1.33068,-2.1362 1.69577,-3.34961 0.15674,-0.5209 0.3218,-1.1922 0.321761,-1.30858 -1.1e-5,-0.0605 -0.0384,-0.11277 -0.138931,-0.18933 -0.210079,-0.16003 -0.71783,-0.6196 -0.97051,-0.87839 -1.36099,-1.39398 -2.3175,-3.09853 -2.76259,-4.92312 -0.30688,-1.25808 -0.38033,-2.5973 -0.21403,-3.90231 0.32972,-2.58736 1.7866,-5.18934 3.84654,-6.86995 1.16504,-0.95051 2.704391,-1.74277 4.157771,-2.13998 0.5947194,-0.16254 1.3386393,-0.30662 1.8553695,-0.35937 0.5061102,-0.0515 1.9047802,-0.0516 2.4139402,-1.4e-4 3.34674,0.33923 6.39826,2.15891 8.17712,4.87621 0.63674,0.97263 0.99991,1.73517 1.32357,2.77893 0.31612,1.01955 0.43939,1.8767 0.44101,3.0667 0.002,1.36936 -0.16189,2.34747 -0.59957,3.58098 -0.36779,1.03644 -0.77675,1.79507 -1.49042,2.76472 -0.98191,1.33412 -2.0933,2.2987 -3.59472,3.11984 -1.50454,0.82285 -2.94201,1.22358 -4.81125,1.34119 -0.69515,0.0437 -1.13605,0.0307 -2.2545002,-0.0674 l -0.2246899,-0.0198 -0.2528002,0.29224 c -1.2352994,1.42816 -2.7799404,2.59847 -4.4378404,3.36238 -1.22346,0.56375 -2.47585,0.8872 -2.73515,0.70638 z"
         id="path4616"
         inkscape:connector-curvature="0" />
      <path
         style="fill:#ffffff;fill-opacity:1;stroke-width:0.09513018"
         d="m -8.2975663,358.12647 c -2.5282997,-0.40687 -4.7434907,-2.01656 -5.8369807,-4.2415 -0.26401,-0.53719 -0.54723,-1.23356 -0.62938,-1.54749 -0.16031,-0.61265 -0.31306,-2.52095 -0.20179,-2.52095 0.037,0 1.95407,-0.34394 4.26022,-0.76431 2.3061505,-0.42036 4.2167107,-0.74059 4.2456907,-0.71162 0.029,0.029 -1.0041,1.11494 -2.2957202,2.41324 l -2.3483905,2.36056 v 0.49289 c 0,0.42397 0.0432,0.53971 0.30917,0.82775 0.205251,0.2223 0.42108,0.35061 0.642131,0.38174 0.2016393,0.0284 2.2463897,-0.30651 5.1845897,-0.84918 2.73775,-0.50564 4.88964,-0.86047 4.93885,-0.81438 0.20953,0.19622 -0.72795,1.74926 -1.59432,2.6412 -0.97768,1.00653 -2.29754,1.78861 -3.62992,2.15089 -0.56699,0.15417 -2.49786,0.26907 -3.04415,0.18116 z m 0.71346,-5.71842 c 0,-0.0397 0.98745,-1.05637 2.19433,-2.25934 1.20688,-1.20297 2.25569,-2.30282 2.33069,-2.4441 0.075,-0.14129 0.13636,-0.43453 0.13636,-0.65164 0,-0.32074 -0.0596,-0.45436 -0.31783,-0.7126 -0.17482,-0.17481 -0.42642,-0.34508 -0.55912,-0.37839 -0.1434,-0.036 -2.26755,0.30909 -5.2357302,0.85056 -2.7469405,0.50112 -5.0852505,0.91113 -5.1962505,0.91113 -0.26775,0 -0.256259,-0.18409 0.0492,-0.78799 0.58195,-1.15065 1.6095,-2.32636 2.63385,-3.01363 0.59217,-0.39731 1.6584404,-0.8794 2.4424403,-1.10431 0.8529604,-0.24469 2.9243204,-0.24692 3.8052104,-0.004 2.74312,0.75613 4.82361,2.80716 5.61936,5.53979 0.20588,0.70699 0.36,2.5432 0.22069,2.6293 -0.0702,0.0434 -7.90823,1.49745 -8.07185,1.49745 -0.0282,0 -0.0513,-0.0325 -0.0513,-0.0721 z"
         id="path4618"
         inkscape:connector-curvature="0" />
    </g>
  </g>
</svg>
