<svg width="479" height="98" viewBox="0 0 479 98" fill="none" xmlns="http://www.w3.org/2000/svg">
<path d="M17.5 98C17.5 98 16.3814 97.9985 16 97.8989C14.5 97.5015 13.5512 96.1122 13.5512 94.9359V77.3441H11.4479C11.4479 77.3441 11.4341 77.3467 11.4295 77.3467C8.40145 77.3467 5.55332 76.1697 3.40627 74.0294C1.25689 71.8865 0.0692059 69.0327 0.0645936 65.9945L1.35148e-05 26.2663C-0.00459886 23.2305 1.17153 20.3723 3.31628 18.2224C5.45873 16.0724 8.31147 14.8844 11.3487 14.8798L82.5501 14.7644H82.5682C88.8274 14.7644 93.9241 19.8533 93.9358 26.1141L94 65.8424C94.0052 68.878 92.8285 71.7363 90.684 73.8863C88.5415 76.0383 85.3383 77.337 82.6512 77.337H31.4467C30.3374 77.337 29 76.5 28.5 75C27.8054 72.9161 28.5916 71.5289 29.325 70.6938L50.7679 48.345L32.3014 48.3357C30.7401 48.3357 29.5 47 29.5 44.5C29.5 42 30.7424 40.6817 32.3036 40.6817L60.0223 40.6932C61.1338 40.6932 62.5 41.5 63 42.5C64.1929 44.8859 63 46.2644 62.144 47.3899L41.7218 69.7156L80.6376 69.5751C82.1688 69.5725 83.6009 68.9749 84.6783 67.8951C85.7551 66.8133 86.3476 65.3786 86.3457 63.8514L86.2809 28.1233C86.2763 24.9768 83.7143 22.4185 80.5682 22.4185H76.5L13.358 22.5338C11.8313 22.5361 10.3992 23.1336 9.3222 24.2132C8.24518 25.2951 7.65249 26.7299 7.6548 28.2571L7.71937 63.9854C7.72168 65.5126 8.31898 66.9447 9.3983 68.0246C10.4776 69.0992 11.9097 69.6923 13.4318 69.6923C13.4318 69.6923 14.3771 69.6923 15.3771 69.6923C16.3771 69.6923 17.3762 69.6858 17.3762 69.6858H17.3786C18.1281 69.6858 18.9675 69.7335 19.498 70.2644C20.0284 70.7946 20.2037 71.764 20.2037 72.5136V87.4455L25.0383 80.8161C26.0692 79.6443 28.8565 79.531 30.028 80.5623C31.1996 81.5936 31.3125 83.3811 30.2817 84.5529L21 96.8043C20.502 97.3023 19.5 98 18 98H17.5Z" fill="url(#paint0_linear_84_52)"/>
<path d="M134.864 73.504C133.616 73.504 132.632 73.168 131.912 72.496C131.24 71.824 130.904 70.84 130.904 69.544V26.272C130.904 24.976 131.24 23.992 131.912 23.32C132.632 22.6 133.64 22.24 134.936 22.24H160.568C161.624 22.24 162.392 22.504 162.872 23.032C163.4 23.512 163.664 24.232 163.664 25.192C163.664 26.2 163.4 26.968 162.872 27.496C162.392 28.024 161.624 28.288 160.568 28.288H138.392V44.488H159.128C160.088 44.488 160.832 44.752 161.36 45.28C161.936 45.76 162.224 46.48 162.224 47.44C162.224 48.448 161.936 49.216 161.36 49.744C160.832 50.272 160.088 50.536 159.128 50.536H138.392V69.544C138.392 72.184 137.216 73.504 134.864 73.504ZM185.131 73.648C181.291 73.648 177.979 72.928 175.195 71.488C172.459 70 170.323 67.912 168.787 65.224C167.299 62.488 166.555 59.248 166.555 55.504C166.555 51.856 167.299 48.664 168.787 45.928C170.275 43.192 172.315 41.056 174.907 39.52C177.499 37.984 180.451 37.216 183.763 37.216C186.211 37.216 188.395 37.624 190.315 38.44C192.235 39.208 193.867 40.36 195.211 41.896C196.603 43.384 197.635 45.208 198.307 47.368C199.027 49.528 199.387 51.952 199.387 54.64C199.387 55.456 199.147 56.08 198.667 56.512C198.187 56.896 197.467 57.088 196.507 57.088H172.315V52.624H194.491L193.267 53.632C193.267 51.232 192.907 49.192 192.187 47.512C191.515 45.832 190.483 44.56 189.091 43.696C187.747 42.784 186.067 42.328 184.051 42.328C181.795 42.328 179.875 42.856 178.291 43.912C176.755 44.968 175.579 46.432 174.763 48.304C173.947 50.176 173.539 52.36 173.539 54.856V55.288C173.539 59.512 174.523 62.704 176.491 64.864C178.507 66.976 181.411 68.032 185.203 68.032C186.643 68.032 188.155 67.84 189.739 67.456C191.371 67.072 192.907 66.424 194.347 65.512C195.163 65.032 195.883 64.816 196.507 64.864C197.179 64.912 197.707 65.128 198.091 65.512C198.523 65.896 198.787 66.376 198.883 66.952C198.979 67.528 198.883 68.128 198.595 68.752C198.307 69.328 197.803 69.856 197.083 70.336C195.451 71.44 193.555 72.28 191.395 72.856C189.235 73.384 187.147 73.648 185.131 73.648ZM223.803 73.648C219.963 73.648 216.651 72.928 213.867 71.488C211.131 70 208.995 67.912 207.459 65.224C205.971 62.488 205.227 59.248 205.227 55.504C205.227 51.856 205.971 48.664 207.459 45.928C208.947 43.192 210.987 41.056 213.579 39.52C216.171 37.984 219.123 37.216 222.435 37.216C224.883 37.216 227.067 37.624 228.987 38.44C230.907 39.208 232.539 40.36 233.883 41.896C235.275 43.384 236.307 45.208 236.979 47.368C237.699 49.528 238.059 51.952 238.059 54.64C238.059 55.456 237.819 56.08 237.339 56.512C236.859 56.896 236.139 57.088 235.179 57.088H210.987V52.624H233.163L231.939 53.632C231.939 51.232 231.579 49.192 230.859 47.512C230.187 45.832 229.155 44.56 227.763 43.696C226.419 42.784 224.739 42.328 222.723 42.328C220.467 42.328 218.547 42.856 216.963 43.912C215.427 44.968 214.251 46.432 213.435 48.304C212.619 50.176 212.211 52.36 212.211 54.856V55.288C212.211 59.512 213.195 62.704 215.163 64.864C217.179 66.976 220.083 68.032 223.875 68.032C225.315 68.032 226.827 67.84 228.411 67.456C230.043 67.072 231.579 66.424 233.019 65.512C233.835 65.032 234.555 64.816 235.179 64.864C235.851 64.912 236.379 65.128 236.763 65.512C237.195 65.896 237.459 66.376 237.555 66.952C237.651 67.528 237.555 68.128 237.267 68.752C236.979 69.328 236.475 69.856 235.755 70.336C234.123 71.44 232.227 72.28 230.067 72.856C227.907 73.384 225.819 73.648 223.803 73.648ZM259.379 73.648C256.307 73.648 253.595 72.928 251.243 71.488C248.939 70 247.139 67.888 245.843 65.152C244.547 62.368 243.899 59.128 243.899 55.432C243.899 51.64 244.547 48.4 245.843 45.712C247.139 43.024 248.939 40.936 251.243 39.448C253.595 37.96 256.307 37.216 259.379 37.216C262.451 37.216 265.091 37.984 267.299 39.52C269.555 41.008 271.067 43.024 271.835 45.568H271.043V25.408C271.043 24.208 271.355 23.296 271.979 22.672C272.603 22.048 273.491 21.736 274.643 21.736C275.795 21.736 276.683 22.048 277.307 22.672C277.979 23.296 278.315 24.208 278.315 25.408V69.832C278.315 70.984 278.003 71.896 277.379 72.568C276.755 73.192 275.867 73.504 274.715 73.504C273.563 73.504 272.675 73.192 272.051 72.568C271.427 71.896 271.115 70.984 271.115 69.832V63.496L271.907 65.08C271.139 67.672 269.627 69.76 267.371 71.344C265.163 72.88 262.499 73.648 259.379 73.648ZM261.251 68.032C263.219 68.032 264.947 67.552 266.435 66.592C267.923 65.632 269.075 64.216 269.891 62.344C270.755 60.472 271.187 58.168 271.187 55.432C271.187 51.304 270.275 48.184 268.451 46.072C266.627 43.96 264.227 42.904 261.251 42.904C259.235 42.904 257.483 43.384 255.995 44.344C254.507 45.256 253.331 46.648 252.467 48.52C251.651 50.392 251.243 52.696 251.243 55.432C251.243 59.512 252.155 62.632 253.979 64.792C255.803 66.952 258.227 68.032 261.251 68.032ZM350.281 73.648C347.209 73.648 344.545 72.88 342.289 71.344C340.033 69.76 338.521 67.672 337.753 65.08L338.545 63.784V69.832C338.545 70.984 338.233 71.896 337.609 72.568C336.985 73.192 336.121 73.504 335.017 73.504C333.865 73.504 332.977 73.192 332.353 72.568C331.729 71.896 331.417 70.984 331.417 69.832V25.408C331.417 24.208 331.729 23.296 332.353 22.672C332.977 22.048 333.865 21.736 335.017 21.736C336.169 21.736 337.057 22.048 337.681 22.672C338.353 23.296 338.689 24.208 338.689 25.408V45.568H337.825C338.593 43.024 340.105 41.008 342.361 39.52C344.617 37.984 347.257 37.216 350.281 37.216C353.449 37.216 356.185 37.96 358.489 39.448C360.793 40.936 362.569 43.024 363.817 45.712C365.113 48.4 365.761 51.64 365.761 55.432C365.761 59.128 365.113 62.368 363.817 65.152C362.569 67.888 360.769 70 358.417 71.488C356.113 72.928 353.401 73.648 350.281 73.648ZM348.481 68.032C350.497 68.032 352.249 67.552 353.737 66.592C355.225 65.632 356.377 64.216 357.193 62.344C358.009 60.472 358.417 58.168 358.417 55.432C358.417 51.304 357.505 48.184 355.681 46.072C353.905 43.96 351.505 42.904 348.481 42.904C346.513 42.904 344.761 43.384 343.225 44.344C341.737 45.256 340.585 46.648 339.769 48.52C338.953 50.392 338.545 52.696 338.545 55.432C338.545 59.512 339.457 62.632 341.281 64.792C343.105 66.952 345.505 68.032 348.481 68.032ZM385.188 73.648C382.74 73.648 380.532 73.168 378.564 72.208C376.644 71.248 375.132 69.952 374.028 68.32C372.924 66.688 372.372 64.84 372.372 62.776C372.372 60.184 373.02 58.144 374.316 56.656C375.66 55.12 377.844 54.04 380.868 53.416C383.94 52.744 388.068 52.408 393.252 52.408H396.636V56.872H393.324C389.868 56.872 387.132 57.04 385.116 57.376C383.1 57.712 381.66 58.288 380.796 59.104C379.98 59.872 379.572 60.952 379.572 62.344C379.572 64.168 380.196 65.656 381.444 66.808C382.692 67.912 384.42 68.464 386.628 68.464C388.404 68.464 389.964 68.056 391.308 67.24C392.652 66.376 393.708 65.224 394.476 63.784C395.292 62.344 395.7 60.688 395.7 58.816V50.536C395.7 47.8 395.124 45.832 393.972 44.632C392.82 43.432 390.924 42.832 388.284 42.832C386.748 42.832 385.14 43.024 383.46 43.408C381.828 43.792 380.124 44.44 378.348 45.352C377.532 45.736 376.836 45.856 376.26 45.712C375.684 45.568 375.228 45.256 374.892 44.776C374.556 44.248 374.364 43.696 374.316 43.12C374.316 42.496 374.46 41.896 374.748 41.32C375.084 40.744 375.636 40.312 376.404 40.024C378.516 39.016 380.604 38.296 382.668 37.864C384.732 37.432 386.676 37.216 388.5 37.216C391.716 37.216 394.356 37.72 396.42 38.728C398.532 39.736 400.092 41.272 401.1 43.336C402.108 45.4 402.612 48.064 402.612 51.328V69.832C402.612 70.984 402.324 71.896 401.748 72.568C401.172 73.192 400.332 73.504 399.228 73.504C398.172 73.504 397.332 73.192 396.708 72.568C396.084 71.896 395.772 70.984 395.772 69.832V65.152H396.42C396.036 66.928 395.316 68.464 394.26 69.76C393.252 71.008 391.98 71.968 390.444 72.64C388.908 73.312 387.156 73.648 385.188 73.648ZM428.108 73.648C424.508 73.648 421.388 72.904 418.748 71.416C416.156 69.88 414.14 67.744 412.7 65.008C411.26 62.224 410.54 58.96 410.54 55.216C410.54 52.432 410.948 49.936 411.764 47.728C412.58 45.472 413.732 43.576 415.22 42.04C416.756 40.504 418.604 39.328 420.764 38.512C422.972 37.648 425.42 37.216 428.108 37.216C429.788 37.216 431.54 37.48 433.364 38.008C435.236 38.488 436.964 39.304 438.548 40.456C439.172 40.84 439.556 41.32 439.7 41.896C439.892 42.424 439.916 42.976 439.772 43.552C439.676 44.128 439.412 44.632 438.98 45.064C438.596 45.448 438.116 45.688 437.54 45.784C436.964 45.832 436.34 45.664 435.668 45.28C434.516 44.464 433.34 43.888 432.14 43.552C430.94 43.168 429.788 42.976 428.684 42.976C426.956 42.976 425.42 43.264 424.076 43.84C422.78 44.368 421.676 45.16 420.764 46.216C419.852 47.224 419.156 48.496 418.676 50.032C418.244 51.568 418.028 53.32 418.028 55.288C418.028 59.224 418.94 62.32 420.764 64.576C422.636 66.784 425.276 67.888 428.684 67.888C429.788 67.888 430.94 67.72 432.14 67.384C433.34 67.048 434.516 66.472 435.668 65.656C436.34 65.272 436.964 65.128 437.54 65.224C438.116 65.32 438.572 65.584 438.908 66.016C439.292 66.4 439.532 66.88 439.628 67.456C439.772 67.984 439.748 68.536 439.556 69.112C439.364 69.688 438.956 70.168 438.332 70.552C436.796 71.656 435.116 72.448 433.292 72.928C431.516 73.408 429.788 73.648 428.108 73.648ZM449.837 73.504C448.685 73.504 447.797 73.192 447.173 72.568C446.549 71.896 446.237 70.984 446.237 69.832V25.408C446.237 24.208 446.549 23.296 447.173 22.672C447.797 22.048 448.685 21.736 449.837 21.736C450.989 21.736 451.877 22.048 452.501 22.672C453.173 23.296 453.509 24.208 453.509 25.408V53.2H453.653L467.117 39.808C467.885 39.04 468.581 38.44 469.205 38.008C469.829 37.576 470.645 37.36 471.653 37.36C472.661 37.36 473.429 37.624 473.957 38.152C474.485 38.68 474.749 39.328 474.749 40.096C474.749 40.816 474.389 41.56 473.669 42.328L459.413 56.44V53.056L474.965 68.536C475.733 69.304 476.093 70.072 476.045 70.84C475.997 71.608 475.685 72.256 475.109 72.784C474.533 73.264 473.813 73.504 472.949 73.504C471.845 73.504 470.957 73.288 470.285 72.856C469.661 72.424 468.917 71.776 468.053 70.912L453.653 56.944H453.509V69.832C453.509 72.28 452.285 73.504 449.837 73.504Z" fill="#121212"/>
<path d="M290.254 73C289.294 73 288.502 72.808 287.878 72.424C287.302 72.04 286.894 71.512 286.654 70.84C286.462 70.12 286.462 69.352 286.654 68.536C286.894 67.672 287.35 66.784 288.022 65.872L316.822 25.984V28.504H289.678C288.574 28.504 287.734 28.24 287.158 27.712C286.582 27.136 286.294 26.344 286.294 25.336C286.294 24.328 286.582 23.56 287.158 23.032C287.734 22.504 288.574 22.24 289.678 22.24H320.278C321.238 22.24 322.03 22.432 322.654 22.816C323.278 23.2 323.686 23.728 323.878 24.4C324.118 25.072 324.118 25.84 323.878 26.704C323.686 27.568 323.254 28.456 322.582 29.368L293.71 69.256V66.736H321.934C323.038 66.736 323.878 67 324.454 67.528C325.03 68.056 325.318 68.824 325.318 69.832C325.318 70.84 325.03 71.632 324.454 72.208C323.878 72.736 323.038 73 321.934 73H290.254Z" fill="url(#paint1_linear_84_52)"/>
<defs>
<linearGradient id="paint0_linear_84_52" x1="31.9133" y1="54.0166" x2="59.1845" y2="54.0166" gradientUnits="userSpaceOnUse">
<stop stop-color="#E5293B"/>
<stop offset="1" stop-color="#BE1E67"/>
</linearGradient>
<linearGradient id="paint1_linear_84_52" x1="245.184" y1="46.2148" x2="347.886" y2="46.2148" gradientUnits="userSpaceOnUse">
<stop stop-color="#E5293B"/>
<stop offset="1" stop-color="#BE1E67"/>
</linearGradient>
</defs>
</svg>
