<svg width="440" height="98" viewBox="0 0 440 98" fill="none" xmlns="http://www.w3.org/2000/svg">
<path d="M17.5 98C17.5 98 16.3814 97.9985 16 97.8989C14.5 97.5015 13.5512 96.1122 13.5512 94.9359V77.3441H11.4479C11.4479 77.3441 11.4341 77.3467 11.4295 77.3467C8.40145 77.3467 5.55332 76.1697 3.40627 74.0294C1.25689 71.8865 0.0692059 69.0327 0.0645936 65.9945L1.35148e-05 26.2663C-0.00459886 23.2305 1.17153 20.3723 3.31628 18.2224C5.45873 16.0724 8.31147 14.8844 11.3487 14.8798L82.5501 14.7644H82.5682C88.8274 14.7644 93.9241 19.8533 93.9358 26.1141L94 65.8424C94.0052 68.878 92.8285 71.7363 90.684 73.8863C88.5415 76.0383 85.3383 77.337 82.6512 77.337H31.4467C30.3374 77.337 29 76.5 28.5 75C27.8054 72.9161 28.5916 71.5289 29.325 70.6938L50.7679 48.345L32.3014 48.3357C30.7401 48.3357 29.5 47 29.5 44.5C29.5 42 30.7424 40.6817 32.3036 40.6817L60.0223 40.6932C61.1338 40.6932 62.5 41.5 63 42.5C64.1929 44.8859 63 46.2644 62.144 47.3899L41.7218 69.7156L80.6376 69.5751C82.1688 69.5725 83.6009 68.9749 84.6783 67.8951C85.7551 66.8133 86.3476 65.3786 86.3457 63.8514L86.2809 28.1233C86.2763 24.9768 83.7143 22.4185 80.5682 22.4185H76.5L13.358 22.5338C11.8313 22.5361 10.3992 23.1336 9.3222 24.2132C8.24518 25.2951 7.65249 26.7299 7.6548 28.2571L7.71937 63.9854C7.72168 65.5126 8.31898 66.9447 9.3983 68.0246C10.4776 69.0992 11.9097 69.6923 13.4318 69.6923C13.4318 69.6923 14.3771 69.6923 15.3771 69.6923C16.3771 69.6923 17.3762 69.6858 17.3762 69.6858H17.3786C18.1281 69.6858 18.9675 69.7335 19.498 70.2644C20.0284 70.7946 20.2037 71.764 20.2037 72.5136V87.4455L25.0383 80.8161C26.0692 79.6443 28.8565 79.531 30.028 80.5623C31.1996 81.5936 31.3125 83.3811 30.2817 84.5529L21 96.8043C20.502 97.3023 19.5 98 18 98H17.5Z" fill="url(#paint0_linear_84_45)"/>
<path d="M120.872 73.504C119.72 73.504 118.808 73.192 118.136 72.568C117.512 71.896 117.2 70.984 117.2 69.832V43.48H113.168C112.256 43.48 111.536 43.24 111.008 42.76C110.48 42.232 110.216 41.536 110.216 40.672C110.216 39.76 110.48 39.064 111.008 38.584C111.536 38.104 112.256 37.864 113.168 37.864H119.288L117.2 39.808V37.216C117.2 32.464 118.376 28.888 120.728 26.488C123.08 24.04 126.512 22.6 131.024 22.168L133.256 22.024C134.072 21.928 134.72 22.048 135.2 22.384C135.68 22.72 135.992 23.152 136.136 23.68C136.28 24.208 136.28 24.76 136.136 25.336C136.04 25.864 135.8 26.344 135.416 26.776C135.032 27.208 134.552 27.448 133.976 27.496L132.608 27.568C129.776 27.808 127.712 28.624 126.416 30.016C125.12 31.36 124.472 33.424 124.472 36.208V39.016L123.464 37.864H131.456C132.464 37.864 133.208 38.104 133.688 38.584C134.216 39.064 134.48 39.76 134.48 40.672C134.48 41.536 134.216 42.232 133.688 42.76C133.208 43.24 132.464 43.48 131.456 43.48H124.472V69.832C124.472 72.28 123.272 73.504 120.872 73.504ZM155.577 73.648C151.737 73.648 148.425 72.928 145.641 71.488C142.905 70 140.769 67.912 139.233 65.224C137.745 62.488 137.001 59.248 137.001 55.504C137.001 51.856 137.745 48.664 139.233 45.928C140.721 43.192 142.761 41.056 145.353 39.52C147.945 37.984 150.897 37.216 154.209 37.216C156.657 37.216 158.841 37.624 160.761 38.44C162.681 39.208 164.313 40.36 165.657 41.896C167.049 43.384 168.081 45.208 168.753 47.368C169.473 49.528 169.833 51.952 169.833 54.64C169.833 55.456 169.593 56.08 169.113 56.512C168.633 56.896 167.913 57.088 166.953 57.088H142.761V52.624H164.937L163.713 53.632C163.713 51.232 163.353 49.192 162.633 47.512C161.961 45.832 160.929 44.56 159.537 43.696C158.193 42.784 156.513 42.328 154.497 42.328C152.241 42.328 150.321 42.856 148.737 43.912C147.201 44.968 146.025 46.432 145.209 48.304C144.393 50.176 143.985 52.36 143.985 54.856V55.288C143.985 59.512 144.969 62.704 146.937 64.864C148.953 66.976 151.857 68.032 155.649 68.032C157.089 68.032 158.601 67.84 160.185 67.456C161.817 67.072 163.353 66.424 164.793 65.512C165.609 65.032 166.329 64.816 166.953 64.864C167.625 64.912 168.153 65.128 168.537 65.512C168.969 65.896 169.233 66.376 169.329 66.952C169.425 67.528 169.329 68.128 169.041 68.752C168.753 69.328 168.249 69.856 167.529 70.336C165.897 71.44 164.001 72.28 161.841 72.856C159.681 73.384 157.593 73.648 155.577 73.648ZM194.248 73.648C190.408 73.648 187.096 72.928 184.312 71.488C181.576 70 179.44 67.912 177.904 65.224C176.416 62.488 175.672 59.248 175.672 55.504C175.672 51.856 176.416 48.664 177.904 45.928C179.392 43.192 181.432 41.056 184.024 39.52C186.616 37.984 189.568 37.216 192.88 37.216C195.328 37.216 197.512 37.624 199.432 38.44C201.352 39.208 202.984 40.36 204.328 41.896C205.72 43.384 206.752 45.208 207.424 47.368C208.144 49.528 208.504 51.952 208.504 54.64C208.504 55.456 208.264 56.08 207.784 56.512C207.304 56.896 206.584 57.088 205.624 57.088H181.432V52.624H203.608L202.384 53.632C202.384 51.232 202.024 49.192 201.304 47.512C200.632 45.832 199.6 44.56 198.208 43.696C196.864 42.784 195.184 42.328 193.168 42.328C190.912 42.328 188.992 42.856 187.408 43.912C185.872 44.968 184.696 46.432 183.88 48.304C183.064 50.176 182.656 52.36 182.656 54.856V55.288C182.656 59.512 183.64 62.704 185.608 64.864C187.624 66.976 190.528 68.032 194.32 68.032C195.76 68.032 197.272 67.84 198.856 67.456C200.488 67.072 202.024 66.424 203.464 65.512C204.28 65.032 205 64.816 205.624 64.864C206.296 64.912 206.824 65.128 207.208 65.512C207.64 65.896 207.904 66.376 208 66.952C208.096 67.528 208 68.128 207.712 68.752C207.424 69.328 206.92 69.856 206.2 70.336C204.568 71.44 202.672 72.28 200.512 72.856C198.352 73.384 196.264 73.648 194.248 73.648ZM229.824 73.648C226.752 73.648 224.04 72.928 221.688 71.488C219.384 70 217.584 67.888 216.288 65.152C214.992 62.368 214.344 59.128 214.344 55.432C214.344 51.64 214.992 48.4 216.288 45.712C217.584 43.024 219.384 40.936 221.688 39.448C224.04 37.96 226.752 37.216 229.824 37.216C232.896 37.216 235.536 37.984 237.744 39.52C240 41.008 241.512 43.024 242.28 45.568H241.488V25.408C241.488 24.208 241.8 23.296 242.424 22.672C243.048 22.048 243.936 21.736 245.088 21.736C246.24 21.736 247.128 22.048 247.752 22.672C248.424 23.296 248.76 24.208 248.76 25.408V69.832C248.76 70.984 248.448 71.896 247.824 72.568C247.2 73.192 246.312 73.504 245.16 73.504C244.008 73.504 243.12 73.192 242.496 72.568C241.872 71.896 241.56 70.984 241.56 69.832V63.496L242.352 65.08C241.584 67.672 240.072 69.76 237.816 71.344C235.608 72.88 232.944 73.648 229.824 73.648ZM231.696 68.032C233.664 68.032 235.392 67.552 236.88 66.592C238.368 65.632 239.52 64.216 240.336 62.344C241.2 60.472 241.632 58.168 241.632 55.432C241.632 51.304 240.72 48.184 238.896 46.072C237.072 43.96 234.672 42.904 231.696 42.904C229.68 42.904 227.928 43.384 226.44 44.344C224.952 45.256 223.776 46.648 222.912 48.52C222.096 50.392 221.688 52.696 221.688 55.432C221.688 59.512 222.6 62.632 224.424 64.792C226.248 66.952 228.672 68.032 231.696 68.032ZM311.515 73.648C308.443 73.648 305.779 72.88 303.523 71.344C301.267 69.76 299.755 67.672 298.987 65.08L299.779 63.784V69.832C299.779 70.984 299.467 71.896 298.843 72.568C298.219 73.192 297.355 73.504 296.251 73.504C295.099 73.504 294.211 73.192 293.587 72.568C292.963 71.896 292.651 70.984 292.651 69.832V25.408C292.651 24.208 292.963 23.296 293.587 22.672C294.211 22.048 295.099 21.736 296.251 21.736C297.403 21.736 298.291 22.048 298.915 22.672C299.587 23.296 299.923 24.208 299.923 25.408V45.568H299.059C299.827 43.024 301.339 41.008 303.595 39.52C305.851 37.984 308.491 37.216 311.515 37.216C314.683 37.216 317.419 37.96 319.723 39.448C322.027 40.936 323.803 43.024 325.051 45.712C326.347 48.4 326.995 51.64 326.995 55.432C326.995 59.128 326.347 62.368 325.051 65.152C323.803 67.888 322.003 70 319.651 71.488C317.347 72.928 314.635 73.648 311.515 73.648ZM309.715 68.032C311.731 68.032 313.483 67.552 314.971 66.592C316.459 65.632 317.611 64.216 318.427 62.344C319.243 60.472 319.651 58.168 319.651 55.432C319.651 51.304 318.739 48.184 316.915 46.072C315.139 43.96 312.739 42.904 309.715 42.904C307.747 42.904 305.995 43.384 304.459 44.344C302.971 45.256 301.819 46.648 301.003 48.52C300.187 50.392 299.779 52.696 299.779 55.432C299.779 59.512 300.691 62.632 302.515 64.792C304.339 66.952 306.739 68.032 309.715 68.032ZM346.422 73.648C343.974 73.648 341.766 73.168 339.798 72.208C337.878 71.248 336.366 69.952 335.262 68.32C334.158 66.688 333.606 64.84 333.606 62.776C333.606 60.184 334.254 58.144 335.55 56.656C336.894 55.12 339.078 54.04 342.102 53.416C345.174 52.744 349.302 52.408 354.486 52.408H357.87V56.872H354.558C351.102 56.872 348.366 57.04 346.35 57.376C344.334 57.712 342.894 58.288 342.03 59.104C341.214 59.872 340.806 60.952 340.806 62.344C340.806 64.168 341.43 65.656 342.678 66.808C343.926 67.912 345.654 68.464 347.862 68.464C349.638 68.464 351.198 68.056 352.542 67.24C353.886 66.376 354.942 65.224 355.71 63.784C356.526 62.344 356.934 60.688 356.934 58.816V50.536C356.934 47.8 356.358 45.832 355.206 44.632C354.054 43.432 352.158 42.832 349.518 42.832C347.982 42.832 346.374 43.024 344.694 43.408C343.062 43.792 341.358 44.44 339.582 45.352C338.766 45.736 338.07 45.856 337.494 45.712C336.918 45.568 336.462 45.256 336.126 44.776C335.79 44.248 335.598 43.696 335.55 43.12C335.55 42.496 335.694 41.896 335.982 41.32C336.318 40.744 336.87 40.312 337.638 40.024C339.75 39.016 341.838 38.296 343.902 37.864C345.966 37.432 347.91 37.216 349.734 37.216C352.95 37.216 355.59 37.72 357.654 38.728C359.766 39.736 361.326 41.272 362.334 43.336C363.342 45.4 363.846 48.064 363.846 51.328V69.832C363.846 70.984 363.558 71.896 362.982 72.568C362.406 73.192 361.566 73.504 360.462 73.504C359.406 73.504 358.566 73.192 357.942 72.568C357.318 71.896 357.006 70.984 357.006 69.832V65.152H357.654C357.27 66.928 356.55 68.464 355.494 69.76C354.486 71.008 353.214 71.968 351.678 72.64C350.142 73.312 348.39 73.648 346.422 73.648ZM389.342 73.648C385.742 73.648 382.622 72.904 379.982 71.416C377.39 69.88 375.374 67.744 373.934 65.008C372.494 62.224 371.774 58.96 371.774 55.216C371.774 52.432 372.182 49.936 372.998 47.728C373.814 45.472 374.966 43.576 376.454 42.04C377.99 40.504 379.838 39.328 381.998 38.512C384.206 37.648 386.654 37.216 389.342 37.216C391.022 37.216 392.774 37.48 394.598 38.008C396.47 38.488 398.198 39.304 399.782 40.456C400.406 40.84 400.79 41.32 400.934 41.896C401.126 42.424 401.15 42.976 401.006 43.552C400.91 44.128 400.646 44.632 400.214 45.064C399.83 45.448 399.35 45.688 398.774 45.784C398.198 45.832 397.574 45.664 396.902 45.28C395.75 44.464 394.574 43.888 393.374 43.552C392.174 43.168 391.022 42.976 389.918 42.976C388.19 42.976 386.654 43.264 385.31 43.84C384.014 44.368 382.91 45.16 381.998 46.216C381.086 47.224 380.39 48.496 379.91 50.032C379.478 51.568 379.262 53.32 379.262 55.288C379.262 59.224 380.174 62.32 381.998 64.576C383.87 66.784 386.51 67.888 389.918 67.888C391.022 67.888 392.174 67.72 393.374 67.384C394.574 67.048 395.75 66.472 396.902 65.656C397.574 65.272 398.198 65.128 398.774 65.224C399.35 65.32 399.806 65.584 400.142 66.016C400.526 66.4 400.766 66.88 400.862 67.456C401.006 67.984 400.982 68.536 400.79 69.112C400.598 69.688 400.19 70.168 399.566 70.552C398.03 71.656 396.35 72.448 394.526 72.928C392.75 73.408 391.022 73.648 389.342 73.648ZM411.071 73.504C409.919 73.504 409.031 73.192 408.407 72.568C407.783 71.896 407.471 70.984 407.471 69.832V25.408C407.471 24.208 407.783 23.296 408.407 22.672C409.031 22.048 409.919 21.736 411.071 21.736C412.223 21.736 413.111 22.048 413.735 22.672C414.407 23.296 414.743 24.208 414.743 25.408V53.2H414.887L428.351 39.808C429.119 39.04 429.815 38.44 430.439 38.008C431.063 37.576 431.879 37.36 432.887 37.36C433.895 37.36 434.663 37.624 435.191 38.152C435.719 38.68 435.983 39.328 435.983 40.096C435.983 40.816 435.623 41.56 434.903 42.328L420.647 56.44V53.056L436.199 68.536C436.967 69.304 437.327 70.072 437.279 70.84C437.231 71.608 436.919 72.256 436.343 72.784C435.767 73.264 435.047 73.504 434.183 73.504C433.079 73.504 432.191 73.288 431.519 72.856C430.895 72.424 430.151 71.776 429.287 70.912L414.887 56.944H414.743V69.832C414.743 72.28 413.519 73.504 411.071 73.504Z" fill="#F2F2F2"/>
<path d="M260.339 73C259.571 73 258.947 72.832 258.467 72.496C257.987 72.112 257.651 71.632 257.459 71.056C257.315 70.432 257.315 69.784 257.459 69.112C257.651 68.392 258.035 67.72 258.611 67.096L278.195 41.68V43.48H259.907C258.995 43.48 258.299 43.24 257.819 42.76C257.339 42.232 257.099 41.536 257.099 40.672C257.099 39.76 257.339 39.064 257.819 38.584C258.299 38.104 258.995 37.864 259.907 37.864H281.651C282.563 37.864 283.283 38.056 283.811 38.44C284.387 38.824 284.747 39.304 284.891 39.88C285.083 40.456 285.107 41.08 284.963 41.752C284.819 42.424 284.459 43.072 283.883 43.696L264.011 69.4V67.456H283.235C285.155 67.456 286.115 68.368 286.115 70.192C286.115 71.056 285.851 71.752 285.323 72.28C284.843 72.76 284.147 73 283.235 73H260.339Z" fill="url(#paint1_linear_84_45)"/>
<defs>
<linearGradient id="paint0_linear_84_45" x1="31.9133" y1="54.0166" x2="59.1845" y2="54.0166" gradientUnits="userSpaceOnUse">
<stop stop-color="#E5293B"/>
<stop offset="1" stop-color="#BE1E67"/>
</linearGradient>
<linearGradient id="paint1_linear_84_45" x1="222.036" y1="46.2148" x2="317.776" y2="46.2148" gradientUnits="userSpaceOnUse">
<stop stop-color="#E5293B"/>
<stop offset="1" stop-color="#BE1E67"/>
</linearGradient>
</defs>
</svg>
