<svg width="448" height="106" viewBox="0 0 448 106" fill="none" xmlns="http://www.w3.org/2000/svg">
<path d="M21.5 102C21.5 102 20.3814 101.999 20 101.899C18.5 101.501 17.5512 100.112 17.5512 98.9359V81.3441H15.4479C15.4479 81.3441 15.4341 81.3467 15.4295 81.3467C12.4015 81.3467 9.55332 80.1697 7.40627 78.0294C5.25689 75.8865 4.06921 73.0327 4.06459 69.9945L4.00001 30.2663C3.9954 27.2305 5.17153 24.3723 7.31628 22.2224C9.45873 20.0724 12.3115 18.8844 15.3487 18.8798L86.5501 18.7644H86.5682C92.8274 18.7644 97.9241 23.8533 97.9358 30.1141L98 69.8424C98.0052 72.878 96.8285 75.7363 94.684 77.8863C92.5415 80.0383 89.3383 81.337 86.6512 81.337H35.4467C34.3374 81.337 33 80.5 32.5 79C31.8054 76.9161 32.5916 75.5289 33.325 74.6938L54.7679 52.345L36.3014 52.3357C34.7401 52.3357 33.5 51 33.5 48.5C33.5 46 34.7424 44.6817 36.3036 44.6817L64.0223 44.6932C65.1338 44.6932 66.5 45.5 67 46.5C68.1929 48.8859 67 50.2644 66.144 51.3899L45.7218 73.7156L84.6376 73.5751C86.1688 73.5725 87.6009 72.9749 88.6783 71.8951C89.7551 70.8133 90.3476 69.3786 90.3457 67.8514L90.2809 32.1233C90.2763 28.9768 87.7143 26.4185 84.5682 26.4185H80.5L17.358 26.5338C15.8313 26.5361 14.3992 27.1336 13.3222 28.2132C12.2452 29.2951 11.6525 30.7299 11.6548 32.2571L11.7194 67.9854C11.7217 69.5126 12.319 70.9447 13.3983 72.0246C14.4776 73.0992 15.9097 73.6923 17.4318 73.6923C17.4318 73.6923 18.3771 73.6923 19.3771 73.6923C20.3771 73.6923 21.3762 73.6858 21.3762 73.6858H21.3786C22.1281 73.6858 22.9675 73.7335 23.498 74.2644C24.0284 74.7946 24.2037 75.764 24.2037 76.5136V91.4455L29.0383 84.8161C30.0692 83.6443 32.8565 83.531 34.028 84.5623C35.1996 85.5936 35.3125 87.3811 34.2817 88.5529L25 100.804C24.502 101.302 23.5 102 22 102H21.5Z" fill="url(#paint0_linear_84_42)"/>
<path d="M124.872 77.504C123.72 77.504 122.808 77.192 122.136 76.568C121.512 75.896 121.2 74.984 121.2 73.832V47.48H117.168C116.256 47.48 115.536 47.24 115.008 46.76C114.48 46.232 114.216 45.536 114.216 44.672C114.216 43.76 114.48 43.064 115.008 42.584C115.536 42.104 116.256 41.864 117.168 41.864H123.288L121.2 43.808V41.216C121.2 36.464 122.376 32.888 124.728 30.488C127.08 28.04 130.512 26.6 135.024 26.168L137.256 26.024C138.072 25.928 138.72 26.048 139.2 26.384C139.68 26.72 139.992 27.152 140.136 27.68C140.28 28.208 140.28 28.76 140.136 29.336C140.04 29.864 139.8 30.344 139.416 30.776C139.032 31.208 138.552 31.448 137.976 31.496L136.608 31.568C133.776 31.808 131.712 32.624 130.416 34.016C129.12 35.36 128.472 37.424 128.472 40.208V43.016L127.464 41.864H135.456C136.464 41.864 137.208 42.104 137.688 42.584C138.216 43.064 138.48 43.76 138.48 44.672C138.48 45.536 138.216 46.232 137.688 46.76C137.208 47.24 136.464 47.48 135.456 47.48H128.472V73.832C128.472 76.28 127.272 77.504 124.872 77.504ZM159.577 77.648C155.737 77.648 152.425 76.928 149.641 75.488C146.905 74 144.769 71.912 143.233 69.224C141.745 66.488 141.001 63.248 141.001 59.504C141.001 55.856 141.745 52.664 143.233 49.928C144.721 47.192 146.761 45.056 149.353 43.52C151.945 41.984 154.897 41.216 158.209 41.216C160.657 41.216 162.841 41.624 164.761 42.44C166.681 43.208 168.313 44.36 169.657 45.896C171.049 47.384 172.081 49.208 172.753 51.368C173.473 53.528 173.833 55.952 173.833 58.64C173.833 59.456 173.593 60.08 173.113 60.512C172.633 60.896 171.913 61.088 170.953 61.088H146.761V56.624H168.937L167.713 57.632C167.713 55.232 167.353 53.192 166.633 51.512C165.961 49.832 164.929 48.56 163.537 47.696C162.193 46.784 160.513 46.328 158.497 46.328C156.241 46.328 154.321 46.856 152.737 47.912C151.201 48.968 150.025 50.432 149.209 52.304C148.393 54.176 147.985 56.36 147.985 58.856V59.288C147.985 63.512 148.969 66.704 150.937 68.864C152.953 70.976 155.857 72.032 159.649 72.032C161.089 72.032 162.601 71.84 164.185 71.456C165.817 71.072 167.353 70.424 168.793 69.512C169.609 69.032 170.329 68.816 170.953 68.864C171.625 68.912 172.153 69.128 172.537 69.512C172.969 69.896 173.233 70.376 173.329 70.952C173.425 71.528 173.329 72.128 173.041 72.752C172.753 73.328 172.249 73.856 171.529 74.336C169.897 75.44 168.001 76.28 165.841 76.856C163.681 77.384 161.593 77.648 159.577 77.648ZM198.248 77.648C194.408 77.648 191.096 76.928 188.312 75.488C185.576 74 183.44 71.912 181.904 69.224C180.416 66.488 179.672 63.248 179.672 59.504C179.672 55.856 180.416 52.664 181.904 49.928C183.392 47.192 185.432 45.056 188.024 43.52C190.616 41.984 193.568 41.216 196.88 41.216C199.328 41.216 201.512 41.624 203.432 42.44C205.352 43.208 206.984 44.36 208.328 45.896C209.72 47.384 210.752 49.208 211.424 51.368C212.144 53.528 212.504 55.952 212.504 58.64C212.504 59.456 212.264 60.08 211.784 60.512C211.304 60.896 210.584 61.088 209.624 61.088H185.432V56.624H207.608L206.384 57.632C206.384 55.232 206.024 53.192 205.304 51.512C204.632 49.832 203.6 48.56 202.208 47.696C200.864 46.784 199.184 46.328 197.168 46.328C194.912 46.328 192.992 46.856 191.408 47.912C189.872 48.968 188.696 50.432 187.88 52.304C187.064 54.176 186.656 56.36 186.656 58.856V59.288C186.656 63.512 187.64 66.704 189.608 68.864C191.624 70.976 194.528 72.032 198.32 72.032C199.76 72.032 201.272 71.84 202.856 71.456C204.488 71.072 206.024 70.424 207.464 69.512C208.28 69.032 209 68.816 209.624 68.864C210.296 68.912 210.824 69.128 211.208 69.512C211.64 69.896 211.904 70.376 212 70.952C212.096 71.528 212 72.128 211.712 72.752C211.424 73.328 210.92 73.856 210.2 74.336C208.568 75.44 206.672 76.28 204.512 76.856C202.352 77.384 200.264 77.648 198.248 77.648ZM233.824 77.648C230.752 77.648 228.04 76.928 225.688 75.488C223.384 74 221.584 71.888 220.288 69.152C218.992 66.368 218.344 63.128 218.344 59.432C218.344 55.64 218.992 52.4 220.288 49.712C221.584 47.024 223.384 44.936 225.688 43.448C228.04 41.96 230.752 41.216 233.824 41.216C236.896 41.216 239.536 41.984 241.744 43.52C244 45.008 245.512 47.024 246.28 49.568H245.488V29.408C245.488 28.208 245.8 27.296 246.424 26.672C247.048 26.048 247.936 25.736 249.088 25.736C250.24 25.736 251.128 26.048 251.752 26.672C252.424 27.296 252.76 28.208 252.76 29.408V73.832C252.76 74.984 252.448 75.896 251.824 76.568C251.2 77.192 250.312 77.504 249.16 77.504C248.008 77.504 247.12 77.192 246.496 76.568C245.872 75.896 245.56 74.984 245.56 73.832V67.496L246.352 69.08C245.584 71.672 244.072 73.76 241.816 75.344C239.608 76.88 236.944 77.648 233.824 77.648ZM235.696 72.032C237.664 72.032 239.392 71.552 240.88 70.592C242.368 69.632 243.52 68.216 244.336 66.344C245.2 64.472 245.632 62.168 245.632 59.432C245.632 55.304 244.72 52.184 242.896 50.072C241.072 47.96 238.672 46.904 235.696 46.904C233.68 46.904 231.928 47.384 230.44 48.344C228.952 49.256 227.776 50.648 226.912 52.52C226.096 54.392 225.688 56.696 225.688 59.432C225.688 63.512 226.6 66.632 228.424 68.792C230.248 70.952 232.672 72.032 235.696 72.032ZM315.515 77.648C312.443 77.648 309.779 76.88 307.523 75.344C305.267 73.76 303.755 71.672 302.987 69.08L303.779 67.784V73.832C303.779 74.984 303.467 75.896 302.843 76.568C302.219 77.192 301.355 77.504 300.251 77.504C299.099 77.504 298.211 77.192 297.587 76.568C296.963 75.896 296.651 74.984 296.651 73.832V29.408C296.651 28.208 296.963 27.296 297.587 26.672C298.211 26.048 299.099 25.736 300.251 25.736C301.403 25.736 302.291 26.048 302.915 26.672C303.587 27.296 303.923 28.208 303.923 29.408V49.568H303.059C303.827 47.024 305.339 45.008 307.595 43.52C309.851 41.984 312.491 41.216 315.515 41.216C318.683 41.216 321.419 41.96 323.723 43.448C326.027 44.936 327.803 47.024 329.051 49.712C330.347 52.4 330.995 55.64 330.995 59.432C330.995 63.128 330.347 66.368 329.051 69.152C327.803 71.888 326.003 74 323.651 75.488C321.347 76.928 318.635 77.648 315.515 77.648ZM313.715 72.032C315.731 72.032 317.483 71.552 318.971 70.592C320.459 69.632 321.611 68.216 322.427 66.344C323.243 64.472 323.651 62.168 323.651 59.432C323.651 55.304 322.739 52.184 320.915 50.072C319.139 47.96 316.739 46.904 313.715 46.904C311.747 46.904 309.995 47.384 308.459 48.344C306.971 49.256 305.819 50.648 305.003 52.52C304.187 54.392 303.779 56.696 303.779 59.432C303.779 63.512 304.691 66.632 306.515 68.792C308.339 70.952 310.739 72.032 313.715 72.032ZM350.422 77.648C347.974 77.648 345.766 77.168 343.798 76.208C341.878 75.248 340.366 73.952 339.262 72.32C338.158 70.688 337.606 68.84 337.606 66.776C337.606 64.184 338.254 62.144 339.55 60.656C340.894 59.12 343.078 58.04 346.102 57.416C349.174 56.744 353.302 56.408 358.486 56.408H361.87V60.872H358.558C355.102 60.872 352.366 61.04 350.35 61.376C348.334 61.712 346.894 62.288 346.03 63.104C345.214 63.872 344.806 64.952 344.806 66.344C344.806 68.168 345.43 69.656 346.678 70.808C347.926 71.912 349.654 72.464 351.862 72.464C353.638 72.464 355.198 72.056 356.542 71.24C357.886 70.376 358.942 69.224 359.71 67.784C360.526 66.344 360.934 64.688 360.934 62.816V54.536C360.934 51.8 360.358 49.832 359.206 48.632C358.054 47.432 356.158 46.832 353.518 46.832C351.982 46.832 350.374 47.024 348.694 47.408C347.062 47.792 345.358 48.44 343.582 49.352C342.766 49.736 342.07 49.856 341.494 49.712C340.918 49.568 340.462 49.256 340.126 48.776C339.79 48.248 339.598 47.696 339.55 47.12C339.55 46.496 339.694 45.896 339.982 45.32C340.318 44.744 340.87 44.312 341.638 44.024C343.75 43.016 345.838 42.296 347.902 41.864C349.966 41.432 351.91 41.216 353.734 41.216C356.95 41.216 359.59 41.72 361.654 42.728C363.766 43.736 365.326 45.272 366.334 47.336C367.342 49.4 367.846 52.064 367.846 55.328V73.832C367.846 74.984 367.558 75.896 366.982 76.568C366.406 77.192 365.566 77.504 364.462 77.504C363.406 77.504 362.566 77.192 361.942 76.568C361.318 75.896 361.006 74.984 361.006 73.832V69.152H361.654C361.27 70.928 360.55 72.464 359.494 73.76C358.486 75.008 357.214 75.968 355.678 76.64C354.142 77.312 352.39 77.648 350.422 77.648ZM393.342 77.648C389.742 77.648 386.622 76.904 383.982 75.416C381.39 73.88 379.374 71.744 377.934 69.008C376.494 66.224 375.774 62.96 375.774 59.216C375.774 56.432 376.182 53.936 376.998 51.728C377.814 49.472 378.966 47.576 380.454 46.04C381.99 44.504 383.838 43.328 385.998 42.512C388.206 41.648 390.654 41.216 393.342 41.216C395.022 41.216 396.774 41.48 398.598 42.008C400.47 42.488 402.198 43.304 403.782 44.456C404.406 44.84 404.79 45.32 404.934 45.896C405.126 46.424 405.15 46.976 405.006 47.552C404.91 48.128 404.646 48.632 404.214 49.064C403.83 49.448 403.35 49.688 402.774 49.784C402.198 49.832 401.574 49.664 400.902 49.28C399.75 48.464 398.574 47.888 397.374 47.552C396.174 47.168 395.022 46.976 393.918 46.976C392.19 46.976 390.654 47.264 389.31 47.84C388.014 48.368 386.91 49.16 385.998 50.216C385.086 51.224 384.39 52.496 383.91 54.032C383.478 55.568 383.262 57.32 383.262 59.288C383.262 63.224 384.174 66.32 385.998 68.576C387.87 70.784 390.51 71.888 393.918 71.888C395.022 71.888 396.174 71.72 397.374 71.384C398.574 71.048 399.75 70.472 400.902 69.656C401.574 69.272 402.198 69.128 402.774 69.224C403.35 69.32 403.806 69.584 404.142 70.016C404.526 70.4 404.766 70.88 404.862 71.456C405.006 71.984 404.982 72.536 404.79 73.112C404.598 73.688 404.19 74.168 403.566 74.552C402.03 75.656 400.35 76.448 398.526 76.928C396.75 77.408 395.022 77.648 393.342 77.648ZM415.071 77.504C413.919 77.504 413.031 77.192 412.407 76.568C411.783 75.896 411.471 74.984 411.471 73.832V29.408C411.471 28.208 411.783 27.296 412.407 26.672C413.031 26.048 413.919 25.736 415.071 25.736C416.223 25.736 417.111 26.048 417.735 26.672C418.407 27.296 418.743 28.208 418.743 29.408V57.2H418.887L432.351 43.808C433.119 43.04 433.815 42.44 434.439 42.008C435.063 41.576 435.879 41.36 436.887 41.36C437.895 41.36 438.663 41.624 439.191 42.152C439.719 42.68 439.983 43.328 439.983 44.096C439.983 44.816 439.623 45.56 438.903 46.328L424.647 60.44V57.056L440.199 72.536C440.967 73.304 441.327 74.072 441.279 74.84C441.231 75.608 440.919 76.256 440.343 76.784C439.767 77.264 439.047 77.504 438.183 77.504C437.079 77.504 436.191 77.288 435.519 76.856C434.895 76.424 434.151 75.776 433.287 74.912L418.887 60.944H418.743V73.832C418.743 76.28 417.519 77.504 415.071 77.504Z" fill="#121212"/>
<path d="M264.339 77C263.571 77 262.947 76.832 262.467 76.496C261.987 76.112 261.651 75.632 261.459 75.056C261.315 74.432 261.315 73.784 261.459 73.112C261.651 72.392 262.035 71.72 262.611 71.096L282.195 45.68V47.48H263.907C262.995 47.48 262.299 47.24 261.819 46.76C261.339 46.232 261.099 45.536 261.099 44.672C261.099 43.76 261.339 43.064 261.819 42.584C262.299 42.104 262.995 41.864 263.907 41.864H285.651C286.563 41.864 287.283 42.056 287.811 42.44C288.387 42.824 288.747 43.304 288.891 43.88C289.083 44.456 289.107 45.08 288.963 45.752C288.819 46.424 288.459 47.072 287.883 47.696L268.011 73.4V71.456H287.235C289.155 71.456 290.115 72.368 290.115 74.192C290.115 75.056 289.851 75.752 289.323 76.28C288.843 76.76 288.147 77 287.235 77H264.339Z" fill="url(#paint1_linear_84_42)"/>
<defs>
<linearGradient id="paint0_linear_84_42" x1="35.9133" y1="58.0166" x2="63.1845" y2="58.0166" gradientUnits="userSpaceOnUse">
<stop stop-color="#E5293B"/>
<stop offset="1" stop-color="#BE1E67"/>
</linearGradient>
<linearGradient id="paint1_linear_84_42" x1="226.036" y1="50.2148" x2="321.776" y2="50.2148" gradientUnits="userSpaceOnUse">
<stop stop-color="#E5293B"/>
<stop offset="1" stop-color="#BE1E67"/>
</linearGradient>
</defs>
</svg>
