<svg width="358" height="122" viewBox="0 0 358 122" fill="none" xmlns="http://www.w3.org/2000/svg">
<path d="M26.4726 115.998C26.054 115.998 25.6317 115.923 25.2255 115.77C23.8499 115.252 22.9399 113.934 22.9399 112.464V90.4744L20.3098 90.4781H20.2864C16.5018 90.4781 12.9407 89.0059 10.2588 86.3319C7.57066 83.6518 6.08769 80.0861 6.08151 76.2894L6.00002 20.3814C5.99385 16.5847 7.46571 13.0141 10.1452 10.3253C12.8246 7.63649 16.3894 6.15315 20.1851 6.14574L336.688 6H336.711C344.535 6 350.906 12.3595 350.92 20.1887L351 76.0967C351.006 79.8922 349.534 83.464 346.856 86.1528C344.177 88.8416 340.173 90.4682 336.816 90.4682H168.308C166.922 90.4682 165.663 89.7247 165.09 88.4624C164.515 87.1965 164.737 85.7094 165.657 84.6658L192.46 56.8545L168.128 56.8433C166.177 56.8433 164.595 55.26 164.597 53.3073C164.597 51.3558 166.18 49.7749 168.13 49.7749H168.132L200.28 49.7897C201.668 49.7897 202.928 50.6049 203.499 51.8696C204.071 53.1356 203.848 54.6177 202.93 55.6601L176.153 83.4406L336.799 83.2639C338.711 83.2602 340.504 82.5143 341.85 81.1631C343.197 79.8119 343.937 78.0173 343.933 76.1091L343.853 20.2011C343.846 16.2673 340.644 13.0697 336.712 13.0697H336.701L20.1987 13.2154C18.291 13.2191 16.4993 13.9651 15.1534 15.3163C13.8063 16.6675 13.0666 18.4621 13.0703 20.3703L13.1518 76.2783C13.1555 78.1865 13.9013 79.9786 15.251 81.3261C16.5993 82.6699 18.3885 83.4097 20.2925 83.4097H20.3037L26.4738 83.4023H26.4775C27.4135 83.4023 28.3124 83.774 28.9742 84.4361C29.6373 85.0993 30.0102 85.9984 30.0102 86.9371V103.101L37.3028 94.8145C38.5919 93.3497 40.8244 93.2076 42.2901 94.4971C43.7545 95.7865 43.8965 98.0208 42.6074 99.4856L29.1286 114.801C28.4445 115.578 27.4715 116 26.4763 116L26.4726 115.998Z" fill="url(#paint0_linear_84_48)"/>
<path d="M37.22 76.42C36.18 76.42 35.36 76.14 34.76 75.58C34.2 75.02 33.92 74.2 33.92 73.12V37.06C33.92 35.98 34.2 35.16 34.76 34.6C35.36 34 36.2 33.7 37.28 33.7H58.64C59.52 33.7 60.16 33.92 60.56 34.36C61 34.76 61.22 35.36 61.22 36.16C61.22 37 61 37.64 60.56 38.08C60.16 38.52 59.52 38.74 58.64 38.74H40.16V52.24H57.44C58.24 52.24 58.86 52.46 59.3 52.9C59.78 53.3 60.02 53.9 60.02 54.7C60.02 55.54 59.78 56.18 59.3 56.62C58.86 57.06 58.24 57.28 57.44 57.28H40.16V73.12C40.16 75.32 39.18 76.42 37.22 76.42ZM79.1094 76.54C75.9094 76.54 73.1494 75.94 70.8294 74.74C68.5494 73.5 66.7694 71.76 65.4894 69.52C64.2494 67.24 63.6294 64.54 63.6294 61.42C63.6294 58.38 64.2494 55.72 65.4894 53.44C66.7294 51.16 68.4294 49.38 70.5894 48.1C72.7494 46.82 75.2094 46.18 77.9694 46.18C80.0094 46.18 81.8294 46.52 83.4294 47.2C85.0294 47.84 86.3894 48.8 87.5094 50.08C88.6694 51.32 89.5294 52.84 90.0894 54.64C90.6894 56.44 90.9894 58.46 90.9894 60.7C90.9894 61.38 90.7894 61.9 90.3894 62.26C89.9894 62.58 89.3894 62.74 88.5894 62.74H68.4294V59.02H86.9094L85.8894 59.86C85.8894 57.86 85.5894 56.16 84.9894 54.76C84.4294 53.36 83.5694 52.3 82.4094 51.58C81.2894 50.82 79.8894 50.44 78.2094 50.44C76.3294 50.44 74.7294 50.88 73.4094 51.76C72.1294 52.64 71.1494 53.86 70.4694 55.42C69.7894 56.98 69.4494 58.8 69.4494 60.88V61.24C69.4494 64.76 70.2694 67.42 71.9094 69.22C73.5894 70.98 76.0094 71.86 79.1694 71.86C80.3694 71.86 81.6294 71.7 82.9494 71.38C84.3094 71.06 85.5894 70.52 86.7894 69.76C87.4694 69.36 88.0694 69.18 88.5894 69.22C89.1494 69.26 89.5894 69.44 89.9094 69.76C90.2694 70.08 90.4894 70.48 90.5694 70.96C90.6494 71.44 90.5694 71.94 90.3294 72.46C90.0894 72.94 89.6694 73.38 89.0694 73.78C87.7094 74.7 86.1294 75.4 84.3294 75.88C82.5294 76.32 80.7894 76.54 79.1094 76.54ZM111.336 76.54C108.136 76.54 105.376 75.94 103.056 74.74C100.776 73.5 98.9959 71.76 97.7159 69.52C96.4759 67.24 95.8559 64.54 95.8559 61.42C95.8559 58.38 96.4759 55.72 97.7159 53.44C98.9559 51.16 100.656 49.38 102.816 48.1C104.976 46.82 107.436 46.18 110.196 46.18C112.236 46.18 114.056 46.52 115.656 47.2C117.256 47.84 118.616 48.8 119.736 50.08C120.896 51.32 121.756 52.84 122.316 54.64C122.916 56.44 123.216 58.46 123.216 60.7C123.216 61.38 123.016 61.9 122.616 62.26C122.216 62.58 121.616 62.74 120.816 62.74H100.656V59.02H119.136L118.116 59.86C118.116 57.86 117.816 56.16 117.216 54.76C116.656 53.36 115.796 52.3 114.636 51.58C113.516 50.82 112.116 50.44 110.436 50.44C108.556 50.44 106.956 50.88 105.636 51.76C104.356 52.64 103.376 53.86 102.696 55.42C102.016 56.98 101.676 58.8 101.676 60.88V61.24C101.676 64.76 102.496 67.42 104.136 69.22C105.816 70.98 108.236 71.86 111.396 71.86C112.596 71.86 113.856 71.7 115.176 71.38C116.536 71.06 117.816 70.52 119.016 69.76C119.696 69.36 120.296 69.18 120.816 69.22C121.376 69.26 121.816 69.44 122.136 69.76C122.496 70.08 122.716 70.48 122.796 70.96C122.876 71.44 122.796 71.94 122.556 72.46C122.316 72.94 121.896 73.38 121.296 73.78C119.936 74.7 118.356 75.4 116.556 75.88C114.756 76.32 113.016 76.54 111.336 76.54ZM140.982 76.54C138.423 76.54 136.163 75.94 134.203 74.74C132.283 73.5 130.783 71.74 129.703 69.46C128.623 67.14 128.083 64.44 128.083 61.36C128.083 58.2 128.623 55.5 129.703 53.26C130.783 51.02 132.283 49.28 134.203 48.04C136.163 46.8 138.423 46.18 140.982 46.18C143.543 46.18 145.743 46.82 147.583 48.1C149.463 49.34 150.723 51.02 151.363 53.14H150.703V36.34C150.703 35.34 150.963 34.58 151.483 34.06C152.003 33.54 152.743 33.28 153.703 33.28C154.663 33.28 155.403 33.54 155.923 34.06C156.483 34.58 156.763 35.34 156.763 36.34V73.36C156.763 74.32 156.503 75.08 155.983 75.64C155.463 76.16 154.723 76.42 153.763 76.42C152.803 76.42 152.063 76.16 151.543 75.64C151.023 75.08 150.763 74.32 150.763 73.36V68.08L151.423 69.4C150.783 71.56 149.523 73.3 147.643 74.62C145.803 75.9 143.583 76.54 140.982 76.54ZM142.543 71.86C144.183 71.86 145.623 71.46 146.863 70.66C148.103 69.86 149.063 68.68 149.743 67.12C150.463 65.56 150.823 63.64 150.823 61.36C150.823 57.92 150.063 55.32 148.543 53.56C147.023 51.8 145.023 50.92 142.543 50.92C140.863 50.92 139.403 51.32 138.163 52.12C136.923 52.88 135.943 54.04 135.223 55.6C134.543 57.16 134.203 59.08 134.203 61.36C134.203 64.76 134.963 67.36 136.483 69.16C138.003 70.96 140.023 71.86 142.543 71.86ZM228.453 76.54C225.893 76.54 223.673 75.9 221.793 74.62C219.913 73.3 218.653 71.56 218.013 69.4L218.673 68.32V73.36C218.673 74.32 218.413 75.08 217.893 75.64C217.373 76.16 216.653 76.42 215.733 76.42C214.773 76.42 214.033 76.16 213.513 75.64C212.993 75.08 212.733 74.32 212.733 73.36V36.34C212.733 35.34 212.993 34.58 213.513 34.06C214.033 33.54 214.773 33.28 215.733 33.28C216.693 33.28 217.433 33.54 217.953 34.06C218.513 34.58 218.793 35.34 218.793 36.34V53.14H218.073C218.713 51.02 219.973 49.34 221.853 48.1C223.733 46.82 225.933 46.18 228.453 46.18C231.093 46.18 233.373 46.8 235.293 48.04C237.213 49.28 238.693 51.02 239.733 53.26C240.813 55.5 241.353 58.2 241.353 61.36C241.353 64.44 240.813 67.14 239.733 69.46C238.693 71.74 237.193 73.5 235.233 74.74C233.313 75.94 231.053 76.54 228.453 76.54ZM226.953 71.86C228.633 71.86 230.093 71.46 231.333 70.66C232.573 69.86 233.533 68.68 234.213 67.12C234.893 65.56 235.233 63.64 235.233 61.36C235.233 57.92 234.473 55.32 232.953 53.56C231.473 51.8 229.473 50.92 226.953 50.92C225.313 50.92 223.853 51.32 222.573 52.12C221.333 52.88 220.373 54.04 219.693 55.6C219.013 57.16 218.673 59.08 218.673 61.36C218.673 64.76 219.433 67.36 220.953 69.16C222.473 70.96 224.473 71.86 226.953 71.86ZM257.542 76.54C255.502 76.54 253.662 76.14 252.022 75.34C250.422 74.54 249.162 73.46 248.242 72.1C247.322 70.74 246.862 69.2 246.862 67.48C246.862 65.32 247.402 63.62 248.482 62.38C249.602 61.1 251.422 60.2 253.942 59.68C256.502 59.12 259.942 58.84 264.262 58.84H267.082V62.56H264.322C261.442 62.56 259.162 62.7 257.482 62.98C255.802 63.26 254.602 63.74 253.882 64.42C253.202 65.06 252.862 65.96 252.862 67.12C252.862 68.64 253.382 69.88 254.422 70.84C255.462 71.76 256.902 72.22 258.742 72.22C260.222 72.22 261.522 71.88 262.642 71.2C263.762 70.48 264.642 69.52 265.282 68.32C265.962 67.12 266.302 65.74 266.302 64.18V57.28C266.302 55 265.822 53.36 264.862 52.36C263.902 51.36 262.322 50.86 260.122 50.86C258.842 50.86 257.502 51.02 256.102 51.34C254.742 51.66 253.322 52.2 251.842 52.96C251.162 53.28 250.582 53.38 250.102 53.26C249.622 53.14 249.242 52.88 248.962 52.48C248.682 52.04 248.522 51.58 248.482 51.1C248.482 50.58 248.602 50.08 248.842 49.6C249.122 49.12 249.582 48.76 250.222 48.52C251.982 47.68 253.722 47.08 255.442 46.72C257.162 46.36 258.782 46.18 260.302 46.18C262.982 46.18 265.182 46.6 266.902 47.44C268.662 48.28 269.962 49.56 270.802 51.28C271.642 53 272.062 55.22 272.062 57.94V73.36C272.062 74.32 271.822 75.08 271.342 75.64C270.862 76.16 270.162 76.42 269.242 76.42C268.362 76.42 267.662 76.16 267.142 75.64C266.622 75.08 266.362 74.32 266.362 73.36V69.46H266.902C266.582 70.94 265.982 72.22 265.102 73.3C264.262 74.34 263.202 75.14 261.922 75.7C260.642 76.26 259.182 76.54 257.542 76.54ZM293.308 76.54C290.308 76.54 287.708 75.92 285.508 74.68C283.348 73.4 281.668 71.62 280.468 69.34C279.268 67.02 278.668 64.3 278.668 61.18C278.668 58.86 279.008 56.78 279.688 54.94C280.368 53.06 281.328 51.48 282.568 50.2C283.848 48.92 285.388 47.94 287.188 47.26C289.028 46.54 291.068 46.18 293.308 46.18C294.708 46.18 296.168 46.4 297.688 46.84C299.248 47.24 300.688 47.92 302.008 48.88C302.528 49.2 302.848 49.6 302.968 50.08C303.128 50.52 303.148 50.98 303.028 51.46C302.948 51.94 302.728 52.36 302.368 52.72C302.048 53.04 301.648 53.24 301.168 53.32C300.688 53.36 300.168 53.22 299.608 52.9C298.648 52.22 297.668 51.74 296.668 51.46C295.668 51.14 294.708 50.98 293.788 50.98C292.348 50.98 291.068 51.22 289.948 51.7C288.868 52.14 287.948 52.8 287.188 53.68C286.428 54.52 285.848 55.58 285.448 56.86C285.088 58.14 284.908 59.6 284.908 61.24C284.908 64.52 285.668 67.1 287.188 68.98C288.748 70.82 290.948 71.74 293.788 71.74C294.708 71.74 295.668 71.6 296.668 71.32C297.668 71.04 298.648 70.56 299.608 69.88C300.168 69.56 300.688 69.44 301.168 69.52C301.648 69.6 302.028 69.82 302.308 70.18C302.628 70.5 302.828 70.9 302.908 71.38C303.028 71.82 303.008 72.28 302.848 72.76C302.688 73.24 302.348 73.64 301.828 73.96C300.548 74.88 299.148 75.54 297.628 75.94C296.148 76.34 294.708 76.54 293.308 76.54ZM311.416 76.42C310.456 76.42 309.716 76.16 309.196 75.64C308.676 75.08 308.416 74.32 308.416 73.36V36.34C308.416 35.34 308.676 34.58 309.196 34.06C309.716 33.54 310.456 33.28 311.416 33.28C312.376 33.28 313.116 33.54 313.636 34.06C314.196 34.58 314.476 35.34 314.476 36.34V59.5H314.596L325.816 48.34C326.456 47.7 327.036 47.2 327.556 46.84C328.076 46.48 328.756 46.3 329.596 46.3C330.436 46.3 331.076 46.52 331.516 46.96C331.956 47.4 332.176 47.94 332.176 48.58C332.176 49.18 331.876 49.8 331.276 50.44L319.396 62.2V59.38L332.356 72.28C332.996 72.92 333.296 73.56 333.256 74.2C333.216 74.84 332.956 75.38 332.476 75.82C331.996 76.22 331.396 76.42 330.676 76.42C329.756 76.42 329.016 76.24 328.456 75.88C327.936 75.52 327.316 74.98 326.596 74.26L314.596 62.62H314.476V73.36C314.476 75.4 313.456 76.42 311.416 76.42Z" fill="#F2F2F2"/>
<defs>
<linearGradient id="paint0_linear_84_48" x1="123.128" y1="57.8738" x2="223.22" y2="57.8738" gradientUnits="userSpaceOnUse">
<stop stop-color="#E5293B"/>
<stop offset="1" stop-color="#BE1E67"/>
</linearGradient>
</defs>
</svg>
