<svg width="1236" height="1236" viewBox="0 0 1236 1236" fill="none" xmlns="http://www.w3.org/2000/svg">
<g clip-path="url(#clip0_95_5319)">
<path d="M308.02 1038C304.63 1038 301.21 1037.4 297.92 1036.16C286.78 1031.96 279.41 1021.29 279.41 1009.39V831.35L258.11 831.38H257.92C227.27 831.38 198.43 819.46 176.71 797.81C154.94 776.11 142.93 747.24 142.88 716.5L142.22 314.44C142.17 283.7 154.09 254.79 175.79 233.02C197.49 211.25 226.36 199.24 257.1 199.18L977.9 198H978.09C1041.45 198 1093.05 249.49 1093.16 312.88L1093.81 714.94C1093.86 745.67 1081.94 774.59 1060.25 796.36C1038.55 818.13 1006.13 831.3 978.94 831.3H480.81C469.58 831.3 459.39 825.28 454.75 815.06C450.09 804.81 451.89 792.77 459.34 784.32L676.41 537.89L479.35 537.8C463.55 537.8 450.74 524.98 450.75 509.17C450.75 493.37 463.57 480.57 479.37 480.57H479.38L739.74 480.69C750.98 480.69 761.18 487.29 765.81 497.53C770.44 507.78 768.63 519.78 761.2 528.22L544.34 774.4L978.8 772.97C994.29 772.94 1008.81 766.9 1019.71 755.96C1030.62 745.02 1036.61 730.49 1036.58 715.04L1035.93 312.98C1035.87 281.13 1009.94 255.24 978.1 255.24H978.01L257.21 256.42C241.76 256.45 227.25 262.49 216.35 273.43C205.44 284.37 199.45 298.9 199.48 314.35L200.14 716.41C200.17 731.86 206.21 746.37 217.14 757.28C228.06 768.16 242.55 774.15 257.97 774.15H258.06L308.03 774.09H308.06C315.64 774.09 322.92 777.1 328.28 782.46C333.65 787.83 336.67 795.11 336.67 802.71V933.58L395.73 866.49C406.17 854.63 424.25 853.48 436.12 863.92C447.98 874.36 449.13 892.45 438.69 904.31L329.53 1028.31C323.99 1034.6 316.11 1038.02 308.05 1038.02L308.02 1038Z" fill="url(#paint0_linear_95_5319)"/>
</g>
<defs>
<linearGradient id="paint0_linear_95_5319" x1="142.21" y1="618" x2="1093.79" y2="618" gradientUnits="userSpaceOnUse">
<stop stop-color="#E5293B"/>
<stop offset="1" stop-color="#BE1E67"/>
</linearGradient>
<clipPath id="clip0_95_5319">
<rect width="1236" height="1236" fill="white"/>
</clipPath>
</defs>
</svg>
