<svg width="1085" height="958" viewBox="0 0 1085 958" fill="none" xmlns="http://www.w3.org/2000/svg">
<g clip-path="url(#clip0_95_5319)">
<path d="M189.045 957.871C185.179 957.871 181.28 957.187 177.529 955.773C164.827 950.984 156.424 938.818 156.424 925.25V722.249L132.138 722.284H131.921C96.9739 722.284 64.0906 708.693 39.3256 684.007C14.5035 659.265 0.809722 626.348 0.752712 591.298L0.000178625 132.871C-0.0568312 97.8209 13.5343 64.8578 38.2766 40.0358C63.0188 15.2137 95.9363 1.51991 130.986 1.4515L952.84 0.106079H953.056C1025.3 0.106079 1084.13 58.8148 1084.26 131.092L1085 589.519C1085.06 624.557 1071.47 657.532 1046.73 682.354C1021.99 707.176 985.027 722.192 954.025 722.192H386.059C373.255 722.192 361.636 715.329 356.346 703.676C351.032 691.989 353.085 678.261 361.579 668.626L609.082 387.647L384.395 387.545C366.38 387.545 351.774 372.928 351.785 354.901C351.785 336.886 366.402 322.291 384.417 322.291H384.429L681.29 322.428C694.106 322.428 705.736 329.954 711.015 341.629C716.294 353.316 714.231 366.998 705.759 376.622L458.496 657.315L953.866 655.685C971.527 655.651 988.083 648.764 1000.51 636.29C1012.95 623.816 1019.78 607.249 1019.75 589.633L1019.01 131.206C1018.94 94.8906 989.371 65.3709 953.068 65.3709H952.965L131.111 66.7164C113.495 66.7506 96.9511 73.6373 84.523 86.1111C72.0834 98.5848 65.2536 115.152 65.2878 132.768L66.0404 591.195C66.0746 608.811 72.9614 625.356 85.4237 637.795C97.8746 650.201 114.396 657.03 131.978 657.03H132.081L189.056 656.962H189.09C197.733 656.962 206.034 660.394 212.145 666.505C218.268 672.628 221.711 680.929 221.711 689.594V838.812L289.051 762.316C300.955 748.793 321.57 747.482 335.104 759.386C348.627 771.289 349.938 791.915 338.034 805.438L213.57 946.823C207.254 953.994 198.269 957.894 189.079 957.894L189.045 957.871Z" fill="#121212"/>
</g>
<defs>
<clipPath id="clip0_95_5319">
<rect width="1085" height="958" fill="white"/>
</clipPath>
</defs>
</svg>
