<?xml version="1.0" encoding="UTF-8"?><svg id="uuid-2ffc8f2d-5f04-4d80-9f60-a7641be45c3c" xmlns="http://www.w3.org/2000/svg" viewBox="0 0 1934 360"><path d="M71.02,359.9c-1.45,0-2.92-.26-4.33-.79-4.77-1.8-7.93-6.37-7.93-11.47v-76.26h-9.12s-.06.01-.08.01c-13.13,0-25.48-5.1-34.79-14.38C5.45,247.72.3,235.35.28,222.19L0,49.97c-.02-13.16,5.08-25.55,14.38-34.87C23.67,5.78,36.04.63,49.2.61L357.94.1h.08c27.14,0,49.24,22.06,49.29,49.2l.28,172.22c.02,13.16-5.08,25.55-14.38,34.87-9.29,9.33-23.18,14.96-34.83,14.96h-213.36c-4.81,0-9.17-2.58-11.16-6.96-1.99-4.39-1.22-9.55,1.96-13.17l92.98-105.55-84.41-.04c-6.77,0-12.26-5.49-12.25-12.26,0-6.77,5.49-12.25,12.26-12.25h0l111.52.05c4.82,0,9.18,2.82,11.17,7.21,1.98,4.39,1.21,9.53-1.97,13.15l-92.89,105.45,186.09-.61c6.64-.01,12.85-2.6,17.52-7.28,4.67-4.69,7.24-10.91,7.23-17.53l-.28-172.22c-.02-13.64-11.13-24.73-24.77-24.73h-.04l-308.74.5c-6.62.01-12.83,2.6-17.5,7.28-4.67,4.69-7.24,10.91-7.23,17.53l.28,172.22c.01,6.62,2.6,12.83,7.28,17.51,4.68,4.66,10.89,7.23,17.49,7.23h.04l21.4-.03h.01c3.25,0,6.36,1.29,8.66,3.59,2.3,2.3,3.59,5.42,3.59,8.67v56.06l25.3-28.74c4.47-5.08,12.22-5.57,17.3-1.1,5.08,4.47,5.57,12.22,1.1,17.3l-46.76,53.11c-2.37,2.7-5.75,4.16-9.2,4.16Z" style="fill:#f2f2f2;"/><path d="M553.88,220.12c-2.29-2.36-3.42-5.42-3.42-9.18V62.19c0-3.75,1.1-6.73,3.3-8.93,2.2-2.2,5.26-3.3,9.18-3.3h87.59c7.83,0,11.74,3.42,11.74,10.28s-3.91,10.28-11.74,10.28h-75.11v54.07h70.22c7.83,0,11.74,3.42,11.74,10.28s-3.91,10.27-11.74,10.27h-70.22v65.82c0,3.91-1.1,7.02-3.3,9.3-2.2,2.28-5.26,3.42-9.18,3.42s-6.77-1.19-9.05-3.55Z" style="fill:#f2f2f2;"/><path d="M691.01,219.14c-2.2-2.2-3.3-5.18-3.3-8.93V62.19c0-3.75,1.1-6.73,3.3-8.93,2.2-2.2,5.26-3.3,9.18-3.3h90.04c3.75,0,6.64.9,8.69,2.69,2.04,1.8,3.06,4.32,3.06,7.58s-1.02,5.75-3.06,7.46c-2.04,1.71-4.94,2.57-8.69,2.57h-77.8v54.31h72.91c3.75,0,6.65.9,8.69,2.69,2.04,1.8,3.06,4.32,3.06,7.58s-1.02,5.79-3.06,7.58c-2.04,1.79-4.94,2.69-8.69,2.69h-72.91v57.01h77.8c7.83,0,11.74,3.34,11.74,10.03,0,3.27-1.02,5.79-3.06,7.58-2.04,1.8-4.94,2.69-8.69,2.69h-90.04c-3.91,0-6.97-1.1-9.18-3.3Z" style="fill:#f2f2f2;"/><path d="M834.14,219.14c-2.2-2.2-3.31-5.18-3.31-8.93V62.19c0-3.75,1.1-6.73,3.31-8.93,2.2-2.2,5.26-3.3,9.17-3.3h90.04c3.75,0,6.65.9,8.69,2.69,2.04,1.8,3.06,4.32,3.06,7.58s-1.02,5.75-3.06,7.46c-2.04,1.71-4.94,2.57-8.69,2.57h-77.8v54.31h72.91c3.75,0,6.64.9,8.69,2.69,2.04,1.8,3.06,4.32,3.06,7.58s-1.02,5.79-3.06,7.58c-2.04,1.79-4.94,2.69-8.69,2.69h-72.91v57.01h77.8c7.83,0,11.74,3.34,11.74,10.03,0,3.27-1.02,5.79-3.06,7.58-2.04,1.8-4.94,2.69-8.69,2.69h-90.04c-3.91,0-6.97-1.1-9.17-3.3Z" style="fill:#f2f2f2;"/><path d="M977.26,219.14c-2.2-2.2-3.3-5.18-3.3-8.93V62.19c0-3.75,1.1-6.73,3.3-8.93,2.2-2.2,5.26-3.3,9.18-3.3h47.95c27.89,0,49.5,7.51,64.84,22.51,15.33,15.01,23,36.21,23,63.61s-7.67,48.65-23,63.73c-15.33,15.09-36.94,22.63-64.84,22.63h-47.95c-3.91,0-6.97-1.1-9.18-3.3ZM1096.53,136.08c0-43.39-21.2-65.08-63.61-65.08h-33.76v130.41h33.76c42.41,0,63.61-21.78,63.61-65.33Z" style="fill:#f2f2f2;"/><path d="M1271.95,212.17c0,6.85-3.91,10.28-11.74,10.28h-107.16c-3.42,0-6.16-.98-8.2-2.94-2.04-1.96-3.06-4.48-3.06-7.58,0-3.26,1.06-6.44,3.18-9.54l93.22-131.87h-84.41c-7.83,0-11.74-3.42-11.74-10.28s3.91-10.28,11.74-10.28h103.98c3.59,0,6.4,1.02,8.44,3.06,2.04,2.04,3.06,4.61,3.06,7.71,0,3.27-1.06,6.28-3.18,9.05l-93.46,132.12h87.59c7.83,0,11.74,3.42,11.74,10.28Z" style="fill:#f2f2f2;"/><path d="M1423.03,148.55c5.46,7.18,8.2,16.15,8.2,26.91,0,14.84-5.1,26.39-15.29,34.62-10.2,8.24-24.43,12.35-42.69,12.35h-62.39c-3.91,0-6.97-1.1-9.17-3.3-2.2-2.2-3.3-5.18-3.3-8.93V62.19c0-3.75,1.1-6.73,3.3-8.93s5.26-3.3,9.17-3.3h59.7c17.77,0,31.68,3.96,41.71,11.87,10.03,7.91,15.05,18.96,15.05,33.15,0,9.14-2.41,17.05-7.22,23.73-4.81,6.69-11.54,11.67-20.18,14.93,9.95,2.77,17.65,7.75,23.12,14.92ZM1323.08,124.58h43.55c24.14,0,36.21-9.13,36.21-27.4,0-9.13-2.98-15.9-8.93-20.3-5.95-4.4-15.05-6.61-27.28-6.61h-43.55v54.31ZM1398.19,195.28c5.87-4.56,8.81-11.66,8.81-21.28s-2.97-17.09-8.93-21.9c-5.95-4.81-15.13-7.22-27.52-7.22h-47.46v57.25h47.46c12.56,0,21.78-2.28,27.65-6.85Z" style="fill:#f2f2f2;"/><path d="M1615.21,212.66c0,3.1-1.26,5.71-3.79,7.83-2.53,2.12-5.34,3.18-8.44,3.18-2.12,0-4.12-.61-5.99-1.83-1.88-1.23-3.3-2.97-4.28-5.26l-16.15-36.7h-89.55l-16.15,36.7c-.98,2.29-2.45,4.04-4.41,5.26-1.96,1.22-4,1.83-6.12,1.83-3.27,0-6.16-1.06-8.69-3.18-2.53-2.12-3.79-4.73-3.79-7.83,0-1.3.41-2.94,1.23-4.89l68.99-150.96c1.14-2.6,2.97-4.65,5.5-6.11,2.53-1.47,5.18-2.2,7.95-2.2s5.42.73,7.95,2.2c2.53,1.47,4.36,3.51,5.5,6.11l69,150.96c.81,1.96,1.22,3.59,1.22,4.89ZM1496.06,159.81h71.68l-35.96-80.98-35.72,80.98Z" style="fill:#f2f2f2;"/><path d="M1667.81,213.76c-12.23-7.1-21.62-17.29-28.14-30.58-6.53-13.29-9.79-28.99-9.79-47.1s3.26-33.56,9.79-46.85c6.52-13.29,15.9-23.49,28.14-30.58,12.23-7.1,26.58-10.64,43.06-10.64,10.77,0,20.96,1.68,30.58,5.02,9.62,3.34,18.02,8.2,25.2,14.56,3.1,2.45,4.65,5.71,4.65,9.79,0,2.94-.82,5.43-2.45,7.46-1.63,2.04-3.59,3.06-5.87,3.06-2.78,0-5.47-1.06-8.07-3.18-7.83-5.87-14.97-9.99-21.41-12.36-6.45-2.36-13.75-3.55-21.9-3.55-17.95,0-31.73,5.79-41.35,17.37-9.63,11.59-14.43,28.22-14.43,49.91s4.81,38.58,14.43,50.16c9.62,11.58,23.4,17.37,41.35,17.37,7.83,0,14.96-1.22,21.41-3.67,6.44-2.45,13.74-6.52,21.9-12.23,3.26-2.12,5.95-3.18,8.07-3.18,2.28,0,4.24,1.02,5.87,3.06,1.63,2.04,2.45,4.53,2.45,7.46,0,4.08-1.55,7.34-4.65,9.79-7.18,6.36-15.58,11.22-25.2,14.56-9.63,3.34-19.82,5.02-30.58,5.02-16.48,0-30.83-3.55-43.06-10.64Z" style="fill:#f2f2f2;"/><path d="M1934,211.92c0,3.1-1.19,5.79-3.55,8.08-2.37,2.29-5.1,3.42-8.2,3.42s-5.95-1.3-8.56-3.92l-87.1-78.53v69.97c0,3.91-1.1,7.02-3.3,9.3-2.2,2.28-5.34,3.42-9.42,3.42-3.75,0-6.77-1.14-9.05-3.42-2.29-2.28-3.43-5.38-3.43-9.3V61.45c0-3.75,1.14-6.81,3.43-9.18,2.28-2.36,5.3-3.55,9.05-3.55s7.01,1.14,9.29,3.42c2.28,2.29,3.43,5.38,3.43,9.3v67.04l83.43-76.09c2.28-2.28,4.97-3.42,8.07-3.42s5.79,1.14,8.07,3.42c2.28,2.29,3.43,4.9,3.43,7.83,0,3.1-1.39,5.96-4.16,8.56l-72.91,65.08,77.31,69.48c2.77,2.61,4.16,5.47,4.16,8.56Z" style="fill:#f2f2f2;"/></svg>