<?xml version="1.0" encoding="UTF-8"?><svg id="uuid-8d4b6dea-6c14-4c0e-8c9d-c9c23b10b0a7" xmlns="http://www.w3.org/2000/svg" viewBox="0 0 2000 2000"><path d="M825.08,1237c-1.91,0-3.84-.34-5.7-1.04-6.29-2.37-10.45-8.39-10.45-15.11v-100.46h-12.02s-.07.01-.11.01c-17.3,0-33.57-6.72-45.83-18.94-12.28-12.24-19.06-28.54-19.09-45.88l-.37-226.88c-.03-17.34,6.7-33.66,18.94-45.94,12.24-12.28,28.54-19.06,45.88-19.09l406.74-.66h.11c35.75,0,64.87,29.06,64.93,64.82l.37,226.88c.03,17.34-6.7,33.66-18.94,45.94-12.24,12.29-30.54,19.71-45.88,19.71h-281.09c-6.33,0-12.09-3.39-14.7-9.17-2.63-5.79-1.61-12.58,2.59-17.35l122.49-139.05-111.2-.05c-8.92,0-16.15-7.24-16.14-16.15,0-8.92,7.23-16.14,16.15-16.14h0l146.92.07c6.34,0,12.1,3.72,14.71,9.5,2.61,5.78,1.59,12.56-2.6,17.32l-122.37,138.92,245.16-.81c8.74-.01,16.93-3.42,23.09-9.6,6.15-6.17,9.53-14.37,9.52-23.09l-.37-226.88c-.03-17.97-14.67-32.58-32.63-32.58h-.05l-406.74.66c-8.72.01-16.91,3.42-23.06,9.6-6.15,6.17-9.54,14.37-9.52,23.09l.37,226.88c.01,8.72,3.42,16.91,9.59,23.06,6.16,6.14,14.34,9.52,23.04,9.52h.05l28.2-.03h.02c4.28,0,8.38,1.7,11.41,4.72,3.03,3.03,4.74,7.14,4.74,11.42v73.85l33.33-37.86c5.89-6.69,16.09-7.34,22.79-1.45,6.69,5.89,7.34,16.1,1.45,22.79l-61.6,69.97c-3.13,3.55-7.57,5.48-12.12,5.48Z" style="fill:#121212;"/></svg>