<?xml version="1.0" encoding="UTF-8"?><svg id="uuid-1b40954f-a75b-4508-a775-a545772711c7" xmlns="http://www.w3.org/2000/svg" xmlns:xlink="http://www.w3.org/1999/xlink" viewBox="0 0 1237 1237"><defs><linearGradient id="uuid-fd44d352-04df-4add-b27b-0542f15743e1" x1="142.71" y1="618.5" x2="1094.29" y2="618.5" gradientUnits="userSpaceOnUse"><stop offset="0" stop-color="#e5293b"/><stop offset="1" stop-color="#be1e67"/></linearGradient></defs><rect x=".5" y=".5" width="1236" height="1236" rx="220.82" ry="220.82" style="fill:#fff;"/><path d="M308.52,1038.5c-3.39,0-6.81-.6-10.1-1.84-11.14-4.2-18.51-14.87-18.51-26.77v-178.04l-21.3.03h-.19c-30.65,0-59.49-11.92-81.21-33.57-21.77-21.7-33.78-50.57-33.83-81.31l-.66-402.06c-.05-30.74,11.87-59.65,33.57-81.42,21.7-21.77,50.57-33.78,81.31-33.84l720.8-1.18h.19c63.36,0,114.96,51.49,115.07,114.88l.65,402.06c.05,30.73-11.87,59.65-33.56,81.42-21.7,21.77-54.12,34.94-81.31,34.94h-498.13c-11.23,0-21.42-6.02-26.06-16.24-4.66-10.25-2.86-22.29,4.59-30.74l217.07-246.43-197.06-.09c-15.8,0-28.61-12.82-28.6-28.63,0-15.8,12.82-28.6,28.62-28.6h.01l260.36.12c11.24,0,21.44,6.6,26.07,16.84,4.63,10.25,2.82,22.25-4.61,30.69l-216.86,246.18,434.46-1.43c15.49-.03,30.01-6.07,40.91-17.01,10.91-10.94,16.9-25.47,16.87-40.92l-.65-402.06c-.06-31.85-25.99-57.74-57.83-57.74h-.09l-720.8,1.18c-15.45.03-29.96,6.07-40.86,17.01-10.91,10.94-16.9,25.47-16.87,40.92l.66,402.06c.03,15.45,6.07,29.96,17,40.87,10.92,10.88,25.41,16.87,40.83,16.87h.09l49.97-.06h.03c7.58,0,14.86,3.01,20.22,8.37,5.37,5.37,8.39,12.65,8.39,20.25v130.87l59.06-67.09c10.44-11.86,28.52-13.01,40.39-2.57,11.86,10.44,13.01,28.53,2.57,40.39l-109.16,124c-5.54,6.29-13.42,9.71-21.48,9.71Z" style="fill:url(#uuid-fd44d352-04df-4add-b27b-0542f15743e1);"/></svg>