<?xml version="1.0" encoding="UTF-8"?><svg id="uuid-d3c798db-b8eb-467d-b562-f222c4efac9e" xmlns="http://www.w3.org/2000/svg" xmlns:xlink="http://www.w3.org/1999/xlink" viewBox="0 0 1996 1764"><defs><linearGradient id="uuid-fded7e32-0738-4b65-a8a3-f66f9680d6e8" x1="2" y1="882" x2="1994" y2="882" gradientUnits="userSpaceOnUse"><stop offset="0" stop-color="#e5293b"/><stop offset="1" stop-color="#be1e67"/></linearGradient></defs><path d="M349.1,1761.21c-7.09,0-14.25-1.26-21.14-3.86-23.32-8.8-38.75-31.12-38.75-56.04v-372.69l-44.59.05h-.4c-64.16,0-124.53-24.95-170.01-70.27-45.57-45.42-70.71-105.87-70.82-170.21L2,246.53c-.11-64.34,24.85-124.86,70.27-170.44C117.69,30.52,178.14,5.37,242.48,5.26l1508.89-2.47h.4c132.63,0,240.65,107.79,240.87,240.48l1.37,841.66c.11,64.33-24.84,124.86-70.26,170.43-45.42,45.58-113.28,73.14-170.21,73.14H710.77c-23.5,0-44.84-12.59-54.55-34-9.75-21.46-5.98-46.66,9.6-64.35l454.41-515.86-412.51-.19c-33.08-.02-59.89-26.85-59.88-59.93.02-33.07,26.83-59.88,59.9-59.88h.03l545.03.25c23.53,0,44.88,13.81,54.57,35.25,9.68,21.46,5.91,46.58-9.65,64.25l-453.97,515.34,909.47-3c32.44-.05,62.82-12.7,85.64-35.6,22.83-22.9,35.37-53.32,35.32-85.66l-1.37-841.66c-.12-66.68-54.41-120.87-121.07-120.87h-.2l-1508.89,2.47c-32.34.05-62.72,12.7-85.54,35.6-22.83,22.9-35.38,53.32-35.32,85.66l1.38,841.66c.05,32.34,12.7,62.72,35.59,85.55,22.86,22.78,53.2,35.32,85.46,35.32h.2l104.6-.13h.07c15.88,0,31.1,6.3,42.34,17.52,11.25,11.23,17.57,26.48,17.57,42.38v273.97l123.64-140.45c21.86-24.82,59.71-27.23,84.54-5.38,24.83,21.86,27.24,59.71,5.38,84.54l-228.51,259.57c-11.6,13.18-28.09,20.32-44.97,20.32Z" style="fill:url(#uuid-fded7e32-0738-4b65-a8a3-f66f9680d6e8);"/></svg>