<svg width="192" height="192" viewBox="0 0 192 192" fill="none" xmlns="http://www.w3.org/2000/svg">
<rect width="192" height="192" rx="32" fill="url(#paint0_linear_89_45)"/>
<path d="M12 40.5795C12 28.1092 22.7794 18 36.0764 18H155.924C169.221 18 180 28.1092 180 40.5795V136.919C180 149.389 169.221 159.498 155.924 159.498L113.656 160H74.3885C72.7317 160 71.3885 158.657 71.3885 157V145H154.834C160.449 145 165 140.732 165 135.466V42.5336C165 37.2683 160.449 33 154.834 33H38C32.3857 33 27.8344 37.2683 27.8344 42.5336V135.968C27.8344 141.233 32.43 145.548 38.0443 145.548H40.0698C43.3835 145.548 46.0698 148.234 46.0698 151.548V159.498H36.0764C22.7794 159.498 12 149.389 12 136.919V40.5795Z" fill="#F2F2F2"/>
<path d="M122.029 145.734L122.031 145.734C124.27 145.727 125.858 146.314 126.894 147.409C127.935 148.51 128.5 150.211 128.5 152.606C128.5 155.001 127.935 156.704 126.894 157.809C125.857 158.908 124.268 159.5 122.029 159.5H71.4407C69.2037 159.5 67.6158 158.908 66.5803 157.809C65.5395 156.704 64.975 155.001 64.975 152.606C64.975 150.527 65.4296 148.986 66.2326 147.886L66.2357 147.882L108.222 89.0515L108.786 88.2611H107.815L69.9708 88.2611L69.9688 88.2611C67.7299 88.2697 66.1414 87.6835 65.1059 86.589C64.065 85.489 63.5 83.7888 63.5 81.3939C63.5 78.9993 64.065 77.2962 65.1065 76.1915C66.1428 75.0922 67.732 74.5 69.9708 74.5H120.564C122.803 74.5 124.392 75.0922 125.429 76.1915C126.47 77.2962 127.035 78.9993 127.035 81.3939C127.035 83.4726 126.581 85.0087 125.778 86.1088L125.778 86.1088L125.774 86.1136L83.8989 144.944L83.3367 145.734H84.3063H122.029Z" fill="#F2F2F2" stroke="#F2F2F2"/>
<rect x="34" y="147" width="12" height="35" rx="6" fill="#F2F2F2"/>
<rect x="53.4814" y="155" width="12" height="30.3796" rx="6" transform="rotate(45 53.4814 155)" fill="#F2F2F2"/>
<defs>
<linearGradient id="paint0_linear_89_45" x1="65.1845" y1="90.5433" x2="120.888" y2="90.5433" gradientUnits="userSpaceOnUse">
<stop stop-color="#E5293B"/>
<stop offset="1" stop-color="#BE1E67"/>
</linearGradient>
</defs>
</svg>
