<svg id="Calque_1" data-name="Calque 1" xmlns="http://www.w3.org/2000/svg" viewBox="0 0 1920 1080"><defs><style>.cls-1{fill:#fff;}</style></defs><path class="cls-1" d="M977.33,74a1.57,1.57,0,0,0-3.1.49l.17,1.1a28.42,28.42,0,0,0-29.86.36,2.09,2.09,0,0,0,2.24,3.53A24.3,24.3,0,0,1,971.94,79l-1.11.18a1.56,1.56,0,0,0,.25,3.11,1.1,1.1,0,0,0,.25,0l5.58-.88a1.57,1.57,0,0,0,1.3-1.8Z"/><path class="cls-1" d="M972.73,120.49a24.29,24.29,0,0,1-26,0,2.09,2.09,0,0,0-2.24,3.53A28.44,28.44,0,0,0,975,124a2.09,2.09,0,0,0-2.25-3.53Z"/><path class="cls-1" d="M938.62,84.14a2.1,2.1,0,0,0-2.89.64,28.47,28.47,0,0,0,0,30.41,2.09,2.09,0,1,0,3.54-2.24,24.26,24.26,0,0,1,0-25.93A2.09,2.09,0,0,0,938.62,84.14Z"/><path class="cls-1" d="M980.88,84.11a2.09,2.09,0,0,0-.65,2.89,24.26,24.26,0,0,1,0,26,2.08,2.08,0,0,0,.65,2.88,2.05,2.05,0,0,0,1.11.33,2.08,2.08,0,0,0,1.77-1,28.47,28.47,0,0,0,0-30.47A2.09,2.09,0,0,0,980.88,84.11Z"/><path class="cls-1" d="M769.21,64.08a4.16,4.16,0,0,0,0,5.88l0,0-10.69,39.83h0L736,87.32a4.16,4.16,0,1,0-6.94,1.77l0,0L718.4,129a4.16,4.16,0,1,0,5.22,4,4.13,4.13,0,0,0-1.19-2.91L733.1,90.33l22.47,22.47a4.57,4.57,0,0,0-.13,1,4.16,4.16,0,1,0,7.14-2.91L773.29,71A4,4,0,0,0,775.1,70a4.16,4.16,0,0,0-5.89-5.88Z"/><path class="cls-1" d="M1815.61,61.62a2.1,2.1,0,0,0-2.09,2.09v72.58a2.09,2.09,0,0,0,4.18,0V63.71A2.09,2.09,0,0,0,1815.61,61.62Z"/><path class="cls-1" d="M1838.21,83.64a2.09,2.09,0,0,0-3,3L1848.66,100l-13.41,13.41a2.09,2.09,0,0,0,3,3l14.89-14.89a2.1,2.1,0,0,0,0-3Z"/><path class="cls-1" d="M1795.87,83.64a2.09,2.09,0,0,0-3,0L1778,98.53a2.1,2.1,0,0,0,0,3l14.89,14.89a2.1,2.1,0,0,0,3,0,2.11,2.11,0,0,0,0-3L1782.45,100l13.42-13.41A2.11,2.11,0,0,0,1795.87,83.64Z"/><path class="cls-1" d="M1612.8,96.58a4,4,0,1,0,5.42,1.45A4,4,0,0,0,1612.8,96.58Z"/><path class="cls-1" d="M1630,129.78V77.48a15.26,15.26,0,0,0-30.51,0v45a11.08,11.08,0,0,1-22.15,0V70.23a4,4,0,1,0-4.18,0v52.25a15.26,15.26,0,0,0,30.51,0v-45a11.08,11.08,0,0,1,22.15,0v52.31a4,4,0,1,0,4.18,0Z"/><path class="cls-1" d="M558.21,133.48H505.56a2.09,2.09,0,1,0,0,4.18h52.65a2.09,2.09,0,0,0,0-4.18Z"/><path class="cls-1" d="M558.21,88.7H536.9L552,73.63a2.09,2.09,0,0,0-3-3L534,85.74V64.43a2.09,2.09,0,1,0-4.18,0V85.74L514.7,70.67a2.09,2.09,0,0,0-3,3L526.81,88.7H505.5a2.09,2.09,0,1,0,0,4.18h21.31L511.74,108a2.1,2.1,0,0,0,1.48,3.57,2.1,2.1,0,0,0,1.48-.62l15.07-15.06v21.3a2.09,2.09,0,1,0,4.18,0V95.84L549,110.9a2.08,2.08,0,0,0,3,0,2.08,2.08,0,0,0,0-3L536.9,92.88h21.31a2.09,2.09,0,0,0,0-4.18Z"/><path class="cls-1" d="M1417.2,78.86a2.09,2.09,0,0,0-2.77,3.13,24.07,24.07,0,0,1,0,36,2.08,2.08,0,0,0-.18,3,2.06,2.06,0,0,0,1.56.71,2.11,2.11,0,0,0,1.39-.52,28.26,28.26,0,0,0,0-42.3Z"/><path class="cls-1" d="M1406.1,122.81a24.05,24.05,0,0,1-13.39.54,28.27,28.27,0,0,0,11.79-17.7,2.09,2.09,0,1,0-4.09-.84,24.11,24.11,0,0,1-11.54,16c-.4.23-.8.45-1.21.65-.41-.2-.81-.42-1.21-.65a24.08,24.08,0,0,1-11.54-16,2.09,2.09,0,0,0-4.1.84,28.27,28.27,0,0,0,11.79,17.7,24,24,0,0,1-13.38-.54,2.09,2.09,0,0,0-1.33,4,28.32,28.32,0,0,0,19.77-.7,28.29,28.29,0,0,0,19.76.7,2.09,2.09,0,0,0-1.32-4Z"/><path class="cls-1" d="M1369.22,77.18a24.08,24.08,0,0,1,13.38-.53,28.26,28.26,0,0,0-11.8,17.71,2.09,2.09,0,0,0,1.63,2.47,2,2,0,0,0,.42,0,2.09,2.09,0,0,0,2.05-1.67,24.41,24.41,0,0,1,2.74-7.23,24,24,0,0,1,10-9.45,24.11,24.11,0,0,1,12.76,16.68,2.08,2.08,0,0,0,2,1.67,2,2,0,0,0,.42,0,2.09,2.09,0,0,0,1.63-2.47,28.26,28.26,0,0,0-11.8-17.71,24.08,24.08,0,0,1,13.38.53,2.09,2.09,0,0,0,1.33-4,28.31,28.31,0,0,0-18.81.34c-.32.11-.64.24-.95.37-.32-.13-.63-.26-1-.37a28.33,28.33,0,0,0-18.82-.34,2.09,2.09,0,1,0,1.33,4Z"/><path class="cls-1" d="M1360.9,118a24.07,24.07,0,0,1,0-36,2.09,2.09,0,1,0-2.77-3.13,28.27,28.27,0,0,0,0,42.3,2.09,2.09,0,0,0,2.77-3.14Z"/><path class="cls-1" d="M130.33,133.38H77.59a2.09,2.09,0,1,0,0,4.18h52.74a2.09,2.09,0,0,0,0-4.18Z"/><path class="cls-1" d="M79.05,91.16l22.81-21.75V96.08a2.1,2.1,0,0,0,0,.43,4,4,0,1,0,4.09,0,2.1,2.1,0,0,0,0-.43V69.54l22.78,22.53a2.07,2.07,0,0,0,1.47.61,2.09,2.09,0,0,0,1.47-3.58L105.43,63a2.1,2.1,0,0,0-2.92,0L76.17,88.13a2.09,2.09,0,0,0,2.88,3Z"/><path class="cls-1" d="M346.31,129.61V113.19a15.29,15.29,0,0,0-15.26-15.27H320V70.39a4.06,4.06,0,1,0-4.19,0V97.92h-11a15.29,15.29,0,0,0-15.27,15.27v16.38a4.06,4.06,0,1,0,4.18,0V113.19a11.1,11.1,0,0,1,11.09-11.09h11v27.47a4.06,4.06,0,1,0,4.19,0V102.1h11.05a11.1,11.1,0,0,1,11.08,11.09v16.42a4.05,4.05,0,1,0,4.18,0Z"/><path class="cls-1" d="M1204.48,113.31a3.86,3.86,0,0,0-3.7-.09l-22-12.68a5.44,5.44,0,0,0,0-.57c0-.17,0-.34,0-.51l22-12.68a3.86,3.86,0,1,0-2.09-3.62l-21.93,12.67a5.12,5.12,0,0,0-1-.56V69.94a3.86,3.86,0,1,0-4.18,0V95.27a5.12,5.12,0,0,0-1,.56l-21.94-12.67a3.86,3.86,0,1,0-2.09,3.62l22,12.68a4.36,4.36,0,0,0,0,.51,3.64,3.64,0,0,0,0,.57l-22,12.68a3.87,3.87,0,1,0,2.09,3.62l22-12.69a5.38,5.38,0,0,0,.91.52v25.39a3.86,3.86,0,1,0,4.18,0V104.67a6.29,6.29,0,0,0,.91-.52l22,12.69a3.86,3.86,0,1,0,5.79-3.53Z"/><path class="cls-1" d="M121.53,250a1.57,1.57,0,0,0-3.1.49l.17,1.1a28.42,28.42,0,0,0-29.86.36A2.09,2.09,0,0,0,91,255.51a24.28,24.28,0,0,1,25.15-.49l-1.1.18a1.56,1.56,0,0,0,.25,3.11,1,1,0,0,0,.24,0l5.59-.88a1.58,1.58,0,0,0,1.3-1.8Z"/><path class="cls-1" d="M116.93,296.49a24.29,24.29,0,0,1-26,0A2.09,2.09,0,0,0,88.71,300a28.42,28.42,0,0,0,30.46,0,2.09,2.09,0,1,0-2.24-3.53Z"/><path class="cls-1" d="M82.82,260.14a2.1,2.1,0,0,0-2.89.64,28.47,28.47,0,0,0,0,30.41A2.09,2.09,0,1,0,83.45,289a24.26,24.26,0,0,1,0-25.93A2.09,2.09,0,0,0,82.82,260.14Z"/><path class="cls-1" d="M125.07,260.11a2.1,2.1,0,0,0-.64,2.89,24.26,24.26,0,0,1,0,26,2.09,2.09,0,0,0,.64,2.88,2.09,2.09,0,0,0,2.89-.64,28.47,28.47,0,0,0,0-30.47A2.1,2.1,0,0,0,125.07,260.11Z"/><path class="cls-1" d="M1839,240.08a4.16,4.16,0,0,0,0,5.88l0,0-10.69,39.83h0l-22.51-22.51a4.16,4.16,0,1,0-6.94,1.77l0,0L1788.16,305a4.16,4.16,0,1,0,4,1.12l10.66-39.74,22.47,22.47a4.57,4.57,0,0,0-.13,1.05,4.17,4.17,0,1,0,7.14-2.91L1843.05,247a4.06,4.06,0,0,0,1.8-1.06,4.16,4.16,0,0,0-5.89-5.88Z"/><path class="cls-1" d="M959.8,237.62a2.1,2.1,0,0,0-2.09,2.09v72.58a2.09,2.09,0,0,0,4.18,0V239.71A2.09,2.09,0,0,0,959.8,237.62Z"/><path class="cls-1" d="M982.4,259.64a2.09,2.09,0,0,0-3,3L992.85,276l-13.41,13.41a2.09,2.09,0,0,0,3,3l14.89-14.89a2.1,2.1,0,0,0,0-3Z"/><path class="cls-1" d="M940.06,259.64a2.09,2.09,0,0,0-3,0l-14.89,14.89a2.1,2.1,0,0,0,0,3l14.89,14.89a2.1,2.1,0,0,0,3,0,2.11,2.11,0,0,0,0-3L926.64,276l13.42-13.41A2.11,2.11,0,0,0,940.06,259.64Z"/><path class="cls-1" d="M757,272.58a4,4,0,1,0,5.42,1.45A4,4,0,0,0,757,272.58Z"/><path class="cls-1" d="M774.23,305.78v-52.3a15.26,15.26,0,0,0-30.51,0v45a11.08,11.08,0,0,1-22.15,0V246.23a4,4,0,1,0-5.56-1.37,4.05,4.05,0,0,0,1.38,1.41v52.25a15.26,15.26,0,0,0,30.51,0v-45a11.08,11.08,0,0,1,22.15,0v52.31a4,4,0,1,0,5.54,1.39A3.89,3.89,0,0,0,774.23,305.78Z"/><path class="cls-1" d="M1628,309.48h-52.66a2.09,2.09,0,1,0,0,4.18H1628a2.09,2.09,0,0,0,0-4.18Z"/><path class="cls-1" d="M1628,264.7h-21.31l15.06-15.07a2.09,2.09,0,0,0-3-3l-15.07,15.07V240.43a2.09,2.09,0,0,0-4.18,0v21.31l-15.07-15.07a2.09,2.09,0,1,0-3,3l15.07,15.07h-21.31a2.09,2.09,0,1,0,0,4.18h21.31L1581.5,284a2.09,2.09,0,1,0,3,2.95l15.07-15.06v21.3a2.09,2.09,0,0,0,4.18,0v-21.3l15.07,15.06a2.09,2.09,0,0,0,3-2.95l-15.07-15.07H1628a2.09,2.09,0,0,0,0-4.18Z"/><path class="cls-1" d="M561.39,254.86a2.09,2.09,0,1,0-2.77,3.13,24.07,24.07,0,0,1,0,36,2.09,2.09,0,0,0,2.77,3.14,28.24,28.24,0,0,0,0-42.3Z"/><path class="cls-1" d="M550.29,298.81a24,24,0,0,1-13.38.54,28.27,28.27,0,0,0,11.79-17.7,2.09,2.09,0,1,0-4.1-.84,24.08,24.08,0,0,1-11.54,16c-.4.23-.8.45-1.21.65-.41-.2-.81-.42-1.21-.65a24.11,24.11,0,0,1-11.54-16,2.09,2.09,0,1,0-4.09.84,28.23,28.23,0,0,0,11.79,17.7,24.05,24.05,0,0,1-13.39-.54,2.09,2.09,0,1,0-1.32,4,28.29,28.29,0,0,0,19.76-.7,28.32,28.32,0,0,0,19.77.7,2.09,2.09,0,0,0-1.33-4Z"/><path class="cls-1" d="M513.42,253.18a24.08,24.08,0,0,1,13.38-.53A28.26,28.26,0,0,0,515,270.36a2.09,2.09,0,0,0,1.63,2.47,2,2,0,0,0,.42,0,2.08,2.08,0,0,0,2-1.67,24.11,24.11,0,0,1,12.76-16.68,24.11,24.11,0,0,1,12.76,16.68,2.09,2.09,0,0,0,2,1.67,2,2,0,0,0,.42,0,2.09,2.09,0,0,0,1.63-2.47,28.26,28.26,0,0,0-11.8-17.71,24.08,24.08,0,0,1,13.38.53,2.09,2.09,0,0,0,1.33-4,28.33,28.33,0,0,0-18.82.34c-.32.11-.63.24-.95.37-.31-.13-.63-.26-1-.37a28.31,28.31,0,0,0-18.81-.34,2.09,2.09,0,0,0,1.33,4Z"/><path class="cls-1" d="M505.09,294a24.07,24.07,0,0,1,0-36,2.09,2.09,0,1,0-2.77-3.13,28.27,28.27,0,0,0,0,42.3,2.09,2.09,0,0,0,2.77-3.14Z"/><path class="cls-1" d="M1200.07,309.38h-52.74a2.09,2.09,0,1,0,0,4.18h52.74a2.09,2.09,0,1,0,0-4.18Z"/><path class="cls-1" d="M1148.79,267.16l22.82-21.75v26.67a2.09,2.09,0,0,0,0,.43,4,4,0,1,0,4.09,0,2.1,2.1,0,0,0,0-.43V245.54l22.78,22.53a2.07,2.07,0,0,0,1.47.61,2.09,2.09,0,0,0,1.47-3.58L1175.17,239a2.1,2.1,0,0,0-2.92,0l-26.34,25.12a2.09,2.09,0,0,0,2.88,3Z"/><path class="cls-1" d="M1416.05,305.61V289.19a15.29,15.29,0,0,0-15.27-15.27h-11V246.39a4.06,4.06,0,1,0-4.19,0v27.53h-11a15.29,15.29,0,0,0-15.26,15.27v16.38a4.05,4.05,0,1,0,4.18,0V289.19a11.1,11.1,0,0,1,11.08-11.09h11v27.47a4.06,4.06,0,1,0,4.19,0V278.1h11a11.1,11.1,0,0,1,11.09,11.09v16.42a4.05,4.05,0,1,0,4.18,0Z"/><path class="cls-1" d="M348.68,289.31a3.86,3.86,0,0,0-3.7-.09l-22-12.68a5.44,5.44,0,0,0,0-.57,4.36,4.36,0,0,0,0-.51l22-12.68a3.86,3.86,0,1,0-2.09-3.62L321,271.83a4.82,4.82,0,0,0-1-.56V245.94a3.86,3.86,0,1,0-4.18,0v25.33a4.75,4.75,0,0,0-.95.56l-21.94-12.67a3.86,3.86,0,1,0-2.09,3.62l22,12.68a4.36,4.36,0,0,0,0,.51,5.44,5.44,0,0,0,0,.57l-22,12.68a3.86,3.86,0,1,0,2.09,3.62l22-12.69a6.29,6.29,0,0,0,.91.52v25.39a3.86,3.86,0,1,0,4.18,0V280.67a5.38,5.38,0,0,0,.91-.52l22,12.69a3.86,3.86,0,1,0,5.79-3.53Z"/><path class="cls-1" d="M1405.12,426a1.56,1.56,0,0,0-3.09.49l.17,1.1a28.44,28.44,0,0,0-29.87.36,2.09,2.09,0,0,0,2.25,3.53,24.28,24.28,0,0,1,25.15-.49l-1.1.18a1.56,1.56,0,0,0,.24,3.11,1,1,0,0,0,.25,0l5.58-.88a1.58,1.58,0,0,0,1.31-1.8Z"/><path class="cls-1" d="M1400.53,472.49a24.29,24.29,0,0,1-26,0,2.09,2.09,0,0,0-2.25,3.53,28.44,28.44,0,0,0,30.47,0,2.09,2.09,0,1,0-2.24-3.53Z"/><path class="cls-1" d="M1366.41,436.14a2.09,2.09,0,0,0-2.88.64,28.47,28.47,0,0,0,0,30.41A2.09,2.09,0,1,0,1367,465a24.29,24.29,0,0,1,0-25.93A2.08,2.08,0,0,0,1366.41,436.14Z"/><path class="cls-1" d="M1408.67,436.11A2.1,2.1,0,0,0,1408,439a24.26,24.26,0,0,1,0,26,2.09,2.09,0,0,0,.64,2.88,2.09,2.09,0,0,0,2.89-.64,28.47,28.47,0,0,0,0-30.47A2.1,2.1,0,0,0,1408.67,436.11Z"/><path class="cls-1" d="M1197,416.08a4.15,4.15,0,0,0,0,5.88l0,0-10.69,39.83h0l-22.51-22.51a4.16,4.16,0,1,0-6.94,1.77l0,0L1146.15,481a4.16,4.16,0,1,0,4,1.12l10.67-39.74,22.47,22.47a4.08,4.08,0,0,0-.13,1.05,4.16,4.16,0,1,0,7.13-2.91L1201,423a4.06,4.06,0,0,0,1.8-1.06,4.16,4.16,0,1,0-5.88-5.88Z"/><path class="cls-1" d="M103.59,413.62a2.1,2.1,0,0,0-2.09,2.09v72.58a2.09,2.09,0,1,0,4.18,0V415.71A2.09,2.09,0,0,0,103.59,413.62Z"/><path class="cls-1" d="M126.19,435.64a2.09,2.09,0,0,0-3,3L136.65,452l-13.42,13.41a2.09,2.09,0,0,0,1.48,3.57,2.07,2.07,0,0,0,1.48-.61l14.89-14.89a2.1,2.1,0,0,0,0-3Z"/><path class="cls-1" d="M83.85,435.64a2.09,2.09,0,0,0-3,0L66,450.53a2.1,2.1,0,0,0,0,3l14.89,14.89a2.09,2.09,0,0,0,3-3L70.44,452,83.85,438.6A2.09,2.09,0,0,0,83.85,435.64Z"/><path class="cls-1" d="M328.73,448.58a4,4,0,1,0,5.43,1.45A4,4,0,0,0,328.73,448.58Z"/><path class="cls-1" d="M346,481.78v-52.3a15.26,15.26,0,0,0-30.51,0v45a11.08,11.08,0,0,1-22.15,0V422.23a4,4,0,1,0-5.56-1.37,4.05,4.05,0,0,0,1.38,1.41v52.25a15.26,15.26,0,0,0,30.51,0v-45a11.08,11.08,0,0,1,22.15,0v52.31a4,4,0,1,0,5.54,1.39A3.81,3.81,0,0,0,346,481.78Z"/><path class="cls-1" d="M985.91,485.48H933.25a2.09,2.09,0,0,0,0,4.18h52.66a2.09,2.09,0,1,0,0-4.18Z"/><path class="cls-1" d="M985.91,440.7H964.6l15.06-15.07a2.09,2.09,0,0,0-2.95-3l-15.07,15.07V416.43a2.09,2.09,0,0,0-4.18,0v21.31l-15.07-15.07a2.09,2.09,0,1,0-3,3L954.5,440.7H933.19a2.09,2.09,0,0,0,0,4.18H954.5L939.43,460a2.09,2.09,0,1,0,3,2.95l15.07-15.06v21.3a2.09,2.09,0,0,0,4.18,0v-21.3l15.07,15.06a2.08,2.08,0,0,0,1.48.62,2.1,2.1,0,0,0,1.47-3.57L964.6,444.88h21.31a2.09,2.09,0,1,0,0-4.18Z"/><path class="cls-1" d="M1845.1,430.86a2.09,2.09,0,1,0-2.77,3.13,24.07,24.07,0,0,1,0,36,2.09,2.09,0,0,0,2.77,3.14,28.26,28.26,0,0,0,0-42.3Z"/><path class="cls-1" d="M1834,474.81a24.05,24.05,0,0,1-13.39.54,28.23,28.23,0,0,0,11.79-17.7,2.09,2.09,0,1,0-4.09-.84,24.11,24.11,0,0,1-11.54,16c-.4.23-.8.45-1.21.65-.41-.2-.81-.42-1.21-.65a24.08,24.08,0,0,1-11.54-16,2.09,2.09,0,0,0-4.1.84,28.27,28.27,0,0,0,11.79,17.7,24,24,0,0,1-13.38-.54,2.09,2.09,0,0,0-1.33,4,28.32,28.32,0,0,0,19.77-.7,28.29,28.29,0,0,0,19.76.7,2.09,2.09,0,1,0-1.32-4Z"/><path class="cls-1" d="M1797.12,429.18a24.08,24.08,0,0,1,13.38-.53,28.26,28.26,0,0,0-11.8,17.71,2.09,2.09,0,0,0,1.63,2.47,2,2,0,0,0,.42,0,2.09,2.09,0,0,0,2-1.67,24.11,24.11,0,0,1,12.76-16.68,24.11,24.11,0,0,1,12.76,16.68,2.08,2.08,0,0,0,2,1.67,2,2,0,0,0,.42,0,2.09,2.09,0,0,0,1.63-2.47,28.26,28.26,0,0,0-11.8-17.71,24.08,24.08,0,0,1,13.38.53,2.09,2.09,0,0,0,1.33-4,28.31,28.31,0,0,0-18.81.34c-.32.11-.64.24-1,.37-.32-.13-.63-.26-1-.37a28.33,28.33,0,0,0-18.82-.34,2.09,2.09,0,0,0,1.33,4Z"/><path class="cls-1" d="M1788.8,470a24.07,24.07,0,0,1,0-36,2.09,2.09,0,1,0-2.77-3.13,28.27,28.27,0,0,0,0,42.3,2.09,2.09,0,0,0,2.77-3.14Z"/><path class="cls-1" d="M557.92,485.38H505.18a2.09,2.09,0,1,0,0,4.18h52.74a2.09,2.09,0,0,0,0-4.18Z"/><path class="cls-1" d="M506.64,443.16l22.81-21.75v26.67a2.1,2.1,0,0,0,0,.43,4,4,0,1,0,4.09,0,2.1,2.1,0,0,0,0-.43V421.54l22.78,22.53a2.07,2.07,0,0,0,1.47.61,2.09,2.09,0,0,0,1.47-3.58L533,415a2.1,2.1,0,0,0-2.92,0l-26.34,25.12a2.09,2.09,0,0,0,2.88,3Z"/><path class="cls-1" d="M774,481.61V465.19a15.29,15.29,0,0,0-15.26-15.27H747.64V422.39a4.06,4.06,0,1,0-4.18,0v27.53H732.41a15.29,15.29,0,0,0-15.27,15.27v16.38a4.06,4.06,0,1,0,4.18,0V465.19a11.11,11.11,0,0,1,11.09-11.09h11.05v27.47a4.05,4.05,0,1,0,4.18,0V454.1h11.05a11.1,11.1,0,0,1,11.08,11.09v16.42a4.06,4.06,0,1,0,4.18,0Z"/><path class="cls-1" d="M1632.33,465.31a3.86,3.86,0,0,0-3.7-.09l-22-12.68a5.44,5.44,0,0,0,0-.57,4.36,4.36,0,0,0,0-.51l22-12.68a3.86,3.86,0,1,0-2.09-3.62l-21.94,12.67a4.75,4.75,0,0,0-.95-.56V421.94a3.87,3.87,0,1,0-4.18,0v25.33a4.82,4.82,0,0,0-1,.56l-21.94-12.67a3.86,3.86,0,1,0-2.09,3.62l22,12.68a4.36,4.36,0,0,0,0,.51,5.44,5.44,0,0,0,0,.57l-22,12.68a3.86,3.86,0,1,0,2.09,3.62l22-12.69a5.38,5.38,0,0,0,.91.52v25.39a3.86,3.86,0,1,0,4.18,0V456.67a6.29,6.29,0,0,0,.91-.52l22,12.69a3.86,3.86,0,1,0,5.79-3.53Z"/><path class="cls-1" d="M977.32,602a1.57,1.57,0,0,0-3.1.49l.17,1.1a28.42,28.42,0,0,0-29.86.36,2.09,2.09,0,0,0,2.24,3.53,24.3,24.3,0,0,1,25.16-.49l-1.1.18a1.56,1.56,0,0,0,.24,3.11,1.1,1.1,0,0,0,.25,0l5.58-.88a1.57,1.57,0,0,0,1.3-1.8Z"/><path class="cls-1" d="M972.73,648.49a24.31,24.31,0,0,1-26,0A2.09,2.09,0,0,0,944.5,652,28.44,28.44,0,0,0,975,652a2.09,2.09,0,0,0-2.24-3.53Z"/><path class="cls-1" d="M938.61,612.14a2.1,2.1,0,0,0-2.89.64,28.47,28.47,0,0,0,0,30.41,2.09,2.09,0,1,0,3.54-2.24,24.26,24.26,0,0,1,0-25.93A2.09,2.09,0,0,0,938.61,612.14Z"/><path class="cls-1" d="M980.87,612.11a2.09,2.09,0,0,0-.64,2.89,24.29,24.29,0,0,1,0,26,2.09,2.09,0,0,0,3.53,2.24,28.47,28.47,0,0,0,0-30.47A2.09,2.09,0,0,0,980.87,612.11Z"/><path class="cls-1" d="M769.21,592.08a4.15,4.15,0,0,0,0,5.88l0,0-10.7,39.83h0L736,615.32a4.16,4.16,0,1,0-6.94,1.77l0,0L718.4,657a4.16,4.16,0,1,0,4,1.12l10.67-39.74,22.47,22.47a4.09,4.09,0,0,0-.14,1.05,4.17,4.17,0,1,0,7.14-2.91L773.29,599a4.06,4.06,0,0,0,1.8-1.06,4.16,4.16,0,1,0-5.88-5.88Z"/><path class="cls-1" d="M1815.61,589.62a2.1,2.1,0,0,0-2.09,2.09v72.58a2.09,2.09,0,0,0,4.18,0V591.71A2.09,2.09,0,0,0,1815.61,589.62Z"/><path class="cls-1" d="M1838.21,611.64a2.09,2.09,0,0,0-3,3L1848.66,628l-13.41,13.41a2.09,2.09,0,0,0,3,3l14.89-14.89a2.1,2.1,0,0,0,0-3Z"/><path class="cls-1" d="M1795.87,611.64a2.09,2.09,0,0,0-3,0L1778,626.53a2.1,2.1,0,0,0,0,3l14.89,14.89a2.1,2.1,0,0,0,3,0,2.11,2.11,0,0,0,0-3L1782.45,628l13.42-13.41A2.11,2.11,0,0,0,1795.87,611.64Z"/><path class="cls-1" d="M1612.8,624.58a4,4,0,1,0,5.42,1.45A4,4,0,0,0,1612.8,624.58Z"/><path class="cls-1" d="M1630,657.78v-52.3a15.26,15.26,0,0,0-30.51,0v45a11.08,11.08,0,0,1-22.15,0V598.23a4,4,0,1,0-5.56-1.37,4.05,4.05,0,0,0,1.38,1.41v52.25a15.26,15.26,0,0,0,30.51,0v-45a11.08,11.08,0,0,1,22.15,0v52.31a4,4,0,1,0,5.54,1.39A3.89,3.89,0,0,0,1630,657.78Z"/><path class="cls-1" d="M558.21,661.48H505.56a2.09,2.09,0,1,0,0,4.18h52.65a2.09,2.09,0,0,0,0-4.18Z"/><path class="cls-1" d="M558.21,616.7H536.9L552,601.63a2.09,2.09,0,0,0-3-3l-15.07,15.07V592.43a2.09,2.09,0,0,0-4.18,0v21.31l-15.07-15.07a2.09,2.09,0,0,0-3,3L526.8,616.7H505.5a2.09,2.09,0,1,0,0,4.18h21.3L511.74,636a2.09,2.09,0,1,0,3,2.95l15.07-15.06v21.3a2.09,2.09,0,0,0,4.18,0v-21.3L549,638.9a2.09,2.09,0,0,0,3-2.95L536.9,620.88h21.31a2.09,2.09,0,1,0,0-4.18Z"/><path class="cls-1" d="M1417.19,606.86a2.09,2.09,0,0,0-2.77,3.13,24.08,24.08,0,0,1,4.87,30,23.78,23.78,0,0,1-4.89,6,2.09,2.09,0,0,0,1.39,3.66,2.07,2.07,0,0,0,1.38-.52,28.25,28.25,0,0,0,0-42.3Z"/><path class="cls-1" d="M1406.09,650.81a24.06,24.06,0,0,1-13.39.54,28.27,28.27,0,0,0,11.79-17.7,2.09,2.09,0,0,0-4.1-.84,24,24,0,0,1-11.54,16c-.39.23-.8.45-1.21.65-.4-.2-.81-.42-1.2-.65a24.09,24.09,0,0,1-11.55-16,2.09,2.09,0,1,0-4.09.84,28.27,28.27,0,0,0,11.79,17.7,24.06,24.06,0,0,1-13.39-.54,2.09,2.09,0,0,0-1.32,4,28.29,28.29,0,0,0,19.76-.7,28.32,28.32,0,0,0,19.77.7,2.09,2.09,0,0,0-1.32-4Z"/><path class="cls-1" d="M1369.21,605.18a24.08,24.08,0,0,1,13.38-.53,28.26,28.26,0,0,0-11.8,17.71,2.09,2.09,0,0,0,1.63,2.47,2,2,0,0,0,.42,0,2.1,2.1,0,0,0,2.05-1.67,24,24,0,0,1,12.75-16.68,24,24,0,0,1,12.76,16.68,2.09,2.09,0,0,0,2,1.67,2,2,0,0,0,.42,0,2.09,2.09,0,0,0,1.63-2.47,28.26,28.26,0,0,0-11.8-17.71,24.08,24.08,0,0,1,13.38.53,2.09,2.09,0,0,0,1.33-4,28.3,28.3,0,0,0-18.81.34c-.32.11-.64.24-1,.37-.31-.13-.63-.26-1-.37a28.3,28.3,0,0,0-18.81-.34,2.09,2.09,0,1,0,1.33,4Z"/><path class="cls-1" d="M1360.89,646a23.78,23.78,0,0,1-4.89-6,24,24,0,0,1,4.87-30,2.09,2.09,0,1,0-2.77-3.13,28.25,28.25,0,0,0-5.73,35.26,28.71,28.71,0,0,0,5.74,7,2.1,2.1,0,0,0,2.78-3.14Z"/><path class="cls-1" d="M130.33,661.38H77.59a2.09,2.09,0,1,0,0,4.18h52.74a2.09,2.09,0,0,0,0-4.18Z"/><path class="cls-1" d="M79.05,619.16l22.81-21.75v26.67a2.1,2.1,0,0,0,0,.43,4,4,0,1,0,4.09,0,2.1,2.1,0,0,0,0-.43V597.54l22.78,22.53a2.07,2.07,0,0,0,1.47.61,2.09,2.09,0,0,0,1.47-3.58L105.43,591a2.1,2.1,0,0,0-2.92,0L76.17,616.13a2.09,2.09,0,0,0,2.88,3Z"/><path class="cls-1" d="M346.31,657.61V641.19A15.29,15.29,0,0,0,331,625.92H320V598.39a4.05,4.05,0,1,0-4.18,0v27.53H304.76a15.29,15.29,0,0,0-15.26,15.27v16.38a4.05,4.05,0,1,0,4.18,0V641.19a11.1,11.1,0,0,1,11.08-11.09h11.05v27.47a4.06,4.06,0,1,0,4.18,0V630.1H331a11.1,11.1,0,0,1,11.09,11.09v16.42a4.05,4.05,0,1,0,4.18,0Z"/><path class="cls-1" d="M1204.47,641.31a3.86,3.86,0,0,0-3.7-.09l-22-12.68a5.44,5.44,0,0,0,0-.57,4.36,4.36,0,0,0,0-.51l22-12.68a3.86,3.86,0,1,0-2.09-3.62l-21.94,12.67a4.75,4.75,0,0,0-1-.56V597.94a3.87,3.87,0,1,0-4.18,0v25.33a4.82,4.82,0,0,0-1,.56l-21.94-12.67a3.86,3.86,0,1,0-2.09,3.62l22,12.68a4.36,4.36,0,0,0,0,.51,5.44,5.44,0,0,0,0,.57l-22,12.68a3.86,3.86,0,1,0,2.09,3.62l22-12.69a5.38,5.38,0,0,0,.91.52v25.39a3.86,3.86,0,1,0,4.18,0V632.67a6.29,6.29,0,0,0,.91-.52l22,12.69a3.86,3.86,0,1,0,5.79-3.53Z"/><path class="cls-1" d="M121.53,778a1.57,1.57,0,0,0-3.1.49l.17,1.1a28.42,28.42,0,0,0-29.86.36A2.09,2.09,0,0,0,91,783.51a24.28,24.28,0,0,1,25.15-.49l-1.1.18a1.56,1.56,0,0,0,.25,3.11,1,1,0,0,0,.24,0l5.59-.88a1.58,1.58,0,0,0,1.3-1.8Z"/><path class="cls-1" d="M116.93,824.49a24.29,24.29,0,0,1-26,0A2.09,2.09,0,0,0,88.71,828a28.42,28.42,0,0,0,30.46,0,2.09,2.09,0,1,0-2.24-3.53Z"/><path class="cls-1" d="M82.82,788.14a2.1,2.1,0,0,0-2.89.64,28.47,28.47,0,0,0,0,30.41A2.09,2.09,0,1,0,83.45,817a24.26,24.26,0,0,1,0-25.93A2.09,2.09,0,0,0,82.82,788.14Z"/><path class="cls-1" d="M125.07,788.11a2.1,2.1,0,0,0-.64,2.89,24.26,24.26,0,0,1,0,26,2.09,2.09,0,0,0,.64,2.88,2.09,2.09,0,0,0,2.89-.64,28.47,28.47,0,0,0,0-30.47A2.1,2.1,0,0,0,125.07,788.11Z"/><path class="cls-1" d="M1839,768.08a4.16,4.16,0,0,0,0,5.88l0,0-10.69,39.83h0l-22.51-22.51a4.16,4.16,0,1,0-6.94,1.77l0,0L1788.16,833a4.16,4.16,0,1,0,4,1.12l10.66-39.74,22.47,22.47a4.57,4.57,0,0,0-.13,1.05,4.17,4.17,0,1,0,7.14-2.91L1843.05,775a4.06,4.06,0,0,0,1.8-1.06,4.16,4.16,0,1,0-5.89-5.88Z"/><path class="cls-1" d="M959.81,765.62a2.09,2.09,0,0,0-2.09,2.09v72.58a2.09,2.09,0,0,0,4.18,0V767.71A2.1,2.1,0,0,0,959.81,765.62Z"/><path class="cls-1" d="M982.41,787.64a2.09,2.09,0,0,0-3,3L992.86,804l-13.41,13.41a2.09,2.09,0,0,0,3,3l14.89-14.89a2.1,2.1,0,0,0,0-3Z"/><path class="cls-1" d="M940.07,787.64a2.09,2.09,0,0,0-3,0l-14.89,14.89a2.08,2.08,0,0,0,0,3l14.89,14.89a2.1,2.1,0,0,0,3,0,2.11,2.11,0,0,0,0-3L926.65,804l13.42-13.41A2.11,2.11,0,0,0,940.07,787.64Z"/><path class="cls-1" d="M757,800.58a4,4,0,1,0,5.43,1.45A4,4,0,0,0,757,800.58Z"/><path class="cls-1" d="M774.24,833.78v-52.3a15.26,15.26,0,0,0-30.52,0v45a11.07,11.07,0,0,1-22.14,0V774.23a4,4,0,1,0-5.56-1.37,3.89,3.89,0,0,0,1.38,1.41v52.25a15.26,15.26,0,0,0,30.51,0v-45a11.07,11.07,0,0,1,22.14,0v52.31a4,4,0,1,0,4.19,0Z"/><path class="cls-1" d="M1628,837.48h-52.65a2.09,2.09,0,1,0,0,4.18H1628a2.09,2.09,0,0,0,0-4.18Z"/><path class="cls-1" d="M1628,792.7h-21.3l15.06-15.07a2.09,2.09,0,0,0-3-3l-15.07,15.07V768.43a2.09,2.09,0,0,0-4.18,0v21.31l-15.07-15.07a2.09,2.09,0,0,0-3,3l15.07,15.07h-21.31a2.09,2.09,0,1,0,0,4.18h21.31L1581.49,812a2.09,2.09,0,1,0,3,2.95l15.07-15.06v21.3a2.09,2.09,0,0,0,4.18,0v-21.3l15.07,15.06a2.06,2.06,0,0,0,1.47.62,2.1,2.1,0,0,0,1.48-3.57l-15.06-15.07H1628a2.09,2.09,0,0,0,0-4.18Z"/><path class="cls-1" d="M561.4,782.86a2.09,2.09,0,0,0-2.77,3.13,24,24,0,0,1,0,36,2.1,2.1,0,0,0,2.78,3.14,28.71,28.71,0,0,0,5.74-7,28.25,28.25,0,0,0-5.73-35.26Z"/><path class="cls-1" d="M550.3,826.81a24.06,24.06,0,0,1-13.39.54,28.27,28.27,0,0,0,11.79-17.7,2.09,2.09,0,1,0-4.09-.84,24.09,24.09,0,0,1-11.55,16c-.39.23-.8.45-1.2.65-.41-.2-.81-.42-1.21-.65a24.08,24.08,0,0,1-11.54-16,2.09,2.09,0,1,0-4.1.84,28.27,28.27,0,0,0,11.79,17.7,24.06,24.06,0,0,1-13.39-.54,2.09,2.09,0,0,0-1.32,4,28.32,28.32,0,0,0,19.77-.7,28.29,28.29,0,0,0,19.76.7,2.09,2.09,0,0,0-1.32-4Z"/><path class="cls-1" d="M513.42,781.18a24.08,24.08,0,0,1,13.38-.53A28.26,28.26,0,0,0,515,798.36a2.09,2.09,0,0,0,1.63,2.47,2,2,0,0,0,.42,0,2.09,2.09,0,0,0,2.05-1.67,24,24,0,0,1,12.76-16.68,24,24,0,0,1,12.75,16.68,2.1,2.1,0,0,0,2,1.67,2,2,0,0,0,.42,0,2.09,2.09,0,0,0,1.63-2.47,28.26,28.26,0,0,0-11.8-17.71,24.08,24.08,0,0,1,13.38.53,2.09,2.09,0,0,0,1.33-4,28.3,28.3,0,0,0-18.81.34c-.32.11-.64.24-.95.37-.32-.13-.63-.26-1-.37a28.33,28.33,0,0,0-18.82-.34,2.09,2.09,0,1,0,1.33,4Z"/><path class="cls-1" d="M505.1,822a23.78,23.78,0,0,1-4.89-6,24.08,24.08,0,0,1,4.87-30,2.09,2.09,0,1,0-2.77-3.13,28.28,28.28,0,0,0,0,42.3,2.07,2.07,0,0,0,1.38.52A2.09,2.09,0,0,0,505.1,822Z"/><path class="cls-1" d="M1200.08,837.38h-52.74a2.09,2.09,0,0,0,0,4.18h52.74a2.09,2.09,0,1,0,0-4.18Z"/><path class="cls-1" d="M1148.8,795.16l22.82-21.75v26.67a2.09,2.09,0,0,0,0,.43,4,4,0,1,0,4.09,0,2.1,2.1,0,0,0,0-.43V773.54l22.78,22.53a2.07,2.07,0,0,0,1.47.61,2.09,2.09,0,0,0,1.47-3.58L1175.18,767a2.1,2.1,0,0,0-2.92,0l-26.34,25.12a2.09,2.09,0,0,0,2.88,3Z"/><path class="cls-1" d="M1416.06,833.61V817.19a15.29,15.29,0,0,0-15.26-15.27h-11V774.39a4.06,4.06,0,1,0-4.18,0v27.53h-11a15.29,15.29,0,0,0-15.27,15.27v16.38a4.06,4.06,0,1,0,4.18,0V817.19a11.11,11.11,0,0,1,11.09-11.09h11v27.47a4.05,4.05,0,1,0,4.18,0V806.1h11a11.1,11.1,0,0,1,11.08,11.09v16.42a4.06,4.06,0,1,0,4.18,0Z"/><path class="cls-1" d="M348.68,817.31a3.86,3.86,0,0,0-3.7-.09l-22-12.68a5.44,5.44,0,0,0,0-.57,4.36,4.36,0,0,0,0-.51l22-12.68a3.86,3.86,0,1,0-2.09-3.62L321,799.83a4.75,4.75,0,0,0-.95-.56V773.94a3.87,3.87,0,1,0-4.19,0v25.33a4.75,4.75,0,0,0-.95.56l-21.94-12.67a3.86,3.86,0,1,0-2.09,3.62l22,12.68a4.36,4.36,0,0,0,0,.51,5.44,5.44,0,0,0,0,.57l-22,12.68a3.86,3.86,0,1,0,2.09,3.62l22-12.69a5.7,5.7,0,0,0,.9.52v25.39a3.87,3.87,0,1,0,4.19,0V808.67a6.29,6.29,0,0,0,.91-.52l22,12.69a3.86,3.86,0,1,0,5.79-3.53Z"/><path class="cls-1" d="M1405.12,954a1.56,1.56,0,0,0-3.09.49l.17,1.1a28.44,28.44,0,0,0-29.87.36,2.09,2.09,0,0,0,2.25,3.53,24.28,24.28,0,0,1,25.15-.49l-1.1.18a1.56,1.56,0,0,0,.24,3.11,1,1,0,0,0,.25,0l5.58-.88a1.58,1.58,0,0,0,1.31-1.8Z"/><path class="cls-1" d="M1400.53,1000.49a24.29,24.29,0,0,1-26,0,2.09,2.09,0,0,0-2.25,3.53,28.44,28.44,0,0,0,30.47,0,2.09,2.09,0,1,0-2.24-3.53Z"/><path class="cls-1" d="M1366.41,964.14a2.09,2.09,0,0,0-2.88.64,28.47,28.47,0,0,0,0,30.41A2.09,2.09,0,1,0,1367,993a24.29,24.29,0,0,1,0-25.93A2.08,2.08,0,0,0,1366.41,964.14Z"/><path class="cls-1" d="M1408.67,964.11A2.1,2.1,0,0,0,1408,967a24.26,24.26,0,0,1,0,26,2.09,2.09,0,0,0,.64,2.88,2.09,2.09,0,0,0,2.89-.64,28.47,28.47,0,0,0,0-30.47A2.1,2.1,0,0,0,1408.67,964.11Z"/><path class="cls-1" d="M1197,944.08a4.15,4.15,0,0,0,0,5.88l0,0-10.69,39.83h0l-22.51-22.51a4.16,4.16,0,1,0-6.94,1.77l0,0L1146.15,1009a4.16,4.16,0,1,0,4,1.12l10.67-39.74,22.47,22.47a4.08,4.08,0,0,0-.13,1.05,4.16,4.16,0,1,0,7.13-2.91L1201,951a4.06,4.06,0,0,0,1.8-1.06,4.16,4.16,0,1,0-5.88-5.88Z"/><path class="cls-1" d="M103.59,941.62a2.1,2.1,0,0,0-2.09,2.09v72.58a2.09,2.09,0,1,0,4.18,0V943.71A2.09,2.09,0,0,0,103.59,941.62Z"/><path class="cls-1" d="M126.19,963.64a2.09,2.09,0,0,0-3,3L136.65,980l-13.42,13.41a2.09,2.09,0,0,0,1.48,3.57,2.07,2.07,0,0,0,1.48-.61l14.89-14.89a2.1,2.1,0,0,0,0-3Z"/><path class="cls-1" d="M83.85,963.64a2.09,2.09,0,0,0-3,0L66,978.53a2.1,2.1,0,0,0,0,3l14.89,14.89a2.09,2.09,0,1,0,3-3L70.44,980,83.85,966.6A2.09,2.09,0,0,0,83.85,963.64Z"/><path class="cls-1" d="M328.73,976.58a4,4,0,1,0,5.43,1.45A4,4,0,0,0,328.73,976.58Z"/><path class="cls-1" d="M346,1009.78v-52.3a15.26,15.26,0,0,0-30.51,0v45a11.08,11.08,0,0,1-22.15,0V950.23a4,4,0,1,0-5.56-1.37,4.05,4.05,0,0,0,1.38,1.41v52.25a15.26,15.26,0,0,0,30.51,0v-45a11.08,11.08,0,0,1,22.15,0v52.31a4,4,0,1,0,5.54,1.39A3.81,3.81,0,0,0,346,1009.78Z"/><path class="cls-1" d="M985.91,1013.48H933.25a2.09,2.09,0,0,0,0,4.18h52.66a2.09,2.09,0,1,0,0-4.18Z"/><path class="cls-1" d="M985.91,968.7H964.6l15.06-15.07a2.09,2.09,0,0,0-2.95-3l-15.07,15.07V944.43a2.09,2.09,0,0,0-4.18,0v21.31l-15.07-15.07a2.09,2.09,0,0,0-3,3L954.5,968.7H933.19a2.09,2.09,0,1,0,0,4.18H954.5L939.43,988a2.09,2.09,0,1,0,3,2.95l15.07-15.06v21.3a2.09,2.09,0,0,0,4.18,0v-21.3l15.07,15.06a2.08,2.08,0,0,0,1.48.62,2.1,2.1,0,0,0,1.47-3.57L964.6,972.88h21.31a2.09,2.09,0,1,0,0-4.18Z"/><path class="cls-1" d="M1845.1,958.86a2.09,2.09,0,1,0-2.77,3.13,24.07,24.07,0,0,1,0,36,2.09,2.09,0,0,0,2.77,3.14,28.26,28.26,0,0,0,0-42.3Z"/><path class="cls-1" d="M1834,1002.81a24.05,24.05,0,0,1-13.39.54,28.23,28.23,0,0,0,11.79-17.7,2.09,2.09,0,1,0-4.09-.84,24.11,24.11,0,0,1-11.54,16c-.4.23-.8.45-1.21.65-.41-.2-.81-.42-1.21-.65a24.08,24.08,0,0,1-11.54-16,2.09,2.09,0,0,0-4.1.84,28.27,28.27,0,0,0,11.79,17.7,24,24,0,0,1-13.38-.54,2.09,2.09,0,0,0-1.33,4,28.32,28.32,0,0,0,19.77-.7,28.29,28.29,0,0,0,19.76.7,2.09,2.09,0,1,0-1.32-4Z"/><path class="cls-1" d="M1797.12,957.18a24.08,24.08,0,0,1,13.38-.53,28.26,28.26,0,0,0-11.8,17.71,2.09,2.09,0,0,0,1.63,2.47,2,2,0,0,0,.42,0,2.09,2.09,0,0,0,2-1.67,24.11,24.11,0,0,1,12.76-16.68,24.11,24.11,0,0,1,12.76,16.68,2.08,2.08,0,0,0,2,1.67,2,2,0,0,0,.42,0,2.09,2.09,0,0,0,1.63-2.47,28.26,28.26,0,0,0-11.8-17.71,24.08,24.08,0,0,1,13.38.53,2.09,2.09,0,0,0,1.33-4,28.31,28.31,0,0,0-18.81.34c-.32.11-.64.24-1,.37-.32-.13-.63-.26-1-.37a28.33,28.33,0,0,0-18.82-.34,2.09,2.09,0,0,0,1.33,4Z"/><path class="cls-1" d="M1788.8,998a24.07,24.07,0,0,1,0-36,2.09,2.09,0,1,0-2.77-3.13,28.27,28.27,0,0,0,0,42.3,2.09,2.09,0,0,0,2.77-3.14Z"/><path class="cls-1" d="M557.92,1013.38H505.18a2.09,2.09,0,1,0,0,4.18h52.74a2.09,2.09,0,0,0,0-4.18Z"/><path class="cls-1" d="M506.64,971.16l22.81-21.75v26.67a2.1,2.1,0,0,0,0,.43,4,4,0,1,0,4.09,0,2.1,2.1,0,0,0,0-.43V949.54l22.78,22.53a2.07,2.07,0,0,0,1.47.61,2.09,2.09,0,0,0,1.47-3.58L533,943a2.1,2.1,0,0,0-2.92,0l-26.34,25.12a2.09,2.09,0,0,0,2.88,3Z"/><path class="cls-1" d="M774,1009.61V993.19a15.29,15.29,0,0,0-15.26-15.27H747.64V950.39a4.06,4.06,0,1,0-4.18,0v27.53H732.41a15.29,15.29,0,0,0-15.27,15.27v16.38a4.06,4.06,0,1,0,4.18,0V993.19a11.11,11.11,0,0,1,11.09-11.09h11.05v27.47a4.05,4.05,0,1,0,4.18,0V982.1h11.05a11.1,11.1,0,0,1,11.08,11.09v16.42a4.06,4.06,0,1,0,4.18,0Z"/><path class="cls-1" d="M1632.33,993.31a3.86,3.86,0,0,0-3.7-.09l-22-12.68a5.44,5.44,0,0,0,0-.57,4.36,4.36,0,0,0,0-.51l22-12.68a3.86,3.86,0,1,0-2.09-3.62l-21.94,12.67a4.75,4.75,0,0,0-.95-.56V949.94a3.87,3.87,0,1,0-4.18,0v25.33a4.82,4.82,0,0,0-1,.56l-21.94-12.67a3.86,3.86,0,1,0-2.09,3.62l22,12.68a4.36,4.36,0,0,0,0,.51,5.44,5.44,0,0,0,0,.57l-22,12.68a3.86,3.86,0,1,0,2.09,3.62l22-12.69a5.38,5.38,0,0,0,.91.52v25.39a3.86,3.86,0,1,0,4.18,0V984.67a6.29,6.29,0,0,0,.91-.52l22,12.69a3.86,3.86,0,1,0,5.79-3.53Z"/></svg>